STARTFONT 2.1
FONT -Mona-Gothic-Medium-R-Normal--12-110-75-75-P-120-JISX0208.1990-0
SIZE 11 75 75
FONTBOUNDINGBOX 12 12 0 -2

STARTPROPERTIES 23
FONTNAME_REGISTRY ""
FOUNDRY "Mona"
FAMILY_NAME "Gothic"
WEIGHT_NAME "Medium"
SLANT "R"
SETWIDTH_NAME "Normal"
ADD_STYLE_NAME ""
PIXEL_SIZE 12
POINT_SIZE 110
RESOLUTION_X 75
RESOLUTION_Y 75
SPACING "P"
AVERAGE_WIDTH 120
CHARSET_REGISTRY "JISX0208.1990"
CHARSET_ENCODING "0"
COPYRIGHT "Public Domain"
_XMBDFED_INFO "Edited with xmbdfed 4.4."
WEIGHT 10
X_HEIGHT 10
QUAD_WIDTH 7
DEFAULT_CHAR 8486
FONT_DESCENT 2
FONT_ASCENT 10
ENDPROPERTIES

CHARS 7057

STARTCHAR 2121
ENCODING 8481
SWIDTH 960 0
DWIDTH 8 0
BBX 8 12 0 -2
BITMAP
00
00
00
00
00
00
00
00
00
00
00
00
ENDCHAR

STARTCHAR 2122
ENCODING 8482
SWIDTH 960 0
DWIDTH 8 0
BBX 8 12 0 -2
BITMAP
00
00
00
00
00
00
00
00
00
40
20
10
ENDCHAR

STARTCHAR 2123
ENCODING 8483
SWIDTH 960 0
DWIDTH 8 0
BBX 8 12 0 -2
BITMAP
00
00
00
00
00
00
00
00
00
30
48
30
ENDCHAR

STARTCHAR 2124
ENCODING 8484
SWIDTH 960 0
DWIDTH 8 0
BBX 8 12 0 -2
BITMAP
00
00
00
00
00
00
00
00
00
20
20
40
ENDCHAR

STARTCHAR 2125
ENCODING 8485
SWIDTH 960 0
DWIDTH 8 0
BBX 8 12 0 -2
BITMAP
00
00
00
00
00
00
00
00
00
60
60
00
ENDCHAR

STARTCHAR 2126
ENCODING 8486
SWIDTH 960 0
DWIDTH 6 0
BBX 6 12 0 -2
BITMAP
00
00
00
00
00
30
30
00
00
00
00
00
ENDCHAR

STARTCHAR 2127
ENCODING 8487
SWIDTH 960 0
DWIDTH 6 0
BBX 6 12 0 -2
BITMAP
00
00
00
30
30
00
00
00
30
30
00
00
ENDCHAR

STARTCHAR 2128
ENCODING 8488
SWIDTH 960 0
DWIDTH 6 0
BBX 6 12 0 -2
BITMAP
00
00
00
30
30
00
00
00
30
10
20
00
ENDCHAR

STARTCHAR 2129
ENCODING 8489
SWIDTH 960 0
DWIDTH 12 0
BBX 12 12 0 -2
BITMAP
0000
0F00
1080
1080
1100
0200
0200
0200
0000
0200
0200
0000
ENDCHAR

STARTCHAR 212a
ENCODING 8490
SWIDTH 960 0
DWIDTH 12 0
BBX 12 12 0 -2
BITMAP
0000
0400
0400
0400
0400
0400
0400
0400
0000
0400
0400
0000
ENDCHAR

STARTCHAR 212b
ENCODING 8491
SWIDTH 960 0
DWIDTH 6 0
BBX 6 12 0 -2
BITMAP
10
48
28
20
00
00
00
00
00
00
00
00
ENDCHAR

STARTCHAR 212c
ENCODING 8492
SWIDTH 960 0
DWIDTH 6 0
BBX 6 12 0 -2
BITMAP
00
20
50
50
20
00
00
00
00
00
00
00
ENDCHAR

STARTCHAR 212d
ENCODING 8493
SWIDTH 960 0
DWIDTH 6 0
BBX 6 12 0 -2
BITMAP
00
20
40
00
00
00
00
00
00
00
00
00
ENDCHAR

STARTCHAR 212e
ENCODING 8494
SWIDTH 960 0
DWIDTH 6 0
BBX 6 12 0 -2
BITMAP
00
60
10
00
00
00
00
00
00
00
00
00
ENDCHAR

STARTCHAR 212f
ENCODING 8495
SWIDTH 960 0
DWIDTH 6 0
BBX 6 12 0 -2
BITMAP
50
50
00
00
00
00
00
00
00
00
00
00
ENDCHAR

STARTCHAR 2130
ENCODING 8496
SWIDTH 960 0
DWIDTH 6 0
BBX 6 12 0 -2
BITMAP
20
50
88
00
00
00
00
00
00
00
00
00
ENDCHAR

STARTCHAR 2131
ENCODING 8497
SWIDTH 960 0
DWIDTH 12 0
BBX 12 12 0 -2
BITMAP
FFF0
0000
0000
0000
0000
0000
0000
0000
0000
0000
0000
0000
ENDCHAR

STARTCHAR 2132
ENCODING 8498
SWIDTH 960 0
DWIDTH 12 0
BBX 12 12 0 -2
BITMAP
0000
0000
0000
0000
0000
0000
0000
0000
0000
0000
0000
FFF0
ENDCHAR

STARTCHAR 2133
ENCODING 8499
SWIDTH 960 0
DWIDTH 9 0
BBX 9 12 0 -2
BITMAP
0000
0000
0000
0000
2000
1000
0800
0400
0200
0200
0000
0000
ENDCHAR

STARTCHAR 2134
ENCODING 8500
SWIDTH 960 0
DWIDTH 9 0
BBX 9 12 0 -2
BITMAP
0000
0000
0400
1200
4800
2000
1000
0800
0400
0400
0000
0000
ENDCHAR

STARTCHAR 2135
ENCODING 8501
SWIDTH 960 0
DWIDTH 9 0
BBX 9 12 0 -2
BITMAP
0000
0000
0000
0000
2000
2000
1000
0C00
3000
0000
0000
0000
ENDCHAR

STARTCHAR 2136
ENCODING 8502
SWIDTH 960 0
DWIDTH 8 0
BBX 8 12 0 -2
BITMAP
00
00
08
24
50
20
10
08
04
18
00
00
ENDCHAR

STARTCHAR 2137
ENCODING 8503
SWIDTH 960 0
DWIDTH 12 0
BBX 12 12 0 -2
BITMAP
0000
0000
0000
0900
0900
0900
1200
1200
2400
0000
0000
0000
ENDCHAR

STARTCHAR 2138
ENCODING 8504
SWIDTH 960 0
DWIDTH 12 0
BBX 12 12 0 -2
BITMAP
0400
0400
0A00
1100
2080
C060
3F80
0400
0400
0400
0400
FFE0
ENDCHAR

STARTCHAR 2139
ENCODING 8505
SWIDTH 960 0
DWIDTH 12 0
BBX 12 12 0 -2
BITMAP
0000
0000
0800
0F80
0880
1100
2100
4A00
0600
0100
0080
0000
ENDCHAR

STARTCHAR 213a
ENCODING 8506
SWIDTH 960 0
DWIDTH 12 0
BBX 12 12 0 -2
BITMAP
0000
0040
0040
0080
0100
1A00
2600
4900
5000
6000
0000
0000
ENDCHAR

STARTCHAR 213b
ENCODING 8507
SWIDTH 960 0
DWIDTH 12 0
BBX 12 12 0 -2
BITMAP
0000
0E00
3180
4040
4040
8020
8020
8020
4040
4040
3180
0E00
ENDCHAR

STARTCHAR 213c
ENCODING 8508
SWIDTH 960 0
DWIDTH 12 0
BBX 12 12 0 -2
BITMAP
0000
0000
0000
0000
0000
4000
3FC0
0000
0000
0000
0000
0000
ENDCHAR

STARTCHAR 213d
ENCODING 8509
SWIDTH 960 0
DWIDTH 12 0
BBX 12 12 0 -2
BITMAP
0000
0000
0000
0000
0000
FFF0
0000
0000
0000
0000
0000
0000
ENDCHAR

STARTCHAR 213e
ENCODING 8510
SWIDTH 960 0
DWIDTH 6 0
BBX 6 12 0 -2
BITMAP
00
00
00
00
00
78
00
00
00
00
00
00
ENDCHAR

STARTCHAR 213f
ENCODING 8511
SWIDTH 960 0
DWIDTH 12 0
BBX 12 12 0 -2
BITMAP
0010
0020
0040
0080
0100
0200
0400
0800
1000
2000
4000
8000
ENDCHAR

STARTCHAR 2140
ENCODING 8512
SWIDTH 960 0
DWIDTH 12 0
BBX 12 12 0 -2
BITMAP
8000
4000
2000
1000
0800
0400
0200
0100
0080
0040
0020
0010
ENDCHAR

STARTCHAR 2141
ENCODING 8513
SWIDTH 960 0
DWIDTH 12 0
BBX 12 12 0 -2
BITMAP
0000
0000
0000
0000
3800
4400
0220
01C0
0000
0000
0000
0000
ENDCHAR

STARTCHAR 2142
ENCODING 8514
SWIDTH 960 0
DWIDTH 12 0
BBX 12 12 0 -2
BITMAP
0900
0900
0900
0900
0900
0900
0900
0900
0900
0900
0900
0900
ENDCHAR

STARTCHAR 2143
ENCODING 8515
SWIDTH 960 0
DWIDTH 12 0
BBX 12 12 0 -2
BITMAP
0200
0200
0200
0200
0200
0200
0200
0200
0200
0200
0200
0200
ENDCHAR

STARTCHAR 2144
ENCODING 8516
SWIDTH 960 0
DWIDTH 12 0
BBX 12 12 0 -2
BITMAP
0000
0000
0000
0000
0000
6660
6660
0000
0000
0000
0000
0000
ENDCHAR

STARTCHAR 2145
ENCODING 8517
SWIDTH 960 0
DWIDTH 12 0
BBX 12 12 0 -2
BITMAP
0000
0000
0000
0000
0000
3180
3180
0000
0000
0000
0000
0000
ENDCHAR

STARTCHAR 2146
ENCODING 8518
SWIDTH 960 0
DWIDTH 6 0
BBX 6 12 0 -2
BITMAP
10
20
20
30
00
00
00
00
00
00
00
00
ENDCHAR

STARTCHAR 2147
ENCODING 8519
SWIDTH 960 0
DWIDTH 6 0
BBX 6 12 0 -2
BITMAP
60
20
20
40
00
00
00
00
00
00
00
00
ENDCHAR

STARTCHAR 2148
ENCODING 8520
SWIDTH 960 0
DWIDTH 6 0
BBX 6 12 0 -2
BITMAP
48
90
90
D8
00
00
00
00
00
00
00
00
ENDCHAR

STARTCHAR 2149
ENCODING 8521
SWIDTH 960 0
DWIDTH 6 0
BBX 6 12 0 -2
BITMAP
D8
48
48
90
00
00
00
00
00
00
00
00
ENDCHAR

STARTCHAR 214a
ENCODING 8522
SWIDTH 960 0
DWIDTH 6 0
BBX 6 12 0 -2
BITMAP
00
08
10
20
20
40
40
40
20
20
10
08
ENDCHAR

STARTCHAR 214b
ENCODING 8523
SWIDTH 960 0
DWIDTH 6 0
BBX 6 12 0 -2
BITMAP
00
40
20
10
10
08
08
08
10
10
20
40
ENDCHAR

STARTCHAR 214c
ENCODING 8524
SWIDTH 960 0
DWIDTH 6 0
BBX 6 12 0 -2
BITMAP
18
60
40
40
40
40
40
40
40
40
60
18
ENDCHAR

STARTCHAR 214d
ENCODING 8525
SWIDTH 960 0
DWIDTH 6 0
BBX 6 12 0 -2
BITMAP
60
18
08
08
08
08
08
08
08
08
18
60
ENDCHAR

STARTCHAR 214e
ENCODING 8526
SWIDTH 960 0
DWIDTH 6 0
BBX 6 12 0 -2
BITMAP
78
40
40
40
40
40
40
40
40
40
40
78
ENDCHAR

STARTCHAR 214f
ENCODING 8527
SWIDTH 960 0
DWIDTH 6 0
BBX 6 12 0 -2
BITMAP
78
08
08
08
08
08
08
08
08
08
08
78
ENDCHAR

STARTCHAR 2150
ENCODING 8528
SWIDTH 960 0
DWIDTH 6 0
BBX 6 12 0 -2
BITMAP
10
20
20
20
20
40
20
20
20
20
20
10
ENDCHAR

STARTCHAR 2151
ENCODING 8529
SWIDTH 960 0
DWIDTH 6 0
BBX 6 12 0 -2
BITMAP
40
20
20
20
20
10
20
20
20
20
20
40
ENDCHAR

STARTCHAR 2152
ENCODING 8530
SWIDTH 960 0
DWIDTH 6 0
BBX 6 12 0 -2
BITMAP
08
10
10
20
20
40
40
20
20
10
10
08
ENDCHAR

STARTCHAR 2153
ENCODING 8531
SWIDTH 960 0
DWIDTH 6 0
BBX 6 12 0 -2
BITMAP
40
20
20
10
10
08
08
10
10
20
20
40
ENDCHAR

STARTCHAR 2154
ENCODING 8532
SWIDTH 960 0
DWIDTH 6 0
BBX 6 12 0 -2
BITMAP
28
28
50
50
50
A0
A0
50
50
50
28
28
ENDCHAR

STARTCHAR 2155
ENCODING 8533
SWIDTH 960 0
DWIDTH 6 0
BBX 6 12 0 -2
BITMAP
A0
A0
50
50
50
28
28
50
50
50
A0
A0
ENDCHAR

STARTCHAR 2156
ENCODING 8534
SWIDTH 960 0
DWIDTH 6 0
BBX 6 12 0 -2
BITMAP
78
40
40
40
40
40
40
40
00
00
00
00
ENDCHAR

STARTCHAR 2157
ENCODING 8535
SWIDTH 960 0
DWIDTH 6 0
BBX 6 12 0 -2
BITMAP
00
00
00
00
08
08
08
08
08
08
08
78
ENDCHAR

STARTCHAR 2158
ENCODING 8536
SWIDTH 960 0
DWIDTH 6 0
BBX 6 12 0 -2
BITMAP
F8
88
B8
A0
A0
A0
A0
E0
00
00
00
00
ENDCHAR

STARTCHAR 2159
ENCODING 8537
SWIDTH 960 0
DWIDTH 6 0
BBX 6 12 0 -2
BITMAP
00
00
00
00
38
28
28
28
28
E8
88
F8
ENDCHAR

STARTCHAR 215a
ENCODING 8538
SWIDTH 960 0
DWIDTH 6 0
BBX 6 12 0 -2
BITMAP
78
70
70
60
60
60
60
60
60
70
70
78
ENDCHAR

STARTCHAR 215b
ENCODING 8539
SWIDTH 960 0
DWIDTH 6 0
BBX 6 12 0 -2
BITMAP
78
38
38
18
18
18
18
18
18
38
38
78
ENDCHAR

STARTCHAR 215c
ENCODING 8540
SWIDTH 960 0
DWIDTH 12 0
BBX 12 12 0 -2
BITMAP
0000
0400
0400
0400
0400
7FC0
0400
0400
0400
0400
0000
0000
ENDCHAR

STARTCHAR 215d
ENCODING 8541
SWIDTH 960 0
DWIDTH 12 0
BBX 12 12 0 -2
BITMAP
0000
0000
0000
0000
0000
3FC0
0000
0000
0000
0000
0000
0000
ENDCHAR

STARTCHAR 215e
ENCODING 8542
SWIDTH 960 0
DWIDTH 12 0
BBX 12 12 0 -2
BITMAP
0000
0400
0400
0400
0400
7FC0
0400
0400
0400
0000
7FC0
0000
ENDCHAR

STARTCHAR 215f
ENCODING 8543
SWIDTH 960 0
DWIDTH 12 0
BBX 12 12 0 -2
BITMAP
0000
0000
2040
1080
0900
0600
0600
0900
1080
2040
0000
0000
ENDCHAR

STARTCHAR 2160
ENCODING 8544
SWIDTH 960 0
DWIDTH 12 0
BBX 12 12 0 -2
BITMAP
0000
0000
0C00
0C00
0000
0000
7FC0
0000
0000
0C00
0C00
0000
ENDCHAR

STARTCHAR 2161
ENCODING 8545
SWIDTH 960 0
DWIDTH 12 0
BBX 12 12 0 -2
BITMAP
0000
0000
0000
0000
7FC0
0000
0000
7FC0
0000
0000
0000
0000
ENDCHAR

STARTCHAR 2162
ENCODING 8546
SWIDTH 960 0
DWIDTH 12 0
BBX 12 12 0 -2
BITMAP
0000
0100
0100
0200
7FC0
0400
0400
7FC0
0800
1000
1000
0000
ENDCHAR

STARTCHAR 2163
ENCODING 8547
SWIDTH 960 0
DWIDTH 12 0
BBX 12 12 0 -2
BITMAP
0000
00C0
0300
0C00
3000
4000
3000
0C00
0300
00C0
0000
0000
ENDCHAR

STARTCHAR 2164
ENCODING 8548
SWIDTH 960 0
DWIDTH 12 0
BBX 12 12 0 -2
BITMAP
0000
6000
1800
0600
0180
0040
0180
0600
1800
6000
0000
0000
ENDCHAR

STARTCHAR 2165
ENCODING 8549
SWIDTH 960 0
DWIDTH 12 0
BBX 12 12 0 -2
BITMAP
0000
0060
0380
1C00
6000
1C00
0380
0060
7FE0
0000
7FE0
0000
ENDCHAR

STARTCHAR 2166
ENCODING 8550
SWIDTH 960 0
DWIDTH 12 0
BBX 12 12 0 -2
BITMAP
0000
6000
1C00
0380
0060
0380
1C00
6000
7FE0
0000
7FE0
0000
ENDCHAR

STARTCHAR 2167
ENCODING 8551
SWIDTH 960 0
DWIDTH 12 0
BBX 12 12 0 -2
BITMAP
0000
0000
0000
3180
4A40
8420
8420
4A40
3180
0000
0000
0000
ENDCHAR

STARTCHAR 2168
ENCODING 8552
SWIDTH 960 0
DWIDTH 12 0
BBX 12 12 0 -2
BITMAP
0000
0000
0600
0600
0000
0000
0000
0000
30C0
30C0
0000
0000
ENDCHAR

STARTCHAR 2169
ENCODING 8553
SWIDTH 960 0
DWIDTH 12 0
BBX 12 12 0 -2
BITMAP
0000
03E0
0060
00A0
0120
0220
3C00
4400
4400
4400
3800
0000
ENDCHAR

STARTCHAR 216a
ENCODING 8554
SWIDTH 960 0
DWIDTH 12 0
BBX 12 12 0 -2
BITMAP
0000
0E00
1100
1100
1100
0E00
0400
0400
3F80
0400
0400
0400
ENDCHAR

STARTCHAR 216b
ENCODING 8555
SWIDTH 960 0
DWIDTH 12 0
BBX 12 12 0 -2
BITMAP
0000
3000
4800
4800
3000
0000
0000
0000
0000
0000
0000
0000
ENDCHAR

STARTCHAR 216c
ENCODING 8556
SWIDTH 960 0
DWIDTH 12 0
BBX 12 12 0 -2
BITMAP
1800
0800
0800
1000
0000
0000
0000
0000
0000
0000
0000
0000
ENDCHAR

STARTCHAR 216d
ENCODING 8557
SWIDTH 960 0
DWIDTH 12 0
BBX 12 12 0 -2
BITMAP
3600
1200
1200
2400
0000
0000
0000
0000
0000
0000
0000
0000
ENDCHAR

STARTCHAR 216e
ENCODING 8558
SWIDTH 960 0
DWIDTH 12 0
BBX 12 12 0 -2
BITMAP
0000
2300
5480
2840
1000
1000
1000
1000
1040
0880
0700
0000
ENDCHAR

STARTCHAR 216f
ENCODING 8559
SWIDTH 960 0
DWIDTH 12 0
BBX 12 12 0 -2
BITMAP
0000
4040
2080
1100
3F80
0A00
3F80
0400
0400
0400
0400
0000
ENDCHAR

STARTCHAR 2170
ENCODING 8560
SWIDTH 960 0
DWIDTH 12 0
BBX 12 12 0 -2
BITMAP
0400
1F00
2480
2480
1400
0C00
0600
0500
2480
1480
0F00
0400
ENDCHAR

STARTCHAR 2171
ENCODING 8561
SWIDTH 960 0
DWIDTH 12 0
BBX 12 12 0 -2
BITMAP
0000
0000
0000
0400
1C00
2600
4900
4800
4900
3200
1C00
1000
ENDCHAR

STARTCHAR 2172
ENCODING 8562
SWIDTH 960 0
DWIDTH 12 0
BBX 12 12 0 -2
BITMAP
0000
0300
0480
0400
0800
0800
7F00
0800
3820
4C40
3380
0000
ENDCHAR

STARTCHAR 2173
ENCODING 8563
SWIDTH 960 0
DWIDTH 12 0
BBX 12 12 0 -2
BITMAP
0000
3020
4840
4880
3100
0200
0400
08C0
1120
2120
40C0
0000
ENDCHAR

STARTCHAR 2174
ENCODING 8564
SWIDTH 960 0
DWIDTH 12 0
BBX 12 12 0 -2
BITMAP
0880
0880
0880
7FE0
1100
1100
1100
1100
FFC0
2200
2200
2200
ENDCHAR

STARTCHAR 2175
ENCODING 8565
SWIDTH 960 0
DWIDTH 12 0
BBX 12 12 0 -2
BITMAP
0000
1C00
2200
2200
2400
1840
2840
4480
4300
2300
1CC0
0000
ENDCHAR

STARTCHAR 2176
ENCODING 8566
SWIDTH 960 0
DWIDTH 12 0
BBX 12 12 0 -2
BITMAP
0000
0000
0000
0400
3580
0E00
0400
0E00
3580
0400
0000
0000
ENDCHAR

STARTCHAR 2177
ENCODING 8567
SWIDTH 960 0
DWIDTH 12 0
BBX 12 12 0 -2
BITMAP
0000
0F00
1080
2640
4920
4920
4920
46C0
2000
18C0
0700
0000
ENDCHAR

STARTCHAR 2178
ENCODING 8568
SWIDTH 960 0
DWIDTH 12 0
BBX 12 12 0 -2
BITMAP
0E00
1100
1000
0800
0E00
1100
1100
0E00
0200
0100
1100
0E00
ENDCHAR

STARTCHAR 2179
ENCODING 8569
SWIDTH 960 0
DWIDTH 12 0
BBX 12 12 0 -2
BITMAP
0000
0400
0400
0A00
FBE0
4040
2080
1100
2480
3B80
60C0
0000
ENDCHAR

STARTCHAR 217a
ENCODING 8570
SWIDTH 960 0
DWIDTH 12 0
BBX 12 12 0 -2
BITMAP
0000
0400
0400
0E00
FFE0
7FC0
3F80
1F00
3F80
3B80
60C0
0000
ENDCHAR

STARTCHAR 217b
ENCODING 8571
SWIDTH 960 0
DWIDTH 12 0
BBX 12 12 0 -2
BITMAP
0000
0E00
3180
4040
4040
8020
8020
8020
4040
4040
3180
0E00
ENDCHAR

STARTCHAR 217c
ENCODING 8572
SWIDTH 960 0
DWIDTH 12 0
BBX 12 12 0 -2
BITMAP
0000
0E00
3F80
7FC0
7FC0
FFE0
FFE0
FFE0
7FC0
7FC0
3F80
0E00
ENDCHAR

STARTCHAR 217d
ENCODING 8573
SWIDTH 960 0
DWIDTH 12 0
BBX 12 12 0 -2
BITMAP
0000
0E00
3180
4E40
5140
A0A0
A0A0
A0A0
5140
4E40
3180
0E00
ENDCHAR

STARTCHAR 217e
ENCODING 8574
SWIDTH 960 0
DWIDTH 12 0
BBX 12 12 0 -2
BITMAP
0000
0400
0A00
1100
2080
4040
8020
4040
2080
1100
0A00
0400
ENDCHAR

STARTCHAR 2221
ENCODING 8737
SWIDTH 960 0
DWIDTH 12 0
BBX 12 12 0 -2
BITMAP
0000
0400
0E00
1F00
3F80
7FC0
FFE0
7FC0
3F80
1F00
0E00
0400
ENDCHAR

STARTCHAR 2222
ENCODING 8738
SWIDTH 960 0
DWIDTH 12 0
BBX 12 12 0 -2
BITMAP
0000
FFE0
8020
8020
8020
8020
8020
8020
8020
8020
8020
FFE0
ENDCHAR

STARTCHAR 2223
ENCODING 8739
SWIDTH 960 0
DWIDTH 12 0
BBX 12 12 0 -2
BITMAP
0000
FFE0
FFE0
FFE0
FFE0
FFE0
FFE0
FFE0
FFE0
FFE0
FFE0
FFE0
ENDCHAR

STARTCHAR 2224
ENCODING 8740
SWIDTH 960 0
DWIDTH 12 0
BBX 12 12 0 -2
BITMAP
0400
0400
0A00
0A00
1100
1100
2080
2080
4040
4040
FFE0
0000
ENDCHAR

STARTCHAR 2225
ENCODING 8741
SWIDTH 960 0
DWIDTH 12 0
BBX 12 12 0 -2
BITMAP
0400
0400
0E00
0E00
1F00
1F00
3F80
3F80
7FC0
7FC0
FFE0
0000
ENDCHAR

STARTCHAR 2226
ENCODING 8742
SWIDTH 960 0
DWIDTH 12 0
BBX 12 12 0 -2
BITMAP
0000
FFE0
4040
4040
2080
2080
1100
1100
0A00
0A00
0400
0400
ENDCHAR

STARTCHAR 2227
ENCODING 8743
SWIDTH 960 0
DWIDTH 12 0
BBX 12 12 0 -2
BITMAP
0000
FFE0
7FC0
7FC0
3F80
3F80
1F00
1F00
0E00
0E00
0400
0400
ENDCHAR

STARTCHAR 2228
ENCODING 8744
SWIDTH 960 0
DWIDTH 12 0
BBX 12 12 0 -2
BITMAP
0000
4620
2640
1080
0900
6660
6660
0900
1080
2640
4620
0000
ENDCHAR

STARTCHAR 2229
ENCODING 8745
SWIDTH 960 0
DWIDTH 12 0
BBX 12 12 0 -2
BITMAP
0000
7FC0
0000
0000
FFE0
0400
0400
0400
0400
0400
0400
0000
ENDCHAR

STARTCHAR 222a
ENCODING 8746
SWIDTH 960 0
DWIDTH 12 0
BBX 12 12 0 -2
BITMAP
0000
0000
0000
0300
00C0
FFF0
00C0
0300
0000
0000
0000
0000
ENDCHAR

STARTCHAR 222b
ENCODING 8747
SWIDTH 960 0
DWIDTH 12 0
BBX 12 12 0 -2
BITMAP
0000
0000
0000
0C00
3000
FFF0
3000
0C00
0000
0000
0000
0000
ENDCHAR

STARTCHAR 222c
ENCODING 8748
SWIDTH 960 0
DWIDTH 12 0
BBX 12 12 0 -2
BITMAP
0400
0400
0E00
0E00
1500
1500
0400
0400
0400
0400
0400
0400
ENDCHAR

STARTCHAR 222d
ENCODING 8749
SWIDTH 960 0
DWIDTH 12 0
BBX 12 12 0 -2
BITMAP
0400
0400
0400
0400
0400
0400
1500
1500
0E00
0E00
0400
0400
ENDCHAR

STARTCHAR 222e
ENCODING 8750
SWIDTH 960 0
DWIDTH 12 0
BBX 12 12 0 -2
BITMAP
0000
0000
0000
FFF0
FFF0
0000
0000
FFF0
FFF0
0000
0000
0000
ENDCHAR

STARTCHAR 223a
ENCODING 8762
SWIDTH 960 0
DWIDTH 12 0
BBX 12 12 0 -2
BITMAP
0000
0000
0FC0
1000
2000
3FC0
2000
1000
0FC0
0000
0000
0000
ENDCHAR

STARTCHAR 223b
ENCODING 8763
SWIDTH 960 0
DWIDTH 12 0
BBX 12 12 0 -2
BITMAP
0000
0000
3F00
0080
0040
3FC0
0040
0080
3F00
0000
0000
0000
ENDCHAR

STARTCHAR 223c
ENCODING 8764
SWIDTH 960 0
DWIDTH 12 0
BBX 12 12 0 -2
BITMAP
0000
0000
1FE0
2000
4000
4000
2000
1FE0
0000
0000
3FE0
0000
ENDCHAR

STARTCHAR 223d
ENCODING 8765
SWIDTH 960 0
DWIDTH 12 0
BBX 12 12 0 -2
BITMAP
0000
0000
7F80
0040
0020
0020
0040
7F80
0000
0000
7FC0
0000
ENDCHAR

STARTCHAR 223e
ENCODING 8766
SWIDTH 960 0
DWIDTH 12 0
BBX 12 12 0 -2
BITMAP
0000
0000
1FE0
2000
4000
4000
4000
4000
2000
1FE0
0000
0000
ENDCHAR

STARTCHAR 223f
ENCODING 8767
SWIDTH 960 0
DWIDTH 12 0
BBX 12 12 0 -2
BITMAP
0000
0000
7F80
0040
0020
0020
0020
0020
0040
7F80
0000
0000
ENDCHAR

STARTCHAR 2240
ENCODING 8768
SWIDTH 960 0
DWIDTH 12 0
BBX 12 12 0 -2
BITMAP
0000
4080
4080
4080
4080
4080
4080
4080
4080
2100
1E00
0000
ENDCHAR

STARTCHAR 2241
ENCODING 8769
SWIDTH 960 0
DWIDTH 12 0
BBX 12 12 0 -2
BITMAP
0000
1E00
2100
4080
4080
4080
4080
4080
4080
4080
4080
0000
ENDCHAR

STARTCHAR 02-41
ENCODING 8777
SWIDTH 960 0
DWIDTH 12 0
BBX 12 12 0 -2
BITMAP
0000
0000
7FE0
0000
0000
7FE0
0600
0900
1080
2040
4020
0000
ENDCHAR

STARTCHAR 224a
ENCODING 8778
SWIDTH 960 0
DWIDTH 12 0
BBX 12 12 0 -2
BITMAP
0000
0400
0400
0A00
0A00
1100
1100
2080
2080
4040
4040
0000
ENDCHAR

STARTCHAR 224b
ENCODING 8779
SWIDTH 960 0
DWIDTH 12 0
BBX 12 12 0 -2
BITMAP
0000
4040
4040
2080
2080
1100
1100
0A00
0A00
0400
0400
0000
ENDCHAR

STARTCHAR 224c
ENCODING 8780
SWIDTH 960 0
DWIDTH 12 0
BBX 12 12 0 -2
BITMAP
0000
0000
0000
0000
0000
7FE0
0020
0020
0020
0000
0000
0000
ENDCHAR

STARTCHAR 224d
ENCODING 8781
SWIDTH 960 0
DWIDTH 12 0
BBX 12 12 0 -2
BITMAP
0000
0000
0080
0040
FFE0
0010
FFE0
0040
0080
0000
0000
0000
ENDCHAR

STARTCHAR 224e
ENCODING 8782
SWIDTH 960 0
DWIDTH 12 0
BBX 12 12 0 -2
BITMAP
0000
0000
1080
2040
7FE0
8010
7FE0
2040
1080
0000
0000
0000
ENDCHAR

STARTCHAR 224f
ENCODING 8783
SWIDTH 960 0
DWIDTH 12 0
BBX 12 12 0 -2
BITMAP
0000
4040
4040
2080
3F80
1100
1100
0A00
0A00
0400
0400
0000
ENDCHAR

STARTCHAR 2250
ENCODING 8784
SWIDTH 960 0
DWIDTH 12 0
BBX 12 12 0 -2
BITMAP
0000
3F80
0080
0080
0080
3F80
0080
0080
0080
3F80
0000
0000
ENDCHAR

STARTCHAR 225c
ENCODING 8796
SWIDTH 960 0
DWIDTH 12 0
BBX 12 12 0 -2
BITMAP
0000
0040
0080
0100
0200
0400
0800
1000
2000
7FE0
0000
0000
ENDCHAR

STARTCHAR 225d
ENCODING 8797
SWIDTH 960 0
DWIDTH 12 0
BBX 12 12 0 -2
BITMAP
0000
0400
0400
0400
0400
0400
0400
0400
0400
7FE0
0000
0000
ENDCHAR

STARTCHAR 225e
ENCODING 8798
SWIDTH 960 0
DWIDTH 12 0
BBX 12 12 0 -2
BITMAP
0F00
30C0
4020
0000
0000
0000
0000
0000
0000
0000
0000
0000
ENDCHAR

STARTCHAR 225f
ENCODING 8799
SWIDTH 960 0
DWIDTH 12 0
BBX 12 12 0 -2
BITMAP
0000
0700
0880
0080
0680
0980
1080
2100
2100
1200
0C00
0000
ENDCHAR

STARTCHAR 2260
ENCODING 8800
SWIDTH 960 0
DWIDTH 12 0
BBX 12 12 0 -2
BITMAP
0000
FFE0
4040
6040
2080
3080
1100
1900
0A00
0E00
0400
0400
ENDCHAR

STARTCHAR 2261
ENCODING 8801
SWIDTH 960 0
DWIDTH 12 0
BBX 12 12 0 -2
BITMAP
0000
0000
0000
7FE0
0000
0000
7FE0
0000
0000
7FE0
0000
0000
ENDCHAR

STARTCHAR 2262
ENCODING 8802
SWIDTH 960 0
DWIDTH 12 0
BBX 12 12 0 -2
BITMAP
0000
1800
1800
0000
7FE0
0000
0000
7FE0
0000
0180
0180
0000
ENDCHAR

STARTCHAR 2263
ENCODING 8803
SWIDTH 960 0
DWIDTH 12 0
BBX 12 12 0 -2
BITMAP
0000
0000
0440
0880
1100
2200
4400
2200
1100
0880
0440
0000
ENDCHAR

STARTCHAR 2264
ENCODING 8804
SWIDTH 960 0
DWIDTH 12 0
BBX 12 12 0 -2
BITMAP
0000
0000
4400
2200
1100
0880
0440
0880
1100
2200
4400
0000
ENDCHAR

STARTCHAR 2265
ENCODING 8805
SWIDTH 960 0
DWIDTH 12 0
BBX 12 12 0 -2
BITMAP
03F0
0200
0200
0400
0400
0400
0800
4800
E800
3000
1000
0000
ENDCHAR

STARTCHAR 2266
ENCODING 8806
SWIDTH 960 0
DWIDTH 12 0
BBX 12 12 0 -2
BITMAP
0000
0000
0000
1980
2240
4220
4420
2440
1980
0000
0000
0000
ENDCHAR

STARTCHAR 2267
ENCODING 8807
SWIDTH 960 0
DWIDTH 12 0
BBX 12 12 0 -2
BITMAP
0000
0000
0000
18C0
2520
4200
4200
2520
18C0
0000
0000
0000
ENDCHAR

STARTCHAR 2268
ENCODING 8808
SWIDTH 960 0
DWIDTH 12 0
BBX 12 12 0 -2
BITMAP
0000
0000
6180
6180
0000
0000
0000
0000
0C00
0C00
0000
0000
ENDCHAR

STARTCHAR 2269
ENCODING 8809
SWIDTH 960 0
DWIDTH 12 0
BBX 12 12 0 -2
BITMAP
0180
0200
0400
0400
0400
0200
0200
0100
0100
0100
0200
0C00
ENDCHAR

STARTCHAR 226a
ENCODING 8810
SWIDTH 960 0
DWIDTH 12 0
BBX 12 12 0 -2
BITMAP
0CC0
1100
2200
2200
2200
1100
1100
0880
0880
0880
1100
6600
ENDCHAR

STARTCHAR 2272
ENCODING 8818
SWIDTH 960 0
DWIDTH 12 0
BBX 12 12 0 -2
BITMAP
0400
0A00
0A00
0400
0A00
0A00
1100
1F00
2080
2080
4040
0000
ENDCHAR

STARTCHAR 2273
ENCODING 8819
SWIDTH 960 0
DWIDTH 12 0
BBX 12 12 0 -2
BITMAP
3100
4900
4A00
4C00
3400
0800
1000
1440
2AA0
4AA0
4440
0000
ENDCHAR

STARTCHAR 2274
ENCODING 8820
SWIDTH 960 0
DWIDTH 12 0
BBX 12 12 0 -2
BITMAP
0100
0900
09C0
0F00
3900
0900
09C0
0F00
3900
0900
0800
0000
ENDCHAR

STARTCHAR 2275
ENCODING 8821
SWIDTH 960 0
DWIDTH 12 0
BBX 12 12 0 -2
BITMAP
1000
1000
1000
1000
1000
1600
1900
1100
1200
1400
1800
0000
ENDCHAR

STARTCHAR 2276
ENCODING 8822
SWIDTH 960 0
DWIDTH 12 0
BBX 12 12 0 -2
BITMAP
0200
0300
0380
02C0
0240
0240
0280
0200
1E00
3E00
1C00
0000
ENDCHAR

STARTCHAR 2277
ENCODING 8823
SWIDTH 960 0
DWIDTH 6 0
BBX 6 12 0 -2
BITMAP
20
70
20
F8
20
70
20
20
20
20
20
20
ENDCHAR

STARTCHAR 2278
ENCODING 8824
SWIDTH 960 0
DWIDTH 6 0
BBX 6 12 0 -2
BITMAP
20
70
20
F8
20
20
20
20
F8
20
70
20
ENDCHAR

STARTCHAR 2279
ENCODING 8825
SWIDTH 960 0
DWIDTH 6 0
BBX 6 12 0 -2
BITMAP
78
E8
E8
E8
68
28
28
28
28
28
28
00
ENDCHAR

STARTCHAR 227e
ENCODING 8830
SWIDTH 960 0
DWIDTH 12 0
BBX 12 12 0 -2
BITMAP
0F00
30C0
4020
4020
8010
8010
8010
8010
4020
4020
30C0
0F00
ENDCHAR

STARTCHAR 2330
ENCODING 9008
SWIDTH 960 0
DWIDTH 8 0
BBX 8 12 0 -2
BITMAP
00
3C
42
42
42
42
42
42
42
42
3C
00
ENDCHAR

STARTCHAR 2331
ENCODING 9009
SWIDTH 960 0
DWIDTH 8 0
BBX 8 12 0 -2
BITMAP
00
08
08
38
08
08
08
08
08
08
08
00
ENDCHAR

STARTCHAR 2332
ENCODING 9010
SWIDTH 960 0
DWIDTH 8 0
BBX 8 12 0 -2
BITMAP
00
3C
42
42
02
04
08
10
20
40
7E
00
ENDCHAR

STARTCHAR 2333
ENCODING 9011
SWIDTH 960 0
DWIDTH 8 0
BBX 8 12 0 -2
BITMAP
00
38
44
02
04
18
04
02
02
44
38
00
ENDCHAR

STARTCHAR 2334
ENCODING 9012
SWIDTH 960 0
DWIDTH 8 0
BBX 8 12 0 -2
BITMAP
00
04
0C
14
14
24
24
44
7E
04
04
00
ENDCHAR

STARTCHAR 2335
ENCODING 9013
SWIDTH 960 0
DWIDTH 8 0
BBX 8 12 0 -2
BITMAP
00
7E
40
40
58
64
42
02
02
44
38
00
ENDCHAR

STARTCHAR 2336
ENCODING 9014
SWIDTH 960 0
DWIDTH 8 0
BBX 8 12 0 -2
BITMAP
00
18
24
40
40
58
64
42
42
24
18
00
ENDCHAR

STARTCHAR 2337
ENCODING 9015
SWIDTH 960 0
DWIDTH 8 0
BBX 8 12 0 -2
BITMAP
00
7E
42
42
04
04
08
08
10
10
10
00
ENDCHAR

STARTCHAR 2338
ENCODING 9016
SWIDTH 960 0
DWIDTH 8 0
BBX 8 12 0 -2
BITMAP
00
18
24
42
24
18
24
42
42
24
18
00
ENDCHAR

STARTCHAR 2339
ENCODING 9017
SWIDTH 960 0
DWIDTH 8 0
BBX 8 12 0 -2
BITMAP
00
18
24
42
42
26
1A
02
42
24
18
00
ENDCHAR

STARTCHAR 2341
ENCODING 9025
SWIDTH 960 0
DWIDTH 9 0
BBX 9 12 0 -2
BITMAP
0000
0800
0800
1400
1400
2200
2200
3E00
4100
4100
4100
0000
ENDCHAR

STARTCHAR 2342
ENCODING 9026
SWIDTH 960 0
DWIDTH 9 0
BBX 9 12 0 -2
BITMAP
0000
7800
4400
4200
4400
7800
4400
4200
4200
4400
7800
0000
ENDCHAR

STARTCHAR 2343
ENCODING 9027
SWIDTH 960 0
DWIDTH 9 0
BBX 9 12 0 -2
BITMAP
0000
0E00
1100
2000
4000
4000
4000
4000
2000
1100
0E00
0000
ENDCHAR

STARTCHAR 2344
ENCODING 9028
SWIDTH 960 0
DWIDTH 9 0
BBX 9 12 0 -2
BITMAP
0000
7800
4400
4200
4200
4100
4100
4200
4200
4400
7800
0000
ENDCHAR

STARTCHAR 2345
ENCODING 9029
SWIDTH 960 0
DWIDTH 9 0
BBX 9 12 0 -2
BITMAP
0000
7E00
4000
4000
4000
7C00
4000
4000
4000
4000
7E00
0000
ENDCHAR

STARTCHAR 2346
ENCODING 9030
SWIDTH 960 0
DWIDTH 8 0
BBX 8 12 0 -2
BITMAP
00
7E
40
40
40
7C
40
40
40
40
40
00
ENDCHAR

STARTCHAR 2347
ENCODING 9031
SWIDTH 960 0
DWIDTH 9 0
BBX 9 12 0 -2
BITMAP
0000
0E00
1100
2000
4000
4000
4700
4100
2100
1300
0D00
0000
ENDCHAR

STARTCHAR 2348
ENCODING 9032
SWIDTH 960 0
DWIDTH 9 0
BBX 9 12 0 -2
BITMAP
0000
4100
4100
4100
4100
7F00
4100
4100
4100
4100
4100
0000
ENDCHAR

STARTCHAR 2349
ENCODING 9033
SWIDTH 960 0
DWIDTH 3 0
BBX 3 12 0 -2
BITMAP
00
E0
40
40
40
40
40
40
40
40
E0
00
ENDCHAR

STARTCHAR 234a
ENCODING 9034
SWIDTH 960 0
DWIDTH 7 0
BBX 7 12 0 -2
BITMAP
00
04
04
04
04
04
04
04
04
04
48
30
ENDCHAR

STARTCHAR 234b
ENCODING 9035
SWIDTH 960 0
DWIDTH 9 0
BBX 9 12 0 -2
BITMAP
0000
4200
4400
4800
5000
6000
5000
4800
4400
4200
4100
0000
ENDCHAR

STARTCHAR 234c
ENCODING 9036
SWIDTH 960 0
DWIDTH 8 0
BBX 8 12 0 -2
BITMAP
00
40
40
40
40
40
40
40
40
40
7E
00
ENDCHAR

STARTCHAR 234d
ENCODING 9037
SWIDTH 960 0
DWIDTH 11 0
BBX 11 12 0 -2
BITMAP
0000
4040
60C0
60C0
5140
5140
4A40
4A40
4440
4440
4040
0000
ENDCHAR

STARTCHAR 234e
ENCODING 9038
SWIDTH 960 0
DWIDTH 9 0
BBX 9 12 0 -2
BITMAP
0000
4100
6100
5100
5100
4900
4900
4500
4500
4300
4100
0000
ENDCHAR

STARTCHAR 234f
ENCODING 9039
SWIDTH 960 0
DWIDTH 10 0
BBX 10 12 0 -2
BITMAP
0000
1E00
2100
4080
4080
4080
4080
4080
4080
2100
1E00
0000
ENDCHAR

STARTCHAR 2350
ENCODING 9040
SWIDTH 960 0
DWIDTH 9 0
BBX 9 12 0 -2
BITMAP
0000
7800
4400
4200
4200
4400
7800
4000
4000
4000
4000
0000
ENDCHAR

STARTCHAR 2351
ENCODING 9041
SWIDTH 960 0
DWIDTH 10 0
BBX 10 12 0 -2
BITMAP
0000
1E00
2100
2100
4080
4080
4080
4480
2300
2100
1E80
0000
ENDCHAR

STARTCHAR 2352
ENCODING 9042
SWIDTH 960 0
DWIDTH 9 0
BBX 9 12 0 -2
BITMAP
0000
7C00
4200
4100
4200
7C00
4400
4200
4200
4100
4100
0000
ENDCHAR

STARTCHAR 2353
ENCODING 9043
SWIDTH 960 0
DWIDTH 9 0
BBX 9 12 0 -2
BITMAP
0000
3C00
4200
4100
2000
1800
0400
0200
4100
4200
3C00
0000
ENDCHAR

STARTCHAR 2354
ENCODING 9044
SWIDTH 960 0
DWIDTH 7 0
BBX 7 12 0 -2
BITMAP
00
FE
10
10
10
10
10
10
10
10
10
00
ENDCHAR

STARTCHAR 2355
ENCODING 9045
SWIDTH 960 0
DWIDTH 9 0
BBX 9 12 0 -2
BITMAP
0000
4100
4100
4100
4100
4100
4100
4100
4100
2200
1C00
0000
ENDCHAR

STARTCHAR 2356
ENCODING 9046
SWIDTH 960 0
DWIDTH 9 0
BBX 9 12 0 -2
BITMAP
0000
4100
4100
4100
2200
2200
2200
1400
1400
0800
0800
0000
ENDCHAR

STARTCHAR 2357
ENCODING 9047
SWIDTH 960 0
DWIDTH 12 0
BBX 12 12 0 -2
BITMAP
0000
4040
4440
4440
4440
2A80
2A80
2A80
1100
1100
1100
0000
ENDCHAR

STARTCHAR 2358
ENCODING 9048
SWIDTH 960 0
DWIDTH 8 0
BBX 8 12 0 -2
BITMAP
00
82
44
44
28
10
10
28
44
44
82
00
ENDCHAR

STARTCHAR 2359
ENCODING 9049
SWIDTH 960 0
DWIDTH 8 0
BBX 8 12 0 -2
BITMAP
00
82
82
44
44
28
10
10
10
10
10
00
ENDCHAR

STARTCHAR 235a
ENCODING 9050
SWIDTH 960 0
DWIDTH 8 0
BBX 8 12 0 -2
BITMAP
00
7E
02
04
08
08
10
20
20
40
7E
00
ENDCHAR

STARTCHAR 2361
ENCODING 9057
SWIDTH 960 0
DWIDTH 7 0
BBX 7 12 0 -2
BITMAP
00
00
00
00
38
44
04
3C
44
4C
34
00
ENDCHAR

STARTCHAR 2362
ENCODING 9058
SWIDTH 960 0
DWIDTH 7 0
BBX 7 12 0 -2
BITMAP
00
40
40
40
58
64
44
44
44
64
58
00
ENDCHAR

STARTCHAR 2363
ENCODING 9059
SWIDTH 960 0
DWIDTH 7 0
BBX 7 12 0 -2
BITMAP
00
00
00
00
18
24
40
40
40
24
18
00
ENDCHAR

STARTCHAR 2364
ENCODING 9060
SWIDTH 960 0
DWIDTH 7 0
BBX 7 12 0 -2
BITMAP
00
04
04
04
34
4C
44
44
44
4C
34
00
ENDCHAR

STARTCHAR 2365
ENCODING 9061
SWIDTH 960 0
DWIDTH 7 0
BBX 7 12 0 -2
BITMAP
00
00
00
00
38
44
44
7C
40
44
38
00
ENDCHAR

STARTCHAR 2366
ENCODING 9062
SWIDTH 960 0
DWIDTH 4 0
BBX 4 12 0 -2
BITMAP
00
30
40
40
E0
40
40
40
40
40
40
00
ENDCHAR

STARTCHAR 2367
ENCODING 9063
SWIDTH 960 0
DWIDTH 7 0
BBX 7 12 0 -2
BITMAP
00
00
00
00
34
48
48
30
20
78
44
38
ENDCHAR

STARTCHAR 2368
ENCODING 9064
SWIDTH 960 0
DWIDTH 7 0
BBX 7 12 0 -2
BITMAP
00
40
40
40
58
64
44
44
44
44
44
00
ENDCHAR

STARTCHAR 2369
ENCODING 9065
SWIDTH 960 0
DWIDTH 3 0
BBX 3 12 0 -2
BITMAP
00
40
40
00
40
40
40
40
40
40
40
00
ENDCHAR

STARTCHAR 236a
ENCODING 9066
SWIDTH 960 0
DWIDTH 3 0
BBX 3 12 0 -2
BITMAP
00
40
40
00
40
40
40
40
40
40
40
80
ENDCHAR

STARTCHAR 236b
ENCODING 9067
SWIDTH 960 0
DWIDTH 7 0
BBX 7 12 0 -2
BITMAP
00
40
40
40
44
48
50
60
50
48
44
00
ENDCHAR

STARTCHAR 236c
ENCODING 9068
SWIDTH 960 0
DWIDTH 3 0
BBX 3 12 0 -2
BITMAP
00
40
40
40
40
40
40
40
40
40
40
00
ENDCHAR

STARTCHAR 236d
ENCODING 9069
SWIDTH 960 0
DWIDTH 11 0
BBX 11 12 0 -2
BITMAP
0000
0000
0000
0000
5980
6640
4440
4440
4440
4440
4440
0000
ENDCHAR

STARTCHAR 236e
ENCODING 9070
SWIDTH 960 0
DWIDTH 7 0
BBX 7 12 0 -2
BITMAP
00
00
00
00
58
64
44
44
44
44
44
00
ENDCHAR

STARTCHAR 236f
ENCODING 9071
SWIDTH 960 0
DWIDTH 7 0
BBX 7 12 0 -2
BITMAP
00
00
00
00
38
44
44
44
44
44
38
00
ENDCHAR

STARTCHAR 2370
ENCODING 9072
SWIDTH 960 0
DWIDTH 7 0
BBX 7 12 0 -2
BITMAP
00
00
00
00
78
44
44
44
44
78
40
40
ENDCHAR

STARTCHAR 2371
ENCODING 9073
SWIDTH 960 0
DWIDTH 7 0
BBX 7 12 0 -2
BITMAP
00
00
00
00
3C
44
44
44
44
3C
04
04
ENDCHAR

STARTCHAR 2372
ENCODING 9074
SWIDTH 960 0
DWIDTH 5 0
BBX 5 12 0 -2
BITMAP
00
00
00
00
B0
C0
80
80
80
80
80
00
ENDCHAR

STARTCHAR 2373
ENCODING 9075
SWIDTH 960 0
DWIDTH 7 0
BBX 7 12 0 -2
BITMAP
00
00
00
00
38
44
40
38
04
44
38
00
ENDCHAR

STARTCHAR 2374
ENCODING 9076
SWIDTH 960 0
DWIDTH 4 0
BBX 4 12 0 -2
BITMAP
00
40
40
40
E0
40
40
40
40
40
30
00
ENDCHAR

STARTCHAR 2375
ENCODING 9077
SWIDTH 960 0
DWIDTH 7 0
BBX 7 12 0 -2
BITMAP
00
00
00
00
44
44
44
44
44
4C
34
00
ENDCHAR

STARTCHAR 2376
ENCODING 9078
SWIDTH 960 0
DWIDTH 6 0
BBX 6 12 0 -2
BITMAP
00
00
00
00
88
88
88
50
50
20
20
00
ENDCHAR

STARTCHAR 2377
ENCODING 9079
SWIDTH 960 0
DWIDTH 9 0
BBX 9 12 0 -2
BITMAP
0000
0000
0000
0000
8080
8880
8880
5500
5500
2200
2200
0000
ENDCHAR

STARTCHAR 2378
ENCODING 9080
SWIDTH 960 0
DWIDTH 6 0
BBX 6 12 0 -2
BITMAP
00
00
00
00
88
88
50
20
50
88
88
00
ENDCHAR

STARTCHAR 2379
ENCODING 9081
SWIDTH 960 0
DWIDTH 6 0
BBX 6 12 0 -2
BITMAP
00
00
00
00
88
88
48
50
20
20
40
80
ENDCHAR

STARTCHAR 237a
ENCODING 9082
SWIDTH 960 0
DWIDTH 6 0
BBX 6 12 0 -2
BITMAP
00
00
00
00
F8
10
20
20
40
80
F8
00
ENDCHAR

STARTCHAR 2421
ENCODING 9249
SWIDTH 960 0
DWIDTH 9 0
BBX 9 12 0 -2
BITMAP
0000
0000
0000
0000
1000
3C00
1400
3E00
3900
5100
2200
0000
ENDCHAR

STARTCHAR 2422
ENCODING 9250
SWIDTH 960 0
DWIDTH 11 0
BBX 11 12 0 -2
BITMAP
0800
0800
3F00
0800
0F00
1280
3240
5440
4C40
4880
3300
0000
ENDCHAR

STARTCHAR 2423
ENCODING 9251
SWIDTH 960 0
DWIDTH 10 0
BBX 10 12 0 -2
BITMAP
0000
0000
0000
0000
0000
1000
1200
2100
2900
1000
0000
0000
ENDCHAR

STARTCHAR 2424
ENCODING 9252
SWIDTH 960 0
DWIDTH 11 0
BBX 11 12 0 -2
BITMAP
0000
0000
2000
2100
4080
4080
4040
4840
2840
1000
0000
0000
ENDCHAR

STARTCHAR 2425
ENCODING 9253
SWIDTH 960 0
DWIDTH 7 0
BBX 7 12 0 -2
BITMAP
00
00
00
00
20
18
38
44
04
08
30
00
ENDCHAR

STARTCHAR 2426
ENCODING 9254
SWIDTH 960 0
DWIDTH 8 0
BBX 8 12 0 -2
BITMAP
20
18
00
38
44
02
02
02
04
18
20
00
ENDCHAR

STARTCHAR 2427
ENCODING 9255
SWIDTH 960 0
DWIDTH 9 0
BBX 9 12 0 -2
BITMAP
0000
0000
0000
0000
1000
0800
3E00
0400
1800
2400
4700
0000
ENDCHAR

STARTCHAR 2428
ENCODING 9256
SWIDTH 960 0
DWIDTH 11 0
BBX 11 12 0 -2
BITMAP
0800
0600
0000
1F00
0100
0200
0400
0C00
1200
2200
41C0
0000
ENDCHAR

STARTCHAR 2429
ENCODING 9257
SWIDTH 960 0
DWIDTH 10 0
BBX 10 12 0 -2
BITMAP
0000
0000
0000
0000
1000
7A00
1100
1C00
3200
5200
2400
0000
ENDCHAR

STARTCHAR 242a
ENCODING 9258
SWIDTH 960 0
DWIDTH 11 0
BBX 11 12 0 -2
BITMAP
0800
0800
0E80
7840
0840
0E00
1900
2880
4880
4900
3200
0000
ENDCHAR

STARTCHAR 242b
ENCODING 9259
SWIDTH 960 0
DWIDTH 12 0
BBX 12 12 0 -2
BITMAP
0000
1000
1080
7C40
1240
1220
1220
2200
2200
5200
0C00
0000
ENDCHAR

STARTCHAR 242c
ENCODING 9260
SWIDTH 960 0
DWIDTH 12 0
BBX 12 12 0 -2
BITMAP
0000
10A0
10A0
7C40
1240
1220
1220
2200
2200
5200
0C00
0000
ENDCHAR

STARTCHAR 242d
ENCODING 9261
SWIDTH 960 0
DWIDTH 10 0
BBX 10 12 0 -2
BITMAP
0800
0E00
7800
0700
7C00
0200
1D00
2300
4000
2000
1E00
0000
ENDCHAR

STARTCHAR 242e
ENCODING 9262
SWIDTH 960 0
DWIDTH 11 0
BBX 11 12 0 -2
BITMAP
0A80
0E80
7800
0700
7C00
0200
1D00
2300
4000
2000
1E00
0000
ENDCHAR

STARTCHAR 242f
ENCODING 9263
SWIDTH 960 0
DWIDTH 7 0
BBX 7 12 0 -2
BITMAP
00
08
08
10
20
40
40
20
10
08
08
00
ENDCHAR

STARTCHAR 2430
ENCODING 9264
SWIDTH 960 0
DWIDTH 10 0
BBX 10 12 0 -2
BITMAP
0000
0800
0D00
1500
2000
4000
4000
2000
1000
0800
0800
0000
ENDCHAR

STARTCHAR 2431
ENCODING 9265
SWIDTH 960 0
DWIDTH 11 0
BBX 11 12 0 -2
BITMAP
0100
2100
21C0
2700
4100
4100
4100
5100
2100
0200
0400
0000
ENDCHAR

STARTCHAR 2432
ENCODING 9266
SWIDTH 960 0
DWIDTH 12 0
BBX 12 12 0 -2
BITMAP
02A0
22A0
21C0
2700
4100
4100
4100
5100
2100
0200
0400
0000
ENDCHAR

STARTCHAR 2433
ENCODING 9267
SWIDTH 960 0
DWIDTH 10 0
BBX 10 12 0 -2
BITMAP
0000
2000
1F00
0000
0000
0000
0000
4000
4080
3F00
0000
0000
ENDCHAR

STARTCHAR 2434
ENCODING 9268
SWIDTH 960 0
DWIDTH 11 0
BBX 11 12 0 -2
BITMAP
0000
2140
1F40
0000
0000
0000
0000
4000
4080
3F00
0000
0000
ENDCHAR

STARTCHAR 2435
ENCODING 9269
SWIDTH 960 0
DWIDTH 9 0
BBX 9 12 0 -2
BITMAP
1000
1000
0B00
FC00
0800
0400
7A00
8600
8000
6000
1C00
0000
ENDCHAR

STARTCHAR 2436
ENCODING 9270
SWIDTH 960 0
DWIDTH 11 0
BBX 11 12 0 -2
BITMAP
0940
0940
0580
7E00
0400
0200
3D00
4300
4000
3000
0E00
0000
ENDCHAR

STARTCHAR 2437
ENCODING 9271
SWIDTH 960 0
DWIDTH 9 0
BBX 9 12 0 -2
BITMAP
0000
4000
4000
4000
4000
4000
4000
4000
4100
2600
1800
0000
ENDCHAR

STARTCHAR 2438
ENCODING 9272
SWIDTH 960 0
DWIDTH 9 0
BBX 9 12 0 -2
BITMAP
0000
4000
4500
4500
4000
4000
4000
4000
4100
2600
1800
0000
ENDCHAR

STARTCHAR 2439
ENCODING 9273
SWIDTH 960 0
DWIDTH 12 0
BBX 12 12 0 -2
BITMAP
0200
0200
7FC0
0200
0E00
1200
1200
0E00
0200
0400
1800
0000
ENDCHAR

STARTCHAR 243a
ENCODING 9274
SWIDTH 960 0
DWIDTH 12 0
BBX 12 12 0 -2
BITMAP
02A0
02A0
7FC0
0200
0E00
1200
1200
0E00
0200
0400
1800
0000
ENDCHAR

STARTCHAR 243b
ENCODING 9275
SWIDTH 960 0
DWIDTH 12 0
BBX 12 12 0 -2
BITMAP
0000
0100
1100
11E0
7F00
1100
1100
1200
1000
0800
0780
0000
ENDCHAR

STARTCHAR 243c
ENCODING 9276
SWIDTH 960 0
DWIDTH 12 0
BBX 12 12 0 -2
BITMAP
0000
02A0
22A0
2380
FE00
2200
2200
2400
2000
1000
0F00
0000
ENDCHAR

STARTCHAR 243d
ENCODING 9277
SWIDTH 960 0
DWIDTH 11 0
BBX 11 12 0 -2
BITMAP
0000
1F00
0200
0400
09C0
7E00
0400
0800
0800
0400
0300
0000
ENDCHAR

STARTCHAR 243e
ENCODING 9278
SWIDTH 960 0
DWIDTH 12 0
BBX 12 12 0 -2
BITMAP
0000
1FA0
02A0
0400
09C0
7E00
0400
0800
0800
0400
0300
0000
ENDCHAR

STARTCHAR 243f
ENCODING 9279
SWIDTH 960 0
DWIDTH 11 0
BBX 11 12 0 -2
BITMAP
0800
0800
7E00
1000
10C0
1300
2000
2000
2400
4400
43C0
0000
ENDCHAR

STARTCHAR 2440
ENCODING 9280
SWIDTH 960 0
DWIDTH 11 0
BBX 11 12 0 -2
BITMAP
0800
0940
7F40
1000
10C0
1300
2000
2000
2400
4400
43C0
0000
ENDCHAR

STARTCHAR 2441
ENCODING 9281
SWIDTH 960 0
DWIDTH 10 0
BBX 10 12 0 -2
BITMAP
1000
1000
7F00
1000
1000
2600
3900
2080
0080
0300
1C00
0000
ENDCHAR

STARTCHAR 2442
ENCODING 9282
SWIDTH 960 0
DWIDTH 11 0
BBX 11 12 0 -2
BITMAP
1000
1140
7F40
1000
1000
2600
3900
2080
0080
0300
1C00
0000
ENDCHAR

STARTCHAR 2443
ENCODING 9283
SWIDTH 960 0
DWIDTH 10 0
BBX 10 12 0 -2
BITMAP
0000
0000
0000
0000
0000
0000
0E00
3100
0100
0200
0C00
0000
ENDCHAR

STARTCHAR 2444
ENCODING 9284
SWIDTH 960 0
DWIDTH 11 0
BBX 11 12 0 -2
BITMAP
0000
0000
0F00
7080
0040
0040
0080
0300
0C00
0000
0000
0000
ENDCHAR

STARTCHAR 2445
ENCODING 9285
SWIDTH 960 0
DWIDTH 11 0
BBX 11 12 0 -2
BITMAP
0000
0140
3D40
C200
0100
0100
0200
0C00
3000
0000
0000
0000
ENDCHAR

STARTCHAR 2446
ENCODING 9286
SWIDTH 960 0
DWIDTH 11 0
BBX 11 12 0 -2
BITMAP
0000
01C0
7E00
0200
0400
0800
0800
0800
0400
0380
0000
0000
ENDCHAR

STARTCHAR 2447
ENCODING 9287
SWIDTH 960 0
DWIDTH 11 0
BBX 11 12 0 -2
BITMAP
0000
0380
7C00
0540
0940
1000
1000
1000
0800
0700
0000
0000
ENDCHAR

STARTCHAR 2448
ENCODING 9288
SWIDTH 960 0
DWIDTH 9 0
BBX 9 12 0 -2
BITMAP
0000
2000
2000
2000
1300
1C00
3000
4000
8000
4000
3F00
0000
ENDCHAR

STARTCHAR 2449
ENCODING 9289
SWIDTH 960 0
DWIDTH 11 0
BBX 11 12 0 -2
BITMAP
0000
1140
1140
1000
0980
0E00
1800
2000
4000
2000
1F80
0000
ENDCHAR

STARTCHAR 244a
ENCODING 9290
SWIDTH 960 0
DWIDTH 11 0
BBX 11 12 0 -2
BITMAP
1000
1000
7C80
2140
2100
4100
4100
8F00
1180
1140
0E00
0000
ENDCHAR

STARTCHAR 244b
ENCODING 9291
SWIDTH 960 0
DWIDTH 11 0
BBX 11 12 0 -2
BITMAP
0000
2000
2180
2600
4000
4000
4000
4400
4400
53C0
2000
0000
ENDCHAR

STARTCHAR 244c
ENCODING 9292
SWIDTH 960 0
DWIDTH 12 0
BBX 12 12 0 -2
BITMAP
0000
0200
2200
2F80
3240
2220
3420
5420
49A0
4A40
31C0
0000
ENDCHAR

STARTCHAR 244d
ENCODING 9293
SWIDTH 960 0
DWIDTH 12 0
BBX 12 12 0 -2
BITMAP
1000
1000
1000
7B80
1440
1840
1040
3040
31C0
5260
1180
0000
ENDCHAR

STARTCHAR 244e
ENCODING 9294
SWIDTH 960 0
DWIDTH 12 0
BBX 12 12 0 -2
BITMAP
0000
0F00
1480
2440
4420
4420
4820
4840
3080
0300
0000
0000
ENDCHAR

STARTCHAR 244f
ENCODING 9295
SWIDTH 960 0
DWIDTH 12 0
BBX 12 12 0 -2
BITMAP
0000
2080
20E0
2F80
4080
4080
4080
4780
48C0
58A0
2700
0000
ENDCHAR

STARTCHAR 2450
ENCODING 9296
SWIDTH 960 0
DWIDTH 12 0
BBX 12 12 0 -2
BITMAP
00A0
41A0
4100
5F80
8100
8100
8100
8F00
9180
B140
4E00
0000
ENDCHAR

STARTCHAR 2451
ENCODING 9297
SWIDTH 960 0
DWIDTH 12 0
BBX 12 12 0 -2
BITMAP
00C0
4120
41C0
5F00
8100
8100
8100
8F00
9180
B140
4E00
0000
ENDCHAR

STARTCHAR 2452
ENCODING 9298
SWIDTH 960 0
DWIDTH 12 0
BBX 12 12 0 -2
BITMAP
0000
0400
3800
1100
2100
2180
4140
4100
4100
2200
1C00
0000
ENDCHAR

STARTCHAR 2453
ENCODING 9299
SWIDTH 960 0
DWIDTH 12 0
BBX 12 12 0 -2
BITMAP
0000
08A0
70A0
2200
4200
4300
8280
8200
8200
4400
3800
0000
ENDCHAR

STARTCHAR 2454
ENCODING 9300
SWIDTH 960 0
DWIDTH 12 0
BBX 12 12 0 -2
BITMAP
00C0
1120
E0C0
2200
4200
4300
8280
8200
8200
4400
3800
0000
ENDCHAR

STARTCHAR 2455
ENCODING 9301
SWIDTH 960 0
DWIDTH 12 0
BBX 12 12 0 -2
BITMAP
0000
0800
0700
0000
0400
0480
1240
1220
2120
5100
0E00
0000
ENDCHAR

STARTCHAR 2456
ENCODING 9302
SWIDTH 960 0
DWIDTH 12 0
BBX 12 12 0 -2
BITMAP
0000
08A0
07A0
0000
0400
0480
1240
1220
2120
5100
0E00
0000
ENDCHAR

STARTCHAR 2457
ENCODING 9303
SWIDTH 960 0
DWIDTH 12 0
BBX 12 12 0 -2
BITMAP
0000
10C0
0F20
00C0
0800
0900
2480
2440
4240
A200
1C00
0000
ENDCHAR

STARTCHAR 2458
ENCODING 9304
SWIDTH 960 0
DWIDTH 12 0
BBX 12 12 0 -2
BITMAP
0000
0000
0000
0C00
1200
6100
0080
0040
0020
0000
0000
0000
ENDCHAR

STARTCHAR 2459
ENCODING 9305
SWIDTH 960 0
DWIDTH 12 0
BBX 12 12 0 -2
BITMAP
0000
00A0
00A0
0C00
1200
6100
0080
0040
0020
0000
0000
0000
ENDCHAR

STARTCHAR 245a
ENCODING 9306
SWIDTH 960 0
DWIDTH 12 0
BBX 12 12 0 -2
BITMAP
0000
00C0
0120
0CC0
1200
2100
C080
0040
0020
0000
0000
0000
ENDCHAR

STARTCHAR 245b
ENCODING 9307
SWIDTH 960 0
DWIDTH 12 0
BBX 12 12 0 -2
BITMAP
0000
2FE0
2080
2080
47C0
4080
4080
4780
48C0
58A0
2700
0000
ENDCHAR

STARTCHAR 245c
ENCODING 9308
SWIDTH 960 0
DWIDTH 12 0
BBX 12 12 0 -2
BITMAP
00A0
5FA0
4100
4100
8F80
8100
8100
8F00
9180
B140
4E00
0000
ENDCHAR

STARTCHAR 245d
ENCODING 9309
SWIDTH 960 0
DWIDTH 12 0
BBX 12 12 0 -2
BITMAP
00C0
5F20
41C0
4100
8F80
8100
8100
8F00
9180
B140
4E00
0000
ENDCHAR

STARTCHAR 245e
ENCODING 9310
SWIDTH 960 0
DWIDTH 11 0
BBX 11 12 0 -2
BITMAP
0400
0400
7F80
0400
0700
7C00
0400
3C00
4700
4480
3800
0000
ENDCHAR

STARTCHAR 245f
ENCODING 9311
SWIDTH 960 0
DWIDTH 12 0
BBX 12 12 0 -2
BITMAP
0000
3C00
0400
0480
0480
1F80
28C0
48A0
5080
2100
0200
0000
ENDCHAR

STARTCHAR 2460
ENCODING 9312
SWIDTH 960 0
DWIDTH 12 0
BBX 12 12 0 -2
BITMAP
0800
0800
7CC0
0820
3800
4800
4800
5040
3040
1040
0F80
0000
ENDCHAR

STARTCHAR 2461
ENCODING 9313
SWIDTH 960 0
DWIDTH 12 0
BBX 12 12 0 -2
BITMAP
0000
0200
2700
2A80
3240
2420
5420
4820
4840
3080
0300
0000
ENDCHAR

STARTCHAR 2462
ENCODING 9314
SWIDTH 960 0
DWIDTH 10 0
BBX 10 12 0 -2
BITMAP
0800
0800
3E00
0800
1100
7E00
1000
1080
1080
0900
0600
0000
ENDCHAR

STARTCHAR 2463
ENCODING 9315
SWIDTH 960 0
DWIDTH 10 0
BBX 10 12 0 -2
BITMAP
0000
0000
0000
0000
1400
1700
7A80
1080
0B00
0800
0800
0000
ENDCHAR

STARTCHAR 2464
ENCODING 9316
SWIDTH 960 0
DWIDTH 12 0
BBX 12 12 0 -2
BITMAP
0400
2400
2380
1640
3A20
D040
0980
0800
0800
0400
0400
0000
ENDCHAR

STARTCHAR 2465
ENCODING 9317
SWIDTH 960 0
DWIDTH 10 0
BBX 10 12 0 -2
BITMAP
0000
0000
0000
0000
0800
4E00
5900
6900
4E00
0800
1000
0000
ENDCHAR

STARTCHAR 2466
ENCODING 9318
SWIDTH 960 0
DWIDTH 12 0
BBX 12 12 0 -2
BITMAP
0200
0200
4780
4A40
5220
6220
6A40
4780
4200
0400
0800
0000
ENDCHAR

STARTCHAR 2467
ENCODING 9319
SWIDTH 960 0
DWIDTH 9 0
BBX 9 12 0 -2
BITMAP
0000
0000
0000
0000
0800
0E00
0800
0800
3C00
4B00
3000
0000
ENDCHAR

STARTCHAR 2468
ENCODING 9320
SWIDTH 960 0
DWIDTH 10 0
BBX 10 12 0 -2
BITMAP
0400
0400
0400
0780
0400
0400
0400
3C00
4700
4480
3800
0000
ENDCHAR

STARTCHAR 2469
ENCODING 9321
SWIDTH 960 0
DWIDTH 10 0
BBX 10 12 0 -2
BITMAP
1000
0C00
0000
4000
4000
5E00
6100
4100
0100
0600
3800
0000
ENDCHAR

STARTCHAR 246a
ENCODING 9322
SWIDTH 960 0
DWIDTH 9 0
BBX 9 12 0 -2
BITMAP
0400
2200
2200
4200
4200
4200
5200
2200
0200
0400
1800
0000
ENDCHAR

STARTCHAR 246b
ENCODING 9323
SWIDTH 960 0
DWIDTH 10 0
BBX 10 12 0 -2
BITMAP
0000
3E00
0400
0800
1E00
3100
4080
0080
1900
2600
1C00
0000
ENDCHAR

STARTCHAR 246c
ENCODING 9324
SWIDTH 960 0
DWIDTH 12 0
BBX 12 12 0 -2
BITMAP
1000
1000
1300
1480
7880
1080
1080
3080
3080
5060
1000
0000
ENDCHAR

STARTCHAR 246d
ENCODING 9325
SWIDTH 960 0
DWIDTH 10 0
BBX 10 12 0 -2
BITMAP
0000
3E00
0400
0800
1E00
3100
4080
0080
0100
0200
1C00
0000
ENDCHAR

STARTCHAR 246e
ENCODING 9326
SWIDTH 960 0
DWIDTH 10 0
BBX 10 12 0 -2
BITMAP
0000
0000
0000
0000
1000
3800
1700
1880
3080
5100
1200
0000
ENDCHAR

STARTCHAR 246f
ENCODING 9327
SWIDTH 960 0
DWIDTH 12 0
BBX 12 12 0 -2
BITMAP
1000
1000
1000
1B80
7440
1820
1020
3020
5040
1180
1000
0000
ENDCHAR

STARTCHAR 2470
ENCODING 9328
SWIDTH 960 0
DWIDTH 12 0
BBX 12 12 0 -2
BITMAP
0000
1E00
0200
0200
0F80
1440
2420
4820
4B20
34C0
0380
0000
ENDCHAR

STARTCHAR 2471
ENCODING 9329
SWIDTH 960 0
DWIDTH 12 0
BBX 12 12 0 -2
BITMAP
0000
1F80
0200
0F80
1040
2640
0980
0600
0000
2CC0
4320
0000
ENDCHAR

STARTCHAR 2472
ENCODING 9330
SWIDTH 960 0
DWIDTH 10 0
BBX 10 12 0 -2
BITMAP
0800
0800
7E00
1000
2180
7200
8C00
1400
2400
2000
1F00
0000
ENDCHAR

STARTCHAR 2473
ENCODING 9331
SWIDTH 960 0
DWIDTH 12 0
BBX 12 12 0 -2
BITMAP
0000
0400
0400
0800
0800
1000
1C00
2200
2220
4240
4180
0000
ENDCHAR

STARTCHAR 2521
ENCODING 9505
SWIDTH 960 0
DWIDTH 9 0
BBX 9 12 0 -2
BITMAP
0000
0000
0000
0000
0000
7E00
1200
1C00
1000
1000
2000
0000
ENDCHAR

STARTCHAR 2522
ENCODING 9506
SWIDTH 960 0
DWIDTH 11 0
BBX 11 12 0 -2
BITMAP
0000
0000
7FC0
0040
0480
0500
0600
0400
0800
0800
1000
0000
ENDCHAR

STARTCHAR 2523
ENCODING 9507
SWIDTH 960 0
DWIDTH 8 0
BBX 8 12 0 -2
BITMAP
00
00
00
00
04
04
08
18
68
08
08
00
ENDCHAR

STARTCHAR 2524
ENCODING 9508
SWIDTH 960 0
DWIDTH 10 0
BBX 10 12 0 -2
BITMAP
0000
0100
0100
0200
0400
1C00
6400
0400
0400
0400
0400
0000
ENDCHAR

STARTCHAR 2525
ENCODING 9509
SWIDTH 960 0
DWIDTH 9 0
BBX 9 12 0 -2
BITMAP
0000
0000
0000
0000
1000
1000
7E00
4200
4200
0400
0800
0000
ENDCHAR

STARTCHAR 2526
ENCODING 9510
SWIDTH 960 0
DWIDTH 11 0
BBX 10 12 0 -2
BITMAP
0400
0400
0400
7F80
4080
4080
4080
0100
0100
0200
0400
0000
ENDCHAR

STARTCHAR 2527
ENCODING 9511
SWIDTH 960 0
DWIDTH 9 0
BBX 9 12 0 -2
BITMAP
0000
0000
0000
0000
0000
0000
3E00
0800
0800
7F00
0000
0000
ENDCHAR

STARTCHAR 2528
ENCODING 9512
SWIDTH 960 0
DWIDTH 11 0
BBX 11 12 0 -2
BITMAP
0000
0000
0000
3F80
0400
0400
0400
0400
0400
7FC0
0000
0000
ENDCHAR

STARTCHAR 2529
ENCODING 9513
SWIDTH 960 0
DWIDTH 10 0
BBX 10 12 0 -2
BITMAP
0000
0000
0000
0000
0400
0400
7F00
0C00
1400
6400
0400
0000
ENDCHAR

STARTCHAR 252a
ENCODING 9514
SWIDTH 960 0
DWIDTH 11 0
BBX 11 12 0 -2
BITMAP
0200
0200
0200
7FC0
0600
0600
0A00
1200
6200
0200
0200
0000
ENDCHAR

STARTCHAR 252b
ENCODING 9515
SWIDTH 960 0
DWIDTH 10 0
BBX 10 12 0 -2
BITMAP
0800
0800
0800
7F80
0880
0880
0880
1080
1080
2080
4300
0000
ENDCHAR

STARTCHAR 252c
ENCODING 9516
SWIDTH 960 0
DWIDTH 11 0
BBX 11 12 0 -2
BITMAP
0940
0940
0800
7F80
0880
0880
0880
1080
1080
2080
4300
0000
ENDCHAR

STARTCHAR 252d
ENCODING 9517
SWIDTH 960 0
DWIDTH 12 0
BBX 12 12 0 -2
BITMAP
0400
0400
0780
7C00
0400
07C0
7E00
0200
0200
0200
0200
0000
ENDCHAR

STARTCHAR 252e
ENCODING 9518
SWIDTH 960 0
DWIDTH 12 0
BBX 12 12 0 -2
BITMAP
04A0
04A0
0780
7C00
0400
07C0
7E00
0200
0200
0200
0200
0000
ENDCHAR

STARTCHAR 252f
ENCODING 9519
SWIDTH 960 0
DWIDTH 10 0
BBX 10 12 0 -2
BITMAP
0000
0800
0F80
0880
1080
2100
4100
0200
0400
0800
1000
0000
ENDCHAR

STARTCHAR 2530
ENCODING 9520
SWIDTH 960 0
DWIDTH 11 0
BBX 11 12 0 -2
BITMAP
0140
1140
1F00
1100
2100
4200
8200
0400
0800
1000
2000
0000
ENDCHAR

STARTCHAR 2531
ENCODING 9521
SWIDTH 960 0
DWIDTH 11 0
BBX 11 12 0 -2
BITMAP
0000
1000
1000
1FC0
1100
2100
4100
0200
0200
0400
0800
0000
ENDCHAR

STARTCHAR 2532
ENCODING 9522
SWIDTH 960 0
DWIDTH 12 0
BBX 12 12 0 -2
BITMAP
0000
20A0
20A0
3F80
2200
4200
8200
0400
0400
0800
1000
0000
ENDCHAR

STARTCHAR 2533
ENCODING 9523
SWIDTH 960 0
DWIDTH 10 0
BBX 10 12 0 -2
BITMAP
0000
0000
0000
7F80
0080
0080
0080
0080
0080
7F80
0080
0000
ENDCHAR

STARTCHAR 2534
ENCODING 9524
SWIDTH 960 0
DWIDTH 11 0
BBX 11 12 0 -2
BITMAP
0000
0140
0140
FF00
0100
0100
0100
0100
0100
FF00
0100
0000
ENDCHAR

STARTCHAR 2535
ENCODING 9525
SWIDTH 960 0
DWIDTH 12 0
BBX 12 12 0 -2
BITMAP
0000
0880
0880
0880
7FE0
0880
0880
0880
0100
0100
0200
0000
ENDCHAR

STARTCHAR 2536
ENCODING 9526
SWIDTH 960 0
DWIDTH 12 0
BBX 12 12 0 -2
BITMAP
0000
22A0
22A0
2200
FF80
2200
2200
2200
0400
0400
0800
0000
ENDCHAR

STARTCHAR 2537
ENCODING 9527
SWIDTH 960 0
DWIDTH 11 0
BBX 11 12 0 -2
BITMAP
0000
3000
0800
0040
6040
1080
0080
0100
0200
0C00
3000
0000
ENDCHAR

STARTCHAR 2538
ENCODING 9528
SWIDTH 960 0
DWIDTH 11 0
BBX 11 12 0 -2
BITMAP
0000
6140
1140
0000
C080
2080
0100
0200
0400
1800
6000
0000
ENDCHAR

STARTCHAR 2539
ENCODING 9529
SWIDTH 960 0
DWIDTH 11 0
BBX 11 12 0 -2
BITMAP
0000
0000
3F00
0100
0100
0200
0200
0500
0880
1040
6040
0000
ENDCHAR

STARTCHAR 253a
ENCODING 9530
SWIDTH 960 0
DWIDTH 12 0
BBX 12 12 0 -2
BITMAP
0000
00A0
3FA0
0080
0080
0100
0100
0280
0440
1820
6020
0000
ENDCHAR

STARTCHAR 253b
ENCODING 9531
SWIDTH 960 0
DWIDTH 11 0
BBX 11 12 0 -2
BITMAP
0000
1000
1000
11C0
1E40
7080
1100
1200
1000
1000
0F80
0000
ENDCHAR

STARTCHAR 253c
ENCODING 9532
SWIDTH 960 0
DWIDTH 12 0
BBX 12 12 0 -2
BITMAP
0000
10A0
10A0
11C0
1E40
7080
1100
1200
1000
1000
0F80
0000
ENDCHAR

STARTCHAR 253d
ENCODING 9533
SWIDTH 960 0
DWIDTH 10 0
BBX 10 12 0 -2
BITMAP
0000
0000
4080
2080
2080
0100
0100
0200
0400
0800
1000
0000
ENDCHAR

STARTCHAR 253e
ENCODING 9534
SWIDTH 960 0
DWIDTH 11 0
BBX 11 12 0 -2
BITMAP
0000
0140
4140
2080
2080
0100
0100
0200
0400
0800
1000
0000
ENDCHAR

STARTCHAR 253f
ENCODING 9535
SWIDTH 960 0
DWIDTH 9 0
BBX 9 12 0 -2
BITMAP
0000
1000
1F00
2100
4100
9A00
0600
0400
0800
1000
6000
0000
ENDCHAR

STARTCHAR 2540
ENCODING 9536
SWIDTH 960 0
DWIDTH 11 0
BBX 11 12 0 -2
BITMAP
0000
1140
1F40
2100
4100
9A00
0600
0400
0800
1000
6000
0000
ENDCHAR

STARTCHAR 2541
ENCODING 9537
SWIDTH 960 0
DWIDTH 11 0
BBX 11 12 0 -2
BITMAP
0000
0300
3C00
0400
0400
7FC0
0400
0400
0800
0800
1000
0000
ENDCHAR

STARTCHAR 2542
ENCODING 9538
SWIDTH 960 0
DWIDTH 12 0
BBX 12 12 0 -2
BITMAP
0000
03A0
3CA0
0400
0400
7FC0
0400
0400
0800
0800
1000
0000
ENDCHAR

STARTCHAR 2543
ENCODING 9539
SWIDTH 960 0
DWIDTH 9 0
BBX 9 12 0 -2
BITMAP
0000
0000
0000
0000
0000
5200
5200
5200
0200
0400
0800
0000
ENDCHAR

STARTCHAR 2544
ENCODING 9540
SWIDTH 960 0
DWIDTH 10 0
BBX 10 12 0 -2
BITMAP
0000
0000
4880
4880
4880
4880
0100
0100
0200
0400
1800
0000
ENDCHAR

STARTCHAR 2545
ENCODING 9541
SWIDTH 960 0
DWIDTH 11 0
BBX 11 12 0 -2
BITMAP
0140
0140
4800
4880
4880
4880
0100
0100
0200
0400
1800
0000
ENDCHAR

STARTCHAR 2546
ENCODING 9542
SWIDTH 960 0
DWIDTH 11 0
BBX 11 12 0 -2
BITMAP
0000
0000
3F00
0000
0000
FFC0
0400
0400
0800
1000
2000
0000
ENDCHAR

STARTCHAR 2547
ENCODING 9543
SWIDTH 960 0
DWIDTH 12 0
BBX 12 12 0 -2
BITMAP
0000
00A0
1FA0
0000
0000
7FE0
0200
0200
0400
0800
1000
0000
ENDCHAR

STARTCHAR 2548
ENCODING 9544
SWIDTH 960 0
DWIDTH 8 0
BBX 8 12 0 -2
BITMAP
40
40
40
40
70
4C
42
40
40
40
40
00
ENDCHAR

STARTCHAR 2549
ENCODING 9545
SWIDTH 960 0
DWIDTH 8 0
BBX 8 12 0 -2
BITMAP
40
4A
4A
40
70
4C
42
40
40
40
40
00
ENDCHAR

STARTCHAR 254a
ENCODING 9546
SWIDTH 960 0
DWIDTH 11 0
BBX 11 12 0 -2
BITMAP
0400
0400
0400
7FC0
0400
0400
0400
0800
0800
1000
2000
0000
ENDCHAR

STARTCHAR 254b
ENCODING 9547
SWIDTH 960 0
DWIDTH 11 0
BBX 11 12 0 -2
BITMAP
0000
0000
0000
1F00
0000
0000
0000
0000
7FC0
0000
0000
0000
ENDCHAR

STARTCHAR 254c
ENCODING 9548
SWIDTH 960 0
DWIDTH 10 0
BBX 10 12 0 -2
BITMAP
0000
0000
7F00
0100
0200
3200
0C00
0A00
1100
2080
4000
0000
ENDCHAR

STARTCHAR 254d
ENCODING 9549
SWIDTH 960 0
DWIDTH 11 0
BBX 11 12 0 -2
BITMAP
0800
0800
7F00
0100
0200
0C00
3B00
C8C0
0800
0800
0800
0000
ENDCHAR

STARTCHAR 254e
ENCODING 9550
SWIDTH 960 0
DWIDTH 8 0
BBX 8 12 0 -2
BITMAP
00
00
02
02
02
04
04
08
10
20
C0
00
ENDCHAR

STARTCHAR 254f
ENCODING 9551
SWIDTH 960 0
DWIDTH 12 0
BBX 12 12 0 -2
BITMAP
0000
0000
0000
0900
0880
0880
1040
1040
1020
2020
4020
0000
ENDCHAR

STARTCHAR 2550
ENCODING 9552
SWIDTH 960 0
DWIDTH 12 0
BBX 12 12 0 -2
BITMAP
0000
00A0
00A0
1200
1100
1100
2080
2080
2040
4040
8040
0000
ENDCHAR

STARTCHAR 2551
ENCODING 9553
SWIDTH 960 0
DWIDTH 12 0
BBX 12 12 0 -2
BITMAP
0000
00C0
0120
12C0
1100
1100
2080
2080
2040
4040
8040
0000
ENDCHAR

STARTCHAR 2552
ENCODING 9554
SWIDTH 960 0
DWIDTH 9 0
BBX 9 12 0 -2
BITMAP
0000
0000
4000
4000
4000
4300
7C00
4000
4000
4000
3F00
0000
ENDCHAR

STARTCHAR 2553
ENCODING 9555
SWIDTH 960 0
DWIDTH 10 0
BBX 10 12 0 -2
BITMAP
0000
0000
4280
4280
4000
4700
7800
4000
4000
4000
3F00
0000
ENDCHAR

STARTCHAR 2554
ENCODING 9556
SWIDTH 960 0
DWIDTH 10 0
BBX 10 12 0 -2
BITMAP
0000
0000
8300
8480
8300
8E00
F000
8000
8000
8000
7F00
0000
ENDCHAR

STARTCHAR 2555
ENCODING 9557
SWIDTH 960 0
DWIDTH 10 0
BBX 10 12 0 -2
BITMAP
0000
0000
7F80
0080
0080
0100
0100
0200
0400
0800
1000
0000
ENDCHAR

STARTCHAR 2556
ENCODING 9558
SWIDTH 960 0
DWIDTH 11 0
BBX 11 12 0 -2
BITMAP
0140
0140
7F80
0080
0080
0100
0100
0200
0400
0800
1000
0000
ENDCHAR

STARTCHAR 2557
ENCODING 9559
SWIDTH 960 0
DWIDTH 11 0
BBX 11 12 0 -2
BITMAP
0180
0240
7F80
0100
0100
0200
0200
0400
0800
1000
2000
0000
ENDCHAR

STARTCHAR 2558
ENCODING 9560
SWIDTH 960 0
DWIDTH 11 0
BBX 11 12 0 -2
BITMAP
0000
0000
0000
0800
1400
2200
4100
0080
0040
0000
0000
0000
ENDCHAR

STARTCHAR 2559
ENCODING 9561
SWIDTH 960 0
DWIDTH 11 0
BBX 11 12 0 -2
BITMAP
0000
0140
0140
0800
1400
2200
4100
0080
0040
0000
0000
0000
ENDCHAR

STARTCHAR 255a
ENCODING 9562
SWIDTH 960 0
DWIDTH 11 0
BBX 11 12 0 -2
BITMAP
0000
0180
0240
0980
1400
2200
4100
0080
0040
0000
0000
0000
ENDCHAR

STARTCHAR 255b
ENCODING 9563
SWIDTH 960 0
DWIDTH 11 0
BBX 11 12 0 -2
BITMAP
0400
0400
0400
7FC0
0400
2480
2480
2440
4440
4400
0400
0000
ENDCHAR

STARTCHAR 255c
ENCODING 9564
SWIDTH 960 0
DWIDTH 11 0
BBX 11 12 0 -2
BITMAP
0800
0940
0940
FF80
0800
4900
4900
4880
8880
8800
0800
0000
ENDCHAR

STARTCHAR 255d
ENCODING 9565
SWIDTH 960 0
DWIDTH 11 0
BBX 11 12 0 -2
BITMAP
0800
08C0
0920
FEC0
0800
4900
4900
4880
8880
8800
0800
0000
ENDCHAR

STARTCHAR 255e
ENCODING 9566
SWIDTH 960 0
DWIDTH 11 0
BBX 11 12 0 -2
BITMAP
0000
0000
7FC0
0040
0080
0100
3200
0C00
0200
0100
0000
0000
ENDCHAR

STARTCHAR 255f
ENCODING 9567
SWIDTH 960 0
DWIDTH 8 0
BBX 8 12 0 -2
BITMAP
00
30
0C
02
00
30
08
00
60
18
06
00
ENDCHAR

STARTCHAR 2560
ENCODING 9568
SWIDTH 960 0
DWIDTH 12 0
BBX 11 12 0 -2
BITMAP
0000
0400
0400
0400
0800
0900
1080
1080
2780
7840
0040
0000
ENDCHAR

STARTCHAR 2561
ENCODING 9569
SWIDTH 960 0
DWIDTH 9 0
BBX 9 12 0 -2
BITMAP
0000
0200
0200
0200
6200
1C00
0400
0A00
1100
2000
4000
0000
ENDCHAR

STARTCHAR 2562
ENCODING 9570
SWIDTH 960 0
DWIDTH 11 0
BBX 11 12 0 -2
BITMAP
0000
0000
3F00
0800
0800
7FC0
0800
0800
0800
0780
0000
0000
ENDCHAR

STARTCHAR 2563
ENCODING 9571
SWIDTH 960 0
DWIDTH 10 0
BBX 10 12 0 -2
BITMAP
0000
0000
0000
0000
1000
1000
1780
7900
0A00
0800
0800
0000
ENDCHAR

STARTCHAR 2564
ENCODING 9572
SWIDTH 960 0
DWIDTH 12 0
BBX 12 12 0 -2
BITMAP
0000
1000
1000
11E0
1E40
E880
0900
0800
0400
0400
0400
0000
ENDCHAR

STARTCHAR 2565
ENCODING 9573
SWIDTH 960 0
DWIDTH 10 0
BBX 10 12 0 -2
BITMAP
0000
0000
0000
0000
0000
0000
3C00
0400
0400
7F00
0000
0000
ENDCHAR

STARTCHAR 2566
ENCODING 9574
SWIDTH 960 0
DWIDTH 12 0
BBX 12 12 0 -2
BITMAP
0000
0000
0000
3F00
0100
0100
0100
0100
0100
7FE0
0000
0000
ENDCHAR

STARTCHAR 2567
ENCODING 9575
SWIDTH 960 0
DWIDTH 8 0
BBX 8 12 0 -2
BITMAP
00
00
00
00
7E
02
3E
02
02
7E
02
00
ENDCHAR

STARTCHAR 2568
ENCODING 9576
SWIDTH 960 0
DWIDTH 9 0
BBX 9 12 0 -2
BITMAP
0000
0000
7F00
0100
0100
3F00
0100
0100
0100
7F00
0100
0000
ENDCHAR

STARTCHAR 2569
ENCODING 9577
SWIDTH 960 0
DWIDTH 10 0
BBX 10 12 0 -2
BITMAP
0000
3F00
0000
0000
7F80
0080
0100
0100
0200
0C00
3000
0000
ENDCHAR

STARTCHAR 256a
ENCODING 9578
SWIDTH 960 0
DWIDTH 9 0
BBX 9 12 0 -2
BITMAP
0000
4200
4200
4200
4200
4200
4200
0400
0400
0800
1000
0000
ENDCHAR

STARTCHAR 256b
ENCODING 9579
SWIDTH 960 0
DWIDTH 12 0
BBX 12 12 0 -2
BITMAP
0000
0200
1200
1200
1200
1220
1220
1240
2280
2300
4000
0000
ENDCHAR

STARTCHAR 256c
ENCODING 9580
SWIDTH 960 0
DWIDTH 10 0
BBX 10 12 0 -2
BITMAP
0000
4000
4000
4000
4000
4000
4100
4200
4400
5800
6000
0000
ENDCHAR

STARTCHAR 256d
ENCODING 9581
SWIDTH 960 0
DWIDTH 10 0
BBX 10 12 0 -2
BITMAP
0000
0000
7F80
4080
4080
4080
4080
4080
7F80
4080
0000
0000
ENDCHAR

STARTCHAR 256e
ENCODING 9582
SWIDTH 960 0
DWIDTH 9 0
BBX 9 12 0 -2
BITMAP
0000
0000
0000
0000
0000
7E00
4200
4200
0400
0800
1000
0000
ENDCHAR

STARTCHAR 256f
ENCODING 9583
SWIDTH 960 0
DWIDTH 11 0
BBX 11 12 0 -2
BITMAP
0000
0000
7F80
4080
4080
4080
0100
0100
0200
0400
1800
0000
ENDCHAR

STARTCHAR 2570
ENCODING 9584
SWIDTH 960 0
DWIDTH 12 0
BBX 12 12 0 -2
BITMAP
0100
0100
0100
7FC0
1100
1100
1100
7FE0
0100
0100
0100
0000
ENDCHAR

STARTCHAR 2571
ENCODING 9585
SWIDTH 960 0
DWIDTH 12 0
BBX 12 12 0 -2
BITMAP
0000
0000
3F80
0080
0500
0600
0400
0400
0400
7FC0
0000
0000
ENDCHAR

STARTCHAR 2572
ENCODING 9586
SWIDTH 960 0
DWIDTH 10 0
BBX 10 12 0 -2
BITMAP
0000
0000
7F80
0080
0080
3F80
0100
0100
0200
0C00
3000
0000
ENDCHAR

STARTCHAR 2573
ENCODING 9587
SWIDTH 960 0
DWIDTH 10 0
BBX 10 12 0 -2
BITMAP
0000
0000
6000
1080
0080
0100
0100
0200
0400
1800
6000
0000
ENDCHAR

STARTCHAR 2574
ENCODING 9588
SWIDTH 960 0
DWIDTH 12 0
BBX 12 12 0 -2
BITMAP
04A0
04A0
0400
7FC0
4040
4040
0080
0080
0100
0600
1800
0000
ENDCHAR

STARTCHAR 2575
ENCODING 9589
SWIDTH 960 0
DWIDTH 9 0
BBX 9 12 0 -2
BITMAP
0000
0000
0000
0000
1000
1000
7E00
1200
1200
2200
4C00
0000
ENDCHAR

STARTCHAR 2576
ENCODING 9590
SWIDTH 960 0
DWIDTH 9 0
BBX 9 12 0 -2
BITMAP
0000
0000
0000
0000
1000
1000
1F00
6400
0400
0800
1000
0000
ENDCHAR

STARTCHAR 2621
ENCODING 9761
SWIDTH 960 0
DWIDTH 12 0
BBX 12 12 0 -2
BITMAP
0000
0400
0400
0A00
0A00
1100
1100
1F00
2080
2080
4040
0000
ENDCHAR

STARTCHAR 2622
ENCODING 9762
SWIDTH 960 0
DWIDTH 12 0
BBX 12 12 0 -2
BITMAP
0000
3E00
2100
2080
2100
3E00
2100
2080
2080
2100
3E00
0000
ENDCHAR

STARTCHAR 2623
ENCODING 9763
SWIDTH 960 0
DWIDTH 12 0
BBX 12 12 0 -2
BITMAP
0000
3F80
2000
2000
2000
2000
2000
2000
2000
2000
2000
0000
ENDCHAR

STARTCHAR 2624
ENCODING 9764
SWIDTH 960 0
DWIDTH 12 0
BBX 12 12 0 -2
BITMAP
0000
0400
0400
0400
0A00
0A00
1100
1100
2080
2080
7FC0
0000
ENDCHAR

STARTCHAR 2625
ENCODING 9765
SWIDTH 960 0
DWIDTH 12 0
BBX 12 12 0 -2
BITMAP
0000
3F80
2000
2000
2000
3F00
2000
2000
2000
2000
3F80
0000
ENDCHAR

STARTCHAR 2626
ENCODING 9766
SWIDTH 960 0
DWIDTH 12 0
BBX 12 12 0 -2
BITMAP
0000
3FC0
0040
0080
0100
0200
0200
0400
0800
1000
3FC0
0000
ENDCHAR

STARTCHAR 2627
ENCODING 9767
SWIDTH 960 0
DWIDTH 12 0
BBX 12 12 0 -2
BITMAP
0000
2080
2080
2080
2080
3F80
2080
2080
2080
2080
2080
0000
ENDCHAR

STARTCHAR 2628
ENCODING 9768
SWIDTH 960 0
DWIDTH 12 0
BBX 12 12 0 -2
BITMAP
0000
0E00
1100
2080
5140
5F40
5140
4040
2080
1100
0E00
0000
ENDCHAR

STARTCHAR 2629
ENCODING 9769
SWIDTH 960 0
DWIDTH 12 0
BBX 12 12 0 -2
BITMAP
0000
0E00
0400
0400
0400
0400
0400
0400
0400
0400
0E00
0000
ENDCHAR

STARTCHAR 262a
ENCODING 9770
SWIDTH 960 0
DWIDTH 12 0
BBX 12 12 0 -2
BITMAP
0000
2080
2100
2200
2400
3800
2400
2200
2100
2080
2040
0000
ENDCHAR

STARTCHAR 262b
ENCODING 9771
SWIDTH 960 0
DWIDTH 12 0
BBX 12 12 0 -2
BITMAP
0000
0400
0400
0A00
0A00
1100
1100
1100
2080
2080
2080
0000
ENDCHAR

STARTCHAR 262c
ENCODING 9772
SWIDTH 960 0
DWIDTH 12 0
BBX 12 12 0 -2
BITMAP
0000
4040
4040
60C0
60C0
5140
5140
4A40
4A40
4440
4440
0000
ENDCHAR

STARTCHAR 262d
ENCODING 9773
SWIDTH 960 0
DWIDTH 12 0
BBX 12 12 0 -2
BITMAP
0000
2080
3080
2880
2880
2480
2480
2280
2280
2180
2080
0000
ENDCHAR

STARTCHAR 262e
ENCODING 9774
SWIDTH 960 0
DWIDTH 12 0
BBX 12 12 0 -2
BITMAP
0000
3FC0
0000
0000
0000
1F80
0000
0000
0000
0000
3FC0
0000
ENDCHAR

STARTCHAR 262f
ENCODING 9775
SWIDTH 960 0
DWIDTH 12 0
BBX 12 12 0 -2
BITMAP
0000
0E00
1100
2080
4040
4040
4040
4040
2080
1100
0E00
0000
ENDCHAR

STARTCHAR 2630
ENCODING 9776
SWIDTH 960 0
DWIDTH 12 0
BBX 12 12 0 -2
BITMAP
0000
3F80
2080
2080
2080
2080
2080
2080
2080
2080
2080
0000
ENDCHAR

STARTCHAR 2631
ENCODING 9777
SWIDTH 960 0
DWIDTH 12 0
BBX 12 12 0 -2
BITMAP
0000
3E00
2100
2080
2080
2100
3E00
2000
2000
2000
2000
0000
ENDCHAR

STARTCHAR 2632
ENCODING 9778
SWIDTH 960 0
DWIDTH 12 0
BBX 12 12 0 -2
BITMAP
0000
3FC0
1000
0800
0400
0200
0200
0400
0800
1000
3FC0
0000
ENDCHAR

STARTCHAR 2633
ENCODING 9779
SWIDTH 960 0
DWIDTH 12 0
BBX 12 12 0 -2
BITMAP
0000
7FC0
0400
0400
0400
0400
0400
0400
0400
0400
0400
0000
ENDCHAR

STARTCHAR 2634
ENCODING 9780
SWIDTH 960 0
DWIDTH 12 0
BBX 12 12 0 -2
BITMAP
0000
4040
2080
1100
0A00
0400
0400
0400
0400
0400
0400
0000
ENDCHAR

STARTCHAR 2635
ENCODING 9781
SWIDTH 960 0
DWIDTH 12 0
BBX 12 12 0 -2
BITMAP
0000
0400
0400
1F00
2480
2480
2480
1F00
0400
0400
0400
0000
ENDCHAR

STARTCHAR 2636
ENCODING 9782
SWIDTH 960 0
DWIDTH 12 0
BBX 12 12 0 -2
BITMAP
0000
4040
2080
1100
0A00
0400
0400
0A00
1100
2080
4040
0000
ENDCHAR

STARTCHAR 2637
ENCODING 9783
SWIDTH 960 0
DWIDTH 12 0
BBX 12 12 0 -2
BITMAP
0000
0400
4440
2480
2480
2480
1500
0E00
0400
0400
0400
0000
ENDCHAR

STARTCHAR 2638
ENCODING 9784
SWIDTH 960 0
DWIDTH 12 0
BBX 12 12 0 -2
BITMAP
0000
0E00
1100
2080
2080
2080
2080
1100
0A00
0A00
7BC0
0000
ENDCHAR

STARTCHAR 2641
ENCODING 9793
SWIDTH 960 0
DWIDTH 12 0
BBX 12 12 0 -2
BITMAP
0000
0000
0000
0000
0C80
1280
2300
2200
2400
2600
1980
0000
ENDCHAR

STARTCHAR 2642
ENCODING 9794
SWIDTH 960 0
DWIDTH 12 0
BBX 12 12 0 -2
BITMAP
0000
0300
0480
0480
0900
0A00
1100
1100
3200
2C00
4000
4000
ENDCHAR

STARTCHAR 2643
ENCODING 9795
SWIDTH 960 0
DWIDTH 12 0
BBX 12 12 0 -2
BITMAP
0000
0000
0000
18C0
2500
0200
0400
0400
0800
0800
1000
0000
ENDCHAR

STARTCHAR 2644
ENCODING 9796
SWIDTH 960 0
DWIDTH 12 0
BBX 12 12 0 -2
BITMAP
0000
0600
0980
0400
0200
0600
0900
1100
2100
2200
1C00
0000
ENDCHAR

STARTCHAR 2645
ENCODING 9797
SWIDTH 960 0
DWIDTH 12 0
BBX 12 12 0 -2
BITMAP
0000
0000
0000
0E00
1100
1000
0C00
1000
2100
2200
1C00
0000
ENDCHAR

STARTCHAR 2646
ENCODING 9798
SWIDTH 960 0
DWIDTH 12 0
BBX 12 12 0 -2
BITMAP
0000
0800
0980
0700
0400
0800
1000
1000
1000
0C00
2200
1C00
ENDCHAR

STARTCHAR 2647
ENCODING 9799
SWIDTH 960 0
DWIDTH 12 0
BBX 12 12 0 -2
BITMAP
0000
0000
0000
0000
1300
2C80
0880
1100
1100
2200
0200
0200
ENDCHAR

STARTCHAR 2648
ENCODING 9800
SWIDTH 960 0
DWIDTH 12 0
BBX 12 12 0 -2
BITMAP
0000
0300
0480
0880
1080
1F80
2100
2100
2200
2400
1800
0000
ENDCHAR

STARTCHAR 2649
ENCODING 9801
SWIDTH 960 0
DWIDTH 12 0
BBX 12 12 0 -2
BITMAP
0000
0000
0000
0200
0400
0800
0800
1000
1080
1300
0C00
0000
ENDCHAR

STARTCHAR 264a
ENCODING 9802
SWIDTH 960 0
DWIDTH 12 0
BBX 12 12 0 -2
BITMAP
0000
0000
0000
1080
0900
0A00
1C00
1400
2480
2480
4300
0000
ENDCHAR

STARTCHAR 264b
ENCODING 9803
SWIDTH 960 0
DWIDTH 12 0
BBX 12 12 0 -2
BITMAP
0000
0000
0C00
0200
0200
0200
0600
0A00
1100
2100
20C0
0000
ENDCHAR

STARTCHAR 264c
ENCODING 9804
SWIDTH 960 0
DWIDTH 12 0
BBX 12 12 0 -2
BITMAP
0000
0000
0000
0880
0880
1080
1100
2100
3300
2CC0
4000
4000
ENDCHAR

STARTCHAR 264d
ENCODING 9805
SWIDTH 960 0
DWIDTH 12 0
BBX 12 12 0 -2
BITMAP
0000
0000
0000
0000
1080
0880
0900
1100
1200
1400
3800
0000
ENDCHAR

STARTCHAR 264e
ENCODING 9806
SWIDTH 960 0
DWIDTH 12 0
BBX 12 12 0 -2
BITMAP
0000
0400
0380
0400
0800
0600
0800
1000
0E00
0100
1100
0E00
ENDCHAR

STARTCHAR 264f
ENCODING 9807
SWIDTH 960 0
DWIDTH 12 0
BBX 12 12 0 -2
BITMAP
0000
0000
0000
0000
0E00
1100
2100
2100
2100
2200
1C00
0000
ENDCHAR

STARTCHAR 2650
ENCODING 9808
SWIDTH 960 0
DWIDTH 12 0
BBX 12 12 0 -2
BITMAP
0000
0000
0000
0040
1F80
2900
0A00
1200
1400
2480
4300
0000
ENDCHAR

STARTCHAR 2651
ENCODING 9809
SWIDTH 960 0
DWIDTH 12 0
BBX 12 12 0 -2
BITMAP
0000
0000
0000
0700
0880
1080
1080
1900
1600
2000
2000
2000
ENDCHAR

STARTCHAR 2652
ENCODING 9810
SWIDTH 960 0
DWIDTH 12 0
BBX 12 12 0 -2
BITMAP
0000
0000
0000
0040
0780
1A00
2100
2100
2100
1200
0C00
0000
ENDCHAR

STARTCHAR 2653
ENCODING 9811
SWIDTH 960 0
DWIDTH 12 0
BBX 12 12 0 -2
BITMAP
0000
0000
0080
1F00
2400
0400
0800
0800
1000
1200
0C00
0000
ENDCHAR

STARTCHAR 2654
ENCODING 9812
SWIDTH 960 0
DWIDTH 12 0
BBX 12 12 0 -2
BITMAP
0000
0000
0000
0000
2100
5080
1080
1100
2100
2600
1800
0000
ENDCHAR

STARTCHAR 2655
ENCODING 9813
SWIDTH 960 0
DWIDTH 12 0
BBX 12 12 0 -2
BITMAP
0000
0100
0100
0200
0F00
1280
2240
2440
2480
1F00
0800
0800
ENDCHAR

STARTCHAR 2656
ENCODING 9814
SWIDTH 960 0
DWIDTH 12 0
BBX 12 12 0 -2
BITMAP
0000
0000
0080
1080
2900
2600
0400
0C00
1400
2280
2100
0000
ENDCHAR

STARTCHAR 2657
ENCODING 9815
SWIDTH 960 0
DWIDTH 12 0
BBX 12 12 0 -2
BITMAP
0000
0100
0100
2280
1240
1240
2440
2480
1F00
0800
0800
0800
ENDCHAR

STARTCHAR 2658
ENCODING 9816
SWIDTH 960 0
DWIDTH 12 0
BBX 12 12 0 -2
BITMAP
0000
0000
0000
0000
1080
2040
2040
4440
4440
4C80
3300
0000
ENDCHAR

STARTCHAR 2721
ENCODING 10017
SWIDTH 960 0
DWIDTH 12 0
BBX 12 12 0 -2
BITMAP
0000
0400
0400
0A00
0A00
1100
1100
1F00
2080
2080
4040
0000
ENDCHAR

STARTCHAR 2722
ENCODING 10018
SWIDTH 960 0
DWIDTH 12 0
BBX 12 12 0 -2
BITMAP
0000
3F80
2000
2000
2000
3E00
2100
2080
2080
2100
3E00
0000
ENDCHAR

STARTCHAR 2723
ENCODING 10019
SWIDTH 960 0
DWIDTH 12 0
BBX 12 12 0 -2
BITMAP
0000
3E00
2100
2080
2100
3E00
2100
2080
2080
2100
3E00
0000
ENDCHAR

STARTCHAR 2724
ENCODING 10020
SWIDTH 960 0
DWIDTH 12 0
BBX 12 12 0 -2
BITMAP
0000
3F80
2000
2000
2000
2000
2000
2000
2000
2000
2000
0000
ENDCHAR

STARTCHAR 2725
ENCODING 10021
SWIDTH 960 0
DWIDTH 12 0
BBX 12 12 0 -2
BITMAP
0000
0000
0F00
1100
1100
1100
1100
1100
1100
2100
7F80
4080
ENDCHAR

STARTCHAR 2726
ENCODING 10022
SWIDTH 960 0
DWIDTH 12 0
BBX 12 12 0 -2
BITMAP
0000
3F80
2000
2000
2000
3E00
2000
2000
2000
2000
3F80
0000
ENDCHAR

STARTCHAR 2727
ENCODING 10023
SWIDTH 960 0
DWIDTH 12 0
BBX 12 12 0 -2
BITMAP
3180
0000
3F80
2000
2000
2000
3E00
2000
2000
2000
3F80
0000
ENDCHAR

STARTCHAR 2728
ENCODING 10024
SWIDTH 960 0
DWIDTH 12 0
BBX 12 12 0 -2
BITMAP
0000
4440
2480
2480
1500
0E00
1500
2500
2480
2480
4440
0000
ENDCHAR

STARTCHAR 2729
ENCODING 10025
SWIDTH 960 0
DWIDTH 12 0
BBX 12 12 0 -2
BITMAP
0000
0E00
1100
2100
0100
0600
0100
0080
2080
1100
0E00
0000
ENDCHAR

STARTCHAR 272a
ENCODING 10026
SWIDTH 960 0
DWIDTH 12 0
BBX 12 12 0 -2
BITMAP
0000
2080
2180
2280
2280
2480
2480
2880
2880
3080
2080
0000
ENDCHAR

STARTCHAR 272b
ENCODING 10027
SWIDTH 960 0
DWIDTH 12 0
BBX 12 12 0 -2
BITMAP
1100
0E00
2080
2180
2280
2280
2480
2880
2880
3080
2080
0000
ENDCHAR

STARTCHAR 272c
ENCODING 10028
SWIDTH 960 0
DWIDTH 12 0
BBX 12 12 0 -2
BITMAP
0000
2100
2280
2400
2800
3000
2800
2400
2200
2100
2080
0000
ENDCHAR

STARTCHAR 272d
ENCODING 10029
SWIDTH 960 0
DWIDTH 12 0
BBX 12 12 0 -2
BITMAP
0000
07C0
0440
0440
0440
0440
0440
0440
0440
2840
1040
0000
ENDCHAR

STARTCHAR 272e
ENCODING 10030
SWIDTH 960 0
DWIDTH 12 0
BBX 12 12 0 -2
BITMAP
0000
2080
2080
3180
3180
2A80
2A80
4440
4440
4440
4040
0000
ENDCHAR

STARTCHAR 272f
ENCODING 10031
SWIDTH 960 0
DWIDTH 12 0
BBX 12 12 0 -2
BITMAP
0000
2080
2080
2080
2080
3F80
2080
2080
2080
2080
2080
0000
ENDCHAR

STARTCHAR 2730
ENCODING 10032
SWIDTH 960 0
DWIDTH 12 0
BBX 12 12 0 -2
BITMAP
0000
0E00
1100
2080
4040
4040
4040
4040
2080
1100
0E00
0000
ENDCHAR

STARTCHAR 2731
ENCODING 10033
SWIDTH 960 0
DWIDTH 12 0
BBX 12 12 0 -2
BITMAP
0000
3F80
2080
2080
2080
2080
2080
2080
2080
2080
2080
0000
ENDCHAR

STARTCHAR 2732
ENCODING 10034
SWIDTH 960 0
DWIDTH 12 0
BBX 12 12 0 -2
BITMAP
0000
3E00
2100
2080
2080
2100
3E00
2000
2000
2000
2000
0000
ENDCHAR

STARTCHAR 2733
ENCODING 10035
SWIDTH 960 0
DWIDTH 12 0
BBX 12 12 0 -2
BITMAP
0000
0700
0880
1040
2000
2000
2000
2000
1040
0880
0700
0000
ENDCHAR

STARTCHAR 2734
ENCODING 10036
SWIDTH 960 0
DWIDTH 12 0
BBX 12 12 0 -2
BITMAP
0000
7FC0
0400
0400
0400
0400
0400
0400
0400
0400
0400
0000
ENDCHAR

STARTCHAR 2735
ENCODING 10037
SWIDTH 960 0
DWIDTH 12 0
BBX 12 12 0 -2
BITMAP
0000
4040
2080
1100
1100
0A00
0A00
0400
0400
2400
1800
0000
ENDCHAR

STARTCHAR 2736
ENCODING 10038
SWIDTH 960 0
DWIDTH 12 0
BBX 12 12 0 -2
BITMAP
0000
0400
0400
1F00
2480
4440
4440
2480
1F00
0400
0400
0000
ENDCHAR

STARTCHAR 2737
ENCODING 10039
SWIDTH 960 0
DWIDTH 12 0
BBX 12 12 0 -2
BITMAP
0000
4040
2080
1100
0A00
0400
0400
0A00
1100
2080
4040
0000
ENDCHAR

STARTCHAR 2738
ENCODING 10040
SWIDTH 960 0
DWIDTH 12 0
BBX 12 12 0 -2
BITMAP
0000
2100
2100
2100
2100
2100
2100
2100
2100
2100
3FC0
0040
ENDCHAR

STARTCHAR 2739
ENCODING 10041
SWIDTH 960 0
DWIDTH 12 0
BBX 12 12 0 -2
BITMAP
0000
2100
2100
2100
2100
2100
1300
0D00
0100
0100
0100
0000
ENDCHAR

STARTCHAR 273a
ENCODING 10042
SWIDTH 960 0
DWIDTH 12 0
BBX 12 12 0 -2
BITMAP
0000
4440
4440
4440
4440
4440
4440
4440
4440
4440
7FC0
0000
ENDCHAR

STARTCHAR 273b
ENCODING 10043
SWIDTH 960 0
DWIDTH 12 0
BBX 12 12 0 -2
BITMAP
0000
4440
4440
4440
4440
4440
4440
4440
4440
4440
7FE0
0020
ENDCHAR

STARTCHAR 273c
ENCODING 10044
SWIDTH 960 0
DWIDTH 12 0
BBX 12 12 0 -2
BITMAP
0000
3800
0800
0800
0800
0F00
0880
0840
0840
0880
0F00
0000
ENDCHAR

STARTCHAR 273d
ENCODING 10045
SWIDTH 960 0
DWIDTH 12 0
BBX 12 12 0 -2
BITMAP
0000
2080
2080
2080
2080
3880
2480
2280
2280
2480
3880
0000
ENDCHAR

STARTCHAR 273e
ENCODING 10046
SWIDTH 960 0
DWIDTH 12 0
BBX 12 12 0 -2
BITMAP
0000
1000
1000
1000
1E00
1100
1080
1080
1080
1100
1E00
0000
ENDCHAR

STARTCHAR 273f
ENCODING 10047
SWIDTH 960 0
DWIDTH 12 0
BBX 12 12 0 -2
BITMAP
0000
0E00
1100
2080
0080
0C80
1380
0080
2080
1100
0E00
0000
ENDCHAR

STARTCHAR 2740
ENCODING 10048
SWIDTH 960 0
DWIDTH 12 0
BBX 12 12 0 -2
BITMAP
0000
4300
4480
4840
4840
7840
4840
4840
4840
4480
4300
0000
ENDCHAR

STARTCHAR 2741
ENCODING 10049
SWIDTH 960 0
DWIDTH 12 0
BBX 12 12 0 -2
BITMAP
0000
0F80
1080
2080
1080
0F80
0280
0480
0880
1080
2080
0000
ENDCHAR

STARTCHAR 2751
ENCODING 10065
SWIDTH 960 0
DWIDTH 12 0
BBX 12 12 0 -2
BITMAP
0000
0000
0000
0000
0E00
0100
0700
0900
1100
1200
0D80
0000
ENDCHAR

STARTCHAR 2752
ENCODING 10066
SWIDTH 960 0
DWIDTH 12 0
BBX 12 12 0 -2
BITMAP
0000
0300
0C00
1000
2000
2C00
3200
2100
2100
1200
0C00
0000
ENDCHAR

STARTCHAR 2753
ENCODING 10067
SWIDTH 960 0
DWIDTH 12 0
BBX 12 12 0 -2
BITMAP
0000
0000
0000
0000
1E00
1100
1100
1E00
1100
1100
1E00
0000
ENDCHAR

STARTCHAR 2754
ENCODING 10068
SWIDTH 960 0
DWIDTH 12 0
BBX 12 12 0 -2
BITMAP
0000
0000
0000
0000
1F00
1000
1000
1000
1000
1000
1000
0000
ENDCHAR

STARTCHAR 2755
ENCODING 10069
SWIDTH 960 0
DWIDTH 12 0
BBX 12 12 0 -2
BITMAP
0000
0000
0000
0000
0F00
0900
0900
0900
0900
1100
3F80
2080
ENDCHAR

STARTCHAR 2756
ENCODING 10070
SWIDTH 960 0
DWIDTH 12 0
BBX 12 12 0 -2
BITMAP
0000
0000
0000
0000
0C00
1200
2100
3F00
2000
1100
0E00
0000
ENDCHAR

STARTCHAR 2757
ENCODING 10071
SWIDTH 960 0
DWIDTH 12 0
BBX 12 12 0 -2
BITMAP
0000
0000
1200
0000
0C00
1200
2100
3F00
2000
1100
0E00
0000
ENDCHAR

STARTCHAR 2758
ENCODING 10072
SWIDTH 960 0
DWIDTH 12 0
BBX 12 12 0 -2
BITMAP
0000
0000
0000
0000
64C0
1500
1500
0E00
1500
2480
4440
0000
ENDCHAR

STARTCHAR 2759
ENCODING 10073
SWIDTH 960 0
DWIDTH 12 0
BBX 12 12 0 -2
BITMAP
0000
0000
0000
0000
0700
1880
0080
0700
0080
1080
0F00
0000
ENDCHAR

STARTCHAR 275a
ENCODING 10074
SWIDTH 960 0
DWIDTH 12 0
BBX 12 12 0 -2
BITMAP
0000
0000
0000
0000
2080
2180
2280
2480
2880
3080
2080
0000
ENDCHAR

STARTCHAR 275b
ENCODING 10075
SWIDTH 960 0
DWIDTH 12 0
BBX 12 12 0 -2
BITMAP
0000
1100
0E00
0000
2080
2180
2280
2480
2880
3080
2080
0000
ENDCHAR

STARTCHAR 275c
ENCODING 10076
SWIDTH 960 0
DWIDTH 12 0
BBX 12 12 0 -2
BITMAP
0000
0000
0000
0000
2100
2280
2400
3800
2400
2200
2180
0000
ENDCHAR

STARTCHAR 275d
ENCODING 10077
SWIDTH 960 0
DWIDTH 12 0
BBX 12 12 0 -2
BITMAP
0000
0000
0000
0000
0780
0480
0480
0480
0480
2880
1080
0000
ENDCHAR

STARTCHAR 275e
ENCODING 10078
SWIDTH 960 0
DWIDTH 12 0
BBX 12 12 0 -2
BITMAP
0000
0000
0000
0000
2080
3180
3180
2A80
2A80
2480
2480
0000
ENDCHAR

STARTCHAR 275f
ENCODING 10079
SWIDTH 960 0
DWIDTH 12 0
BBX 12 12 0 -2
BITMAP
0000
0000
0000
0000
1080
1080
1080
1F80
1080
1080
1080
0000
ENDCHAR

STARTCHAR 2760
ENCODING 10080
SWIDTH 960 0
DWIDTH 12 0
BBX 12 12 0 -2
BITMAP
0000
0000
0000
0000
0E00
1100
2080
2080
2080
1100
0E00
0000
ENDCHAR

STARTCHAR 2761
ENCODING 10081
SWIDTH 960 0
DWIDTH 12 0
BBX 12 12 0 -2
BITMAP
0000
0000
0000
0000
1F80
1080
1080
1080
1080
1080
1080
0000
ENDCHAR

STARTCHAR 2762
ENCODING 10082
SWIDTH 960 0
DWIDTH 12 0
BBX 12 12 0 -2
BITMAP
0000
0000
0000
0000
1600
1900
1080
1080
1900
1600
1000
1000
ENDCHAR

STARTCHAR 2763
ENCODING 10083
SWIDTH 960 0
DWIDTH 12 0
BBX 12 12 0 -2
BITMAP
0000
0000
0000
0000
0700
0880
1000
1000
1000
0880
0700
0000
ENDCHAR

STARTCHAR 2764
ENCODING 10084
SWIDTH 960 0
DWIDTH 12 0
BBX 12 12 0 -2
BITMAP
0000
0000
0000
0000
3F80
0400
0400
0400
0400
0400
0400
0000
ENDCHAR

STARTCHAR 2765
ENCODING 10085
SWIDTH 960 0
DWIDTH 12 0
BBX 12 12 0 -2
BITMAP
0000
0000
0000
2040
1080
0880
0500
0300
0200
0400
2400
1800
ENDCHAR

STARTCHAR 2766
ENCODING 10086
SWIDTH 960 0
DWIDTH 12 0
BBX 12 12 0 -2
BITMAP
0000
0400
0400
1500
2E80
4440
4440
4440
2E80
1500
0400
0400
ENDCHAR

STARTCHAR 2767
ENCODING 10087
SWIDTH 960 0
DWIDTH 12 0
BBX 12 12 0 -2
BITMAP
0000
0000
0000
0000
2080
1100
0A00
0400
0A00
1100
2080
0000
ENDCHAR

STARTCHAR 2768
ENCODING 10088
SWIDTH 960 0
DWIDTH 12 0
BBX 12 12 0 -2
BITMAP
0000
0000
0000
0000
1100
1100
1100
1100
1100
1100
1F80
0080
ENDCHAR

STARTCHAR 2769
ENCODING 10089
SWIDTH 960 0
DWIDTH 12 0
BBX 12 12 0 -2
BITMAP
0000
0000
0000
0000
1100
1100
1100
0F00
0100
0100
0100
0000
ENDCHAR

STARTCHAR 276a
ENCODING 10090
SWIDTH 960 0
DWIDTH 12 0
BBX 12 12 0 -2
BITMAP
0000
0000
0000
0000
2480
2480
2480
2480
2480
2480
3F80
0000
ENDCHAR

STARTCHAR 276b
ENCODING 10091
SWIDTH 960 0
DWIDTH 12 0
BBX 12 12 0 -2
BITMAP
0000
0000
0000
0000
4900
4900
4900
4900
4900
4900
7FC0
0040
ENDCHAR

STARTCHAR 276c
ENCODING 10092
SWIDTH 960 0
DWIDTH 12 0
BBX 12 12 0 -2
BITMAP
0000
0000
0000
0000
3800
0800
0F00
0880
0880
0880
0F00
0000
ENDCHAR

STARTCHAR 276d
ENCODING 10093
SWIDTH 960 0
DWIDTH 12 0
BBX 12 12 0 -2
BITMAP
0000
0000
0000
0000
1080
1080
1080
1C80
1280
1280
1C80
0000
ENDCHAR

STARTCHAR 276e
ENCODING 10094
SWIDTH 960 0
DWIDTH 12 0
BBX 12 12 0 -2
BITMAP
0000
0000
0000
0000
1000
1000
1E00
1100
1100
1100
1E00
0000
ENDCHAR

STARTCHAR 276f
ENCODING 10095
SWIDTH 960 0
DWIDTH 12 0
BBX 12 12 0 -2
BITMAP
0000
0000
0000
0000
0F00
1080
0580
0A80
0080
1080
0F00
0000
ENDCHAR

STARTCHAR 2770
ENCODING 10096
SWIDTH 960 0
DWIDTH 12 0
BBX 12 12 0 -2
BITMAP
0000
0000
0000
0000
2300
2480
2840
3840
2840
2480
2300
0000
ENDCHAR

STARTCHAR 2771
ENCODING 10097
SWIDTH 960 0
DWIDTH 12 0
BBX 12 12 0 -2
BITMAP
0000
0000
0000
0000
0F00
1100
1100
0F00
0900
1100
2100
0000
ENDCHAR

STARTCHAR 2821
ENCODING 10273
SWIDTH 960 0
DWIDTH 12 0
BBX 12 12 0 -2
BITMAP
0000
0000
0000
0000
0000
FFF0
0000
0000
0000
0000
0000
0000
ENDCHAR

STARTCHAR 2822
ENCODING 10274
SWIDTH 960 0
DWIDTH 12 0
BBX 12 12 0 -2
BITMAP
0400
0400
0400
0400
0400
0400
0400
0400
0400
0400
0400
0400
ENDCHAR

STARTCHAR 2823
ENCODING 10275
SWIDTH 960 0
DWIDTH 12 0
BBX 12 12 0 -2
BITMAP
0000
0000
0000
0000
0000
07F0
0400
0400
0400
0400
0400
0400
ENDCHAR

STARTCHAR 2824
ENCODING 10276
SWIDTH 960 0
DWIDTH 12 0
BBX 12 12 0 -2
BITMAP
0000
0000
0000
0000
0000
FC00
0400
0400
0400
0400
0400
0400
ENDCHAR

STARTCHAR 2825
ENCODING 10277
SWIDTH 960 0
DWIDTH 12 0
BBX 12 12 0 -2
BITMAP
0400
0400
0400
0400
0400
FC00
0000
0000
0000
0000
0000
0000
ENDCHAR

STARTCHAR 2826
ENCODING 10278
SWIDTH 960 0
DWIDTH 12 0
BBX 12 12 0 -2
BITMAP
0400
0400
0400
0400
0400
07F0
0000
0000
0000
0000
0000
0000
ENDCHAR

STARTCHAR 2827
ENCODING 10279
SWIDTH 960 0
DWIDTH 12 0
BBX 12 12 0 -2
BITMAP
0400
0400
0400
0400
0400
07F0
0400
0400
0400
0400
0400
0400
ENDCHAR

STARTCHAR 2828
ENCODING 10280
SWIDTH 960 0
DWIDTH 12 0
BBX 12 12 0 -2
BITMAP
0000
0000
0000
0000
0000
FFF0
0400
0400
0400
0400
0400
0400
ENDCHAR

STARTCHAR 2829
ENCODING 10281
SWIDTH 960 0
DWIDTH 12 0
BBX 12 12 0 -2
BITMAP
0400
0400
0400
0400
0400
FC00
0400
0400
0400
0400
0400
0400
ENDCHAR

STARTCHAR 282a
ENCODING 10282
SWIDTH 960 0
DWIDTH 12 0
BBX 12 12 0 -2
BITMAP
0400
0400
0400
0400
0400
FFF0
0000
0000
0000
0000
0000
0000
ENDCHAR

STARTCHAR 282b
ENCODING 10283
SWIDTH 960 0
DWIDTH 12 0
BBX 12 12 0 -2
BITMAP
0400
0400
0400
0400
0400
FFF0
0400
0400
0400
0400
0400
0400
ENDCHAR

STARTCHAR 282c
ENCODING 10284
SWIDTH 960 0
DWIDTH 12 0
BBX 12 12 0 -2
BITMAP
0000
0000
0000
0000
0000
FFF0
FFF0
0000
0000
0000
0000
0000
ENDCHAR

STARTCHAR 282d
ENCODING 10285
SWIDTH 960 0
DWIDTH 12 0
BBX 12 12 0 -2
BITMAP
0600
0600
0600
0600
0600
0600
0600
0600
0600
0600
0600
0600
ENDCHAR

STARTCHAR 282e
ENCODING 10286
SWIDTH 960 0
DWIDTH 12 0
BBX 12 12 0 -2
BITMAP
0000
0000
0000
0000
0000
07F0
07F0
0600
0600
0600
0600
0600
ENDCHAR

STARTCHAR 282f
ENCODING 10287
SWIDTH 960 0
DWIDTH 12 0
BBX 12 12 0 -2
BITMAP
0000
0000
0000
0000
0000
FE00
FE00
0600
0600
0600
0600
0600
ENDCHAR

STARTCHAR 2830
ENCODING 10288
SWIDTH 960 0
DWIDTH 12 0
BBX 12 12 0 -2
BITMAP
0600
0600
0600
0600
0600
FE00
FE00
0000
0000
0000
0000
0000
ENDCHAR

STARTCHAR 2831
ENCODING 10289
SWIDTH 960 0
DWIDTH 12 0
BBX 12 12 0 -2
BITMAP
0600
0600
0600
0600
0600
07F0
07F0
0000
0000
0000
0000
0000
ENDCHAR

STARTCHAR 2832
ENCODING 10290
SWIDTH 960 0
DWIDTH 12 0
BBX 12 12 0 -2
BITMAP
0600
0600
0600
0600
0600
07F0
07F0
0600
0600
0600
0600
0600
ENDCHAR

STARTCHAR 2833
ENCODING 10291
SWIDTH 960 0
DWIDTH 12 0
BBX 12 12 0 -2
BITMAP
0000
0000
0000
0000
0000
FFF0
FFF0
0600
0600
0600
0600
0600
ENDCHAR

STARTCHAR 2834
ENCODING 10292
SWIDTH 960 0
DWIDTH 12 0
BBX 12 12 0 -2
BITMAP
0600
0600
0600
0600
0600
FE00
FE00
0600
0600
0600
0600
0600
ENDCHAR

STARTCHAR 2835
ENCODING 10293
SWIDTH 960 0
DWIDTH 12 0
BBX 12 12 0 -2
BITMAP
0600
0600
0600
0600
0600
FFF0
FFF0
0000
0000
0000
0000
0000
ENDCHAR

STARTCHAR 2836
ENCODING 10294
SWIDTH 960 0
DWIDTH 12 0
BBX 12 12 0 -2
BITMAP
0600
0600
0600
0600
0600
FFF0
FFF0
0600
0600
0600
0600
0600
ENDCHAR

STARTCHAR 2837
ENCODING 10295
SWIDTH 960 0
DWIDTH 12 0
BBX 12 12 0 -2
BITMAP
0600
0600
0600
0600
0600
07F0
0600
0600
0600
0600
0600
0600
ENDCHAR

STARTCHAR 2838
ENCODING 10296
SWIDTH 960 0
DWIDTH 12 0
BBX 12 12 0 -2
BITMAP
0000
0000
0000
0000
0000
FFF0
FFF0
0400
0400
0400
0400
0400
ENDCHAR

STARTCHAR 2839
ENCODING 10297
SWIDTH 960 0
DWIDTH 12 0
BBX 12 12 0 -2
BITMAP
0600
0600
0600
0600
0600
FE00
0600
0600
0600
0600
0600
0600
ENDCHAR

STARTCHAR 283a
ENCODING 10298
SWIDTH 960 0
DWIDTH 12 0
BBX 12 12 0 -2
BITMAP
0400
0400
0400
0400
0400
FFF0
FFF0
0000
0000
0000
0000
0000
ENDCHAR

STARTCHAR 283b
ENCODING 10299
SWIDTH 960 0
DWIDTH 12 0
BBX 12 12 0 -2
BITMAP
0400
0400
0400
0400
0400
FFF0
FFF0
0400
0400
0400
0400
0400
ENDCHAR

STARTCHAR 283c
ENCODING 10300
SWIDTH 960 0
DWIDTH 12 0
BBX 12 12 0 -2
BITMAP
0400
0400
0400
0400
0400
07F0
07F0
0400
0400
0400
0400
0400
ENDCHAR

STARTCHAR 283d
ENCODING 10301
SWIDTH 960 0
DWIDTH 12 0
BBX 12 12 0 -2
BITMAP
0000
0000
0000
0000
0000
FFF0
0600
0600
0600
0600
0600
0600
ENDCHAR

STARTCHAR 283e
ENCODING 10302
SWIDTH 960 0
DWIDTH 12 0
BBX 12 12 0 -2
BITMAP
0400
0400
0400
0400
0400
FC00
FC00
0400
0400
0400
0400
0400
ENDCHAR

STARTCHAR 283f
ENCODING 10303
SWIDTH 960 0
DWIDTH 12 0
BBX 12 12 0 -2
BITMAP
0600
0600
0600
0600
0600
FFF0
0000
0000
0000
0000
0000
0000
ENDCHAR

STARTCHAR 2840
ENCODING 10304
SWIDTH 960 0
DWIDTH 12 0
BBX 12 12 0 -2
BITMAP
0600
0600
0600
0600
0600
FFF0
0600
0600
0600
0600
0600
0600
ENDCHAR

STARTCHAR 01-13-01
ENCODING 11553
SWIDTH 960 0
DWIDTH 12 0
BBX 12 12 0 -2
BITMAP
0000
1F00
2080
4440
8C20
8420
8420
8420
8420
4440
2080
1F00
ENDCHAR

STARTCHAR 01-13-02
ENCODING 11554
SWIDTH 960 0
DWIDTH 12 0
BBX 12 12 0 -2
BITMAP
0000
1F00
2080
4E40
9120
8220
8420
8820
9020
5F40
2080
1F00
ENDCHAR

STARTCHAR 01-13-03
ENCODING 11555
SWIDTH 960 0
DWIDTH 12 0
BBX 12 12 0 -2
BITMAP
0000
1F00
2080
4E40
9120
8120
8620
8120
9120
4E40
2080
1F00
ENDCHAR

STARTCHAR 01-13-04
ENCODING 11556
SWIDTH 960 0
DWIDTH 12 0
BBX 12 12 0 -2
BITMAP
0000
1F00
2080
4440
8C20
9420
9420
BF20
8420
4440
2080
1F00
ENDCHAR

STARTCHAR 01-13-05
ENCODING 11557
SWIDTH 960 0
DWIDTH 12 0
BBX 12 12 0 -2
BITMAP
0000
1F00
2080
5F40
9020
9020
9E20
8120
9120
4E40
2080
1F00
ENDCHAR

STARTCHAR 01-13-06
ENCODING 11558
SWIDTH 960 0
DWIDTH 12 0
BBX 12 12 0 -2
BITMAP
0000
1F00
2080
4E40
9120
9020
9E20
9120
9120
4E40
2080
1F00
ENDCHAR

STARTCHAR 01-13-07
ENCODING 11559
SWIDTH 960 0
DWIDTH 12 0
BBX 12 12 0 -2
BITMAP
0000
1F00
2080
5F40
9120
8220
8220
8420
8420
4440
2080
1F00
ENDCHAR

STARTCHAR 01-13-08
ENCODING 11560
SWIDTH 960 0
DWIDTH 12 0
BBX 12 12 0 -2
BITMAP
0000
1F00
2080
4E40
9120
9120
8E20
9120
9120
4E40
2080
1F00
ENDCHAR

STARTCHAR 01-13-09
ENCODING 11561
SWIDTH 960 0
DWIDTH 12 0
BBX 12 12 0 -2
BITMAP
0000
1F00
2080
4E40
9120
9120
8F20
8120
9120
4E40
2080
1F00
ENDCHAR

STARTCHAR 01-13-10
ENCODING 11562
SWIDTH 960 0
DWIDTH 12 0
BBX 12 12 0 -2
BITMAP
0000
3F80
4040
9320
B4A0
94A0
94A0
94A0
94A0
9320
4040
3F80
ENDCHAR

STARTCHAR 01-13-11
ENCODING 11563
SWIDTH 960 0
DWIDTH 12 0
BBX 12 12 0 -2
BITMAP
0000
3F80
4040
9120
B320
9120
9120
9120
9120
9120
4040
3F80
ENDCHAR

STARTCHAR 01-13-12
ENCODING 11564
SWIDTH 960 0
DWIDTH 12 0
BBX 12 12 0 -2
BITMAP
0000
3F80
4040
9320
B4A0
90A0
9120
9220
9420
97A0
4040
3F80
ENDCHAR

STARTCHAR 01-13-13
ENCODING 11565
SWIDTH 960 0
DWIDTH 12 0
BBX 12 12 0 -2
BITMAP
0000
3F80
4040
9320
B4A0
90A0
9320
90A0
94A0
9320
4040
3F80
ENDCHAR

STARTCHAR 01-13-14
ENCODING 11566
SWIDTH 960 0
DWIDTH 12 0
BBX 12 12 0 -2
BITMAP
0000
3F80
4040
9120
B320
9520
9920
9FA0
9120
9120
4040
3F80
ENDCHAR

STARTCHAR 01-13-15
ENCODING 11567
SWIDTH 960 0
DWIDTH 12 0
BBX 12 12 0 -2
BITMAP
0000
3F80
4040
9720
B420
9420
9720
90A0
94A0
9320
4040
3F80
ENDCHAR

STARTCHAR 01-13-16
ENCODING 11568
SWIDTH 960 0
DWIDTH 12 0
BBX 12 12 0 -2
BITMAP
0000
3F80
4040
9320
B4A0
9420
9720
94A0
94A0
9320
4040
3F80
ENDCHAR

STARTCHAR 01-13-17
ENCODING 11569
SWIDTH 960 0
DWIDTH 12 0
BBX 12 12 0 -2
BITMAP
0000
3F80
4040
97A0
B4A0
9120
9320
9220
9220
9220
4040
3F80
ENDCHAR

STARTCHAR 01-13-18
ENCODING 11570
SWIDTH 960 0
DWIDTH 12 0
BBX 12 12 0 -2
BITMAP
0000
3F80
4040
9320
B4A0
94A0
9320
94A0
94A0
9320
4040
3F80
ENDCHAR

STARTCHAR 01-13-19
ENCODING 11571
SWIDTH 960 0
DWIDTH 12 0
BBX 12 12 0 -2
BITMAP
0000
3F80
4040
9720
B4A0
94A0
97A0
90A0
94A0
9720
4040
3F80
ENDCHAR

STARTCHAR 01-13-20
ENCODING 11572
SWIDTH 960 0
DWIDTH 12 0
BBX 12 12 0 -2
BITMAP
0000
3F80
4040
9BA0
A6A0
8EA0
9AA0
92A0
A2A0
BFA0
4040
3F80
ENDCHAR

STARTCHAR 01-13-21
ENCODING 11573
SWIDTH 960 0
DWIDTH 12 0
BBX 12 12 0 -2
BITMAP
0000
0E00
0400
0400
0400
0400
0400
0400
0400
0400
0E00
0000
ENDCHAR

STARTCHAR 01-13-22
ENCODING 11574
SWIDTH 960 0
DWIDTH 12 0
BBX 12 12 0 -2
BITMAP
0000
3FC0
0900
0900
0900
0900
0900
0900
0900
0900
3FC0
0000
ENDCHAR

STARTCHAR 01-13-23
ENCODING 11575
SWIDTH 960 0
DWIDTH 12 0
BBX 12 12 0 -2
BITMAP
0000
7FC0
2480
2480
2480
2480
2480
2480
2480
2480
7FC0
0000
ENDCHAR

STARTCHAR 01-13-24
ENCODING 11576
SWIDTH 960 0
DWIDTH 12 0
BBX 12 12 0 -2
BITMAP
0000
7CE0
2840
2840
2440
2480
2280
2280
2300
2100
7100
0000
ENDCHAR

STARTCHAR 01-13-25
ENCODING 11577
SWIDTH 960 0
DWIDTH 12 0
BBX 12 12 0 -2
BITMAP
0000
71C0
2080
2080
1100
1100
1100
0A00
0A00
0400
0400
0000
ENDCHAR

STARTCHAR 01-13-26
ENCODING 11578
SWIDTH 960 0
DWIDTH 12 0
BBX 12 12 0 -2
BITMAP
0000
73E0
2140
2140
1140
1240
0A40
0A40
0C40
0440
04E0
0000
ENDCHAR

STARTCHAR 01-13-27
ENCODING 11579
SWIDTH 960 0
DWIDTH 12 0
BBX 12 12 0 -2
BITMAP
0000
77E0
2340
2340
2340
1540
1540
1540
0940
0940
0BE0
0000
ENDCHAR

STARTCHAR 01-13-28
ENCODING 11580
SWIDTH 960 0
DWIDTH 12 0
BBX 12 12 0 -2
BITMAP
0000
DFE0
8D40
8D40
4D40
5540
5540
5540
2540
2540
27E0
0000
ENDCHAR

STARTCHAR 01-13-29
ENCODING 11581
SWIDTH 960 0
DWIDTH 12 0
BBX 12 12 0 -2
BITMAP
0000
7CE0
2840
2480
2480
2300
2300
2480
2480
2840
7CE0
0000
ENDCHAR

STARTCHAR 01-13-30
ENCODING 11582
SWIDTH 960 0
DWIDTH 12 0
BBX 12 12 0 -2
BITMAP
0000
70E0
2040
1080
0900
0600
0600
0900
1080
2040
70E0
0000
ENDCHAR

STARTCHAR 13-31
ENCODING 11583
SWIDTH 960 0
DWIDTH 12 0
BBX 12 12 0 -2
BITMAP
0000
73E0
2140
1240
1240
0C40
0C40
1240
1240
2140
73E0
0000
ENDCHAR

STARTCHAR 01-13-32
ENCODING 11584
SWIDTH 960 0
DWIDTH 12 0
BBX 12 12 0 -2
BITMAP
0000
0000
6000
1800
6000
1A40
6240
1A40
0240
0040
0080
0100
ENDCHAR

STARTCHAR 01-13-33
ENCODING 11585
SWIDTH 960 0
DWIDTH 12 0
BBX 12 12 0 -2
BITMAP
0000
1000
1C00
7000
0E00
7800
09E0
0920
0120
0120
01E0
0000
ENDCHAR

STARTCHAR 01-13-34
ENCODING 11586
SWIDTH 960 0
DWIDTH 12 0
BBX 12 12 0 -2
BITMAP
0000
4000
7A00
C920
5020
4040
3980
0800
7000
FC00
1000
2000
ENDCHAR

STARTCHAR 01-13-35
ENCODING 11587
SWIDTH 960 0
DWIDTH 12 0
BBX 12 12 0 -2
BITMAP
0000
0800
6800
13C0
3000
C800
4000
4100
6500
5520
4540
4980
ENDCHAR

STARTCHAR 01-13-36
ENCODING 11588
SWIDTH 960 0
DWIDTH 12 0
BBX 12 12 0 -2
BITMAP
0000
15C0
7400
53E0
9020
2040
4180
2000
2000
4800
5400
E400
ENDCHAR

STARTCHAR 01-13-37
ENCODING 11589
SWIDTH 960 0
DWIDTH 12 0
BBX 12 12 0 -2
BITMAP
0000
4000
4000
7000
4800
4000
4400
0200
0220
0040
0080
0300
ENDCHAR

STARTCHAR 01-13-38
ENCODING 11590
SWIDTH 960 0
DWIDTH 12 0
BBX 12 12 0 -2
BITMAP
0000
7E00
1200
1400
19E0
2000
4000
0800
2900
2900
2A00
4C00
ENDCHAR

STARTCHAR 01-13-39
ENCODING 11591
SWIDTH 960 0
DWIDTH 12 0
BBX 12 12 0 -2
BITMAP
0000
21E0
2120
5220
4840
0440
7080
5280
D2A0
3EA0
22C0
C480
ENDCHAR

STARTCHAR 01-13-40
ENCODING 11592
SWIDTH 960 0
DWIDTH 12 0
BBX 12 12 0 -2
BITMAP
0000
9000
9000
92A0
12A0
2040
4180
4500
7500
4D20
4540
4980
ENDCHAR

STARTCHAR 01-13-41
ENCODING 11593
SWIDTH 960 0
DWIDTH 12 0
BBX 12 12 0 -2
BITMAP
0000
F800
8800
8AA0
12A0
2040
4180
4000
7000
4800
4000
4000
ENDCHAR

STARTCHAR 01-13-42
ENCODING 11594
SWIDTH 960 0
DWIDTH 12 0
BBX 12 12 0 -2
BITMAP
0000
4000
FBC0
4A40
4A40
B3C0
0000
9000
9000
97E0
1000
2000
ENDCHAR

STARTCHAR 01-13-43
ENCODING 11595
SWIDTH 960 0
DWIDTH 12 0
BBX 12 12 0 -2
BITMAP
0000
5400
5400
7000
4800
4000
4500
0500
0520
0540
0580
0900
ENDCHAR

STARTCHAR 01-13-44
ENCODING 11596
SWIDTH 960 0
DWIDTH 12 0
BBX 12 12 0 -2
BITMAP
0000
4000
7A00
C920
5020
4040
3980
4000
7000
4800
4000
4000
ENDCHAR

STARTCHAR 01-13-45
ENCODING 11597
SWIDTH 960 0
DWIDTH 12 0
BBX 12 12 0 -2
BITMAP
0000
0400
5A00
5400
8BC0
8800
0080
B880
D5C0
A1A0
8280
7480
ENDCHAR

STARTCHAR 01-13-46
ENCODING 11598
SWIDTH 960 0
DWIDTH 12 0
BBX 12 12 0 -2
BITMAP
0000
C240
3240
C240
3080
C080
3900
6880
4180
AFA0
91C0
9280
ENDCHAR

STARTCHAR 01-13-47
ENCODING 11599
SWIDTH 960 0
DWIDTH 12 0
BBX 12 12 0 -2
BITMAP
0000
0400
2A00
54E0
4800
0600
0280
6280
0000
6400
0800
3000
ENDCHAR

STARTCHAR 01-13-48
ENCODING 11600
SWIDTH 960 0
DWIDTH 12 0
BBX 12 12 0 -2
BITMAP
0000
0000
0000
0000
0000
D340
AAA0
AAA0
AAA0
AAA0
AAA0
0000
ENDCHAR

STARTCHAR 01-13-49
ENCODING 11601
SWIDTH 960 0
DWIDTH 12 0
BBX 12 12 0 -2
BITMAP
0000
0000
0000
0000
0000
6340
9AA0
82A0
82A0
4AA0
32A0
0000
ENDCHAR

STARTCHAR 01-13-50
ENCODING 11602
SWIDTH 960 0
DWIDTH 12 0
BBX 12 12 0 -2
BITMAP
0000
4000
4000
4000
4000
4740
4AA0
72A0
52A0
4AA0
46A0
0000
ENDCHAR

STARTCHAR 01-13-51
ENCODING 11603
SWIDTH 960 0
DWIDTH 12 0
BBX 12 12 0 -2
BITMAP
0000
0000
0000
0000
0020
D1E0
AA40
AA40
A980
ABC0
AC20
03C0
ENDCHAR

STARTCHAR 01-13-52
ENCODING 11604
SWIDTH 960 0
DWIDTH 12 0
BBX 12 12 0 -2
BITMAP
0000
4000
4000
4000
4020
45E0
4A40
7240
5180
4BC0
4620
03C0
ENDCHAR

STARTCHAR 01-13-53
ENCODING 11605
SWIDTH 960 0
DWIDTH 12 0
BBX 12 12 0 -2
BITMAP
0000
0000
0000
0000
0000
6180
9A60
8A20
8200
4920
30C0
0000
ENDCHAR

STARTCHAR 01-13-54
ENCODING 11606
SWIDTH 960 0
DWIDTH 12 0
BBX 12 12 0 -2
BITMAP
0000
01C0
0020
00C0
0100
5BE0
6D00
4900
4900
4900
4900
0000
ENDCHAR

STARTCHAR 01-13-55
ENCODING 11607
SWIDTH 960 0
DWIDTH 12 0
BBX 12 12 0 -2
BITMAP
0000
73E0
2340
2540
1540
1940
1940
2540
2540
4340
67E0
0000
ENDCHAR

STARTCHAR 01-13-63
ENCODING 11615
SWIDTH 960 0
DWIDTH 12 0
BBX 12 12 0 -2
BITMAP
0000
FD80
2140
A940
AFE0
7480
FCA0
27A0
2540
2560
29A0
2B20
ENDCHAR

STARTCHAR 01-13-64
ENCODING 11616
SWIDTH 960 0
DWIDTH 12 0
BBX 12 12 0 -2
BITMAP
06C0
06C0
0480
0480
0000
0000
0000
0000
0000
0000
0000
0000
ENDCHAR

STARTCHAR 01-13-65
ENCODING 11617
SWIDTH 960 0
DWIDTH 12 0
BBX 12 12 0 -2
BITMAP
0000
0000
0000
0000
0000
0000
0000
0000
6C00
6C00
4800
4800
ENDCHAR

STARTCHAR 01-13-66
ENCODING 11618
SWIDTH 960 0
DWIDTH 12 0
BBX 12 12 0 -2
BITMAP
0000
8800
C800
C800
A900
AA80
AC40
AC40
9C40
9AE0
8960
0000
ENDCHAR

STARTCHAR 01-13-67
ENCODING 11619
SWIDTH 960 0
DWIDTH 12 0
BBX 12 12 0 -2
BITMAP
0000
8A20
9240
A280
A280
C300
A280
9240
9240
8A20
8A20
0000
ENDCHAR

STARTCHAR 01-13-68
ENCODING 11620
SWIDTH 960 0
DWIDTH 12 0
BBX 12 12 0 -2
BITMAP
0000
EE80
4880
4880
4880
4E80
4880
4880
4880
4880
4EE0
0000
ENDCHAR

STARTCHAR 01-13-69
ENCODING 11621
SWIDTH 960 0
DWIDTH 12 0
BBX 12 12 0 -2
BITMAP
0000
1F00
2480
4440
8420
87A0
8420
8420
8420
7FC0
2080
1F00
ENDCHAR

STARTCHAR 01-13-70
ENCODING 11622
SWIDTH 960 0
DWIDTH 12 0
BBX 12 12 0 -2
BITMAP
0000
1F00
2480
4440
BFA0
A4A0
A4A0
BFA0
A4A0
4440
2480
1F00
ENDCHAR

STARTCHAR 01-13-71
ENCODING 11623
SWIDTH 960 0
DWIDTH 12 0
BBX 12 12 0 -2
BITMAP
0000
1F00
2080
7FC0
8420
8620
8520
84A0
8420
4440
2480
1F00
ENDCHAR

STARTCHAR 01-13-72
ENCODING 11624
SWIDTH 960 0
DWIDTH 12 0
BBX 12 12 0 -2
BITMAP
0000
1F00
2880
4840
FFE0
8820
9FA0
A220
E220
5FC0
2080
1F00
ENDCHAR

STARTCHAR 01-13-73
ENCODING 11625
SWIDTH 960 0
DWIDTH 12 0
BBX 12 12 0 -2
BITMAP
0000
1F00
2880
4840
FFE0
9020
9FA0
A8A0
E8A0
4FC0
2080
1F00
ENDCHAR

STARTCHAR 01-13-74
ENCODING 11626
SWIDTH 960 0
DWIDTH 12 0
BBX 12 12 0 -2
BITMAP
0000
4040
9220
FFE0
9320
BD20
BFE0
D320
D3A0
9560
9920
5140
ENDCHAR

STARTCHAR 01-13-75
ENCODING 11627
SWIDTH 960 0
DWIDTH 12 0
BBX 12 12 0 -2
BITMAP
0000
4840
8820
FFE0
8820
9FA0
90A0
BFA0
D0A0
9FA0
90A0
61C0
ENDCHAR

STARTCHAR 01-13-76
ENCODING 11628
SWIDTH 960 0
DWIDTH 12 0
BBX 12 12 0 -2
BITMAP
0000
4240
9320
92A0
AFE0
A220
E220
A120
A120
A120
A0A0
6040
ENDCHAR

STARTCHAR 01-13-77
ENCODING 11629
SWIDTH 960 0
DWIDTH 12 0
BBX 12 12 0 -2
BITMAP
0000
3880
EC80
AAC0
B920
EDE0
AA20
B800
EBE0
AB20
2DE0
5D20
ENDCHAR

STARTCHAR 01-13-78
ENCODING 11630
SWIDTH 960 0
DWIDTH 12 0
BBX 12 12 0 -2
BITMAP
0000
27E0
2080
2080
FA80
2280
22E0
2280
5280
4A80
4E80
87E0
ENDCHAR

STARTCHAR 01-13-79
ENCODING 11631
SWIDTH 960 0
DWIDTH 12 0
BBX 12 12 0 -2
BITMAP
0000
3900
EEE0
AAA0
AFA0
EAA0
B3A0
BFA0
AEA0
EAA0
BAE0
2AA0
ENDCHAR

STARTCHAR 13-80
ENCODING 11632
SWIDTH 960 0
DWIDTH 12 0
BBX 12 12 0 -2
BITMAP
0000
1800
1800
0000
7FE0
0000
0000
7FE0
0000
0180
0180
0000
ENDCHAR

STARTCHAR 13-81
ENCODING 11633
SWIDTH 960 0
DWIDTH 12 0
BBX 12 12 0 -2
BITMAP
0000
0000
0000
7FE0
0000
0000
7FE0
0000
0000
7FE0
0000
0000
ENDCHAR

STARTCHAR 13-82
ENCODING 11634
SWIDTH 960 0
DWIDTH 12 0
BBX 12 12 0 -2
BITMAP
0300
0400
0800
0800
0800
0400
0400
0200
0200
0200
0400
1800
ENDCHAR

STARTCHAR 13-83
ENCODING 11635
SWIDTH 960 0
DWIDTH 12 0
BBX 12 12 0 -2
BITMAP
0300
0400
0800
0800
0E00
1D00
1500
1700
0E00
0200
0400
1800
ENDCHAR

STARTCHAR 13-84
ENCODING 11636
SWIDTH 960 0
DWIDTH 12 0
BBX 12 12 0 -2
BITMAP
0000
7F80
2000
1000
0800
0400
0400
0800
1000
2000
7F80
0000
ENDCHAR

STARTCHAR 13-85
ENCODING 11637
SWIDTH 960 0
DWIDTH 12 0
BBX 12 12 0 -2
BITMAP
03F0
0200
0200
0400
0400
0400
0800
4800
A800
3000
1000
0000
ENDCHAR

STARTCHAR 13-86
ENCODING 11638
SWIDTH 960 0
DWIDTH 12 0
BBX 12 12 0 -2
BITMAP
0000
0400
0400
0400
0400
0400
0400
0400
0400
7FE0
0000
0000
ENDCHAR

STARTCHAR 13-87
ENCODING 11639
SWIDTH 960 0
DWIDTH 12 0
BBX 12 12 0 -2
BITMAP
0000
0040
0080
0100
0200
0400
0800
1000
2000
7FE0
0000
0000
ENDCHAR

STARTCHAR 13-88
ENCODING 11640
SWIDTH 960 0
DWIDTH 12 0
BBX 12 12 0 -2
BITMAP
4000
4000
4000
4000
4000
4000
4000
4000
4000
7FC0
0000
0000
ENDCHAR

STARTCHAR 13-89
ENCODING 11641
SWIDTH 960 0
DWIDTH 12 0
BBX 12 12 0 -2
BITMAP
0000
0040
00C0
0140
0240
0440
0840
1040
2040
7FC0
0000
0000
ENDCHAR

STARTCHAR 13-90
ENCODING 11642
SWIDTH 960 0
DWIDTH 12 0
BBX 12 12 0 -2
BITMAP
0000
0000
0000
6180
6180
0000
0000
0000
0C00
0C00
0000
0000
ENDCHAR

STARTCHAR 13-91
ENCODING 11643
SWIDTH 960 0
DWIDTH 12 0
BBX 12 12 0 -2
BITMAP
0000
1E00
2100
4080
4080
4080
4080
4080
4080
4080
4080
0000
ENDCHAR

STARTCHAR 13-92
ENCODING 11644
SWIDTH 960 0
DWIDTH 12 0
BBX 12 12 0 -2
BITMAP
0000
4080
4080
4080
4080
4080
4080
4080
4080
2100
1E00
0000
ENDCHAR

STARTCHAR 3021
ENCODING 12321
SWIDTH 960 0
DWIDTH 12 0
BBX 12 12 0 -2
BITMAP
0000
7FE0
0900
0900
3FC0
2940
2940
2940
3FC0
0900
0900
7FE0
ENDCHAR

STARTCHAR 3022
ENCODING 12322
SWIDTH 960 0
DWIDTH 12 0
BBX 12 12 0 -2
BITMAP
0000
1FE0
E280
A280
AFE0
AAA0
AAA0
AAA0
AFE0
E280
0280
1FE0
ENDCHAR

STARTCHAR 3023
ENCODING 12323
SWIDTH 960 0
DWIDTH 12 0
BBX 12 12 0 -2
BITMAP
4100
4100
57C0
F900
5100
5FE0
5100
9100
F7C0
2900
4100
8FE0
ENDCHAR

STARTCHAR 3024
ENCODING 12324
SWIDTH 960 0
DWIDTH 12 0
BBX 12 12 0 -2
BITMAP
0000
FFE0
A040
AF40
C940
A940
A940
AF40
C840
8040
8040
80C0
ENDCHAR

STARTCHAR 3025
ENCODING 12325
SWIDTH 960 0
DWIDTH 12 0
BBX 12 12 0 -2
BITMAP
0400
FFE0
0000
3F80
2080
2080
3F80
0840
3480
D200
1D80
7060
ENDCHAR

STARTCHAR 3026
ENCODING 12326
SWIDTH 960 0
DWIDTH 12 0
BBX 12 12 0 -2
BITMAP
01C0
7E80
1500
FFE0
8A20
A940
27A0
5F20
7100
0E00
1B00
E0E0
ENDCHAR

STARTCHAR 3027
ENCODING 12327
SWIDTH 960 0
DWIDTH 12 0
BBX 12 12 0 -2
BITMAP
2200
2280
2440
F7A0
2820
2FC0
3100
EFE0
2100
2280
2440
6830
ENDCHAR

STARTCHAR 3028
ENCODING 12328
SWIDTH 960 0
DWIDTH 12 0
BBX 12 12 0 -2
BITMAP
4100
4100
5280
FA80
5440
5BA0
9000
D7C0
3440
2C40
4440
87C0
ENDCHAR

STARTCHAR 3029
ENCODING 12329
SWIDTH 960 0
DWIDTH 12 0
BBX 12 12 0 -2
BITMAP
0200
43C0
2C80
0300
0CC0
FFE0
2200
2FC0
2200
2FC0
5A00
87F0
ENDCHAR

STARTCHAR 302a
ENCODING 12330
SWIDTH 960 0
DWIDTH 12 0
BBX 12 12 0 -2
BITMAP
1100
FFE0
1100
1F00
4940
30A0
3FC0
C430
3FC0
0600
1980
6060
ENDCHAR

STARTCHAR 302b
ENCODING 12331
SWIDTH 960 0
DWIDTH 12 0
BBX 12 12 0 -2
BITMAP
1100
FFE0
1100
FFE0
0A00
7FC0
4A40
4A40
51C0
6040
4040
7FC0
ENDCHAR

STARTCHAR 302c
ENCODING 12332
SWIDTH 960 0
DWIDTH 12 0
BBX 12 12 0 -2
BITMAP
1A00
E3C0
2480
27C0
FD40
27C0
7540
6FE0
A920
AFE0
2110
20F0
ENDCHAR

STARTCHAR 302d
ENCODING 12333
SWIDTH 960 0
DWIDTH 12 0
BBX 12 12 0 -2
BITMAP
0000
FFE0
0A00
7FC0
4A40
7FC0
0A00
FFE0
5400
5240
90A0
0F80
ENDCHAR

STARTCHAR 302e
ENCODING 12334
SWIDTH 960 0
DWIDTH 12 0
BBX 12 12 0 -2
BITMAP
4000
5FC0
5040
FFC0
5000
5FE0
72C0
DFA0
5100
57C0
6100
DFE0
ENDCHAR

STARTCHAR 302f
ENCODING 12335
SWIDTH 960 0
DWIDTH 12 0
BBX 12 12 0 -2
BITMAP
8000
5FC0
1040
9FC0
5000
1FE0
12C0
37A0
5100
57C0
9100
AFE0
ENDCHAR

STARTCHAR 3030
ENCODING 12336
SWIDTH 960 0
DWIDTH 12 0
BBX 12 12 0 -2
BITMAP
2000
23E0
2220
FA20
2BE0
2A20
2A20
2A20
2A20
4BE0
4810
87F0
ENDCHAR

STARTCHAR 3031
ENCODING 12337
SWIDTH 960 0
DWIDTH 12 0
BBX 12 12 0 -2
BITMAP
1100
FFE0
1500
7F80
0880
FFE0
1080
1F80
3FC0
2400
FFE0
0400
ENDCHAR

STARTCHAR 3032
ENCODING 12338
SWIDTH 960 0
DWIDTH 12 0
BBX 12 12 0 -2
BITMAP
1100
FFE0
1100
7FC0
0000
3FC0
2040
3FC0
2000
4000
4000
8000
ENDCHAR

STARTCHAR 3033
ENCODING 12339
SWIDTH 960 0
DWIDTH 12 0
BBX 12 12 0 -2
BITMAP
2100
7A40
97A0
F900
AFE0
F980
AA40
FCA0
1310
6840
5180
8600
ENDCHAR

STARTCHAR 3034
ENCODING 12340
SWIDTH 960 0
DWIDTH 12 0
BBX 12 12 0 -2
BITMAP
2100
2100
2FE0
F440
2280
6FE0
7100
6100
AFE0
A100
2100
2100
ENDCHAR

STARTCHAR 3035
ENCODING 12341
SWIDTH 960 0
DWIDTH 12 0
BBX 12 12 0 -2
BITMAP
0000
3FE0
2000
2200
2200
3FC0
2200
2200
2200
4200
5FE0
8000
ENDCHAR

STARTCHAR 3036
ENCODING 12342
SWIDTH 960 0
DWIDTH 12 0
BBX 12 12 0 -2
BITMAP
2100
F900
2280
FE40
89A0
F880
8C80
FA80
21E0
FE80
2080
2080
ENDCHAR

STARTCHAR 3037
ENCODING 12343
SWIDTH 960 0
DWIDTH 12 0
BBX 12 12 0 -2
BITMAP
2000
27C0
2240
FA80
22E0
2220
3520
E540
24C0
2940
2A20
7410
ENDCHAR

STARTCHAR 3038
ENCODING 12344
SWIDTH 960 0
DWIDTH 12 0
BBX 12 12 0 -2
BITMAP
0400
FFE0
8020
A020
3BC0
2A40
4A40
AA40
1380
1220
2220
41E0
ENDCHAR

STARTCHAR 3039
ENCODING 12345
SWIDTH 960 0
DWIDTH 12 0
BBX 12 12 0 -2
BITMAP
4000
47C0
5440
FC40
57C0
5440
5440
97C0
F440
2C40
4440
8FE0
ENDCHAR

STARTCHAR 303a
ENCODING 12346
SWIDTH 960 0
DWIDTH 12 0
BBX 12 12 0 -2
BITMAP
2080
2080
F880
AFE0
AA00
FA00
2200
3200
2A00
3A00
C5E0
0400
ENDCHAR

STARTCHAR 303b
ENCODING 12347
SWIDTH 960 0
DWIDTH 12 0
BBX 12 12 0 -2
BITMAP
2100
3100
4900
B580
4A40
7BC0
4E20
7BC0
5240
4A40
5640
E3C0
ENDCHAR

STARTCHAR 303c
ENCODING 12348
SWIDTH 960 0
DWIDTH 12 0
BBX 12 12 0 -2
BITMAP
2100
4100
93E0
6420
53A0
FAA0
2BA0
B2A0
AAA0
ABA0
A020
20C0
ENDCHAR

STARTCHAR 303d
ENCODING 12349
SWIDTH 960 0
DWIDTH 12 0
BBX 12 12 0 -2
BITMAP
2100
47C0
9100
67E0
5280
FA40
2DE0
B240
AE80
A900
A280
2C60
ENDCHAR

STARTCHAR 303e
ENCODING 12350
SWIDTH 960 0
DWIDTH 12 0
BBX 12 12 0 -2
BITMAP
2100
3900
5100
F9E0
A900
F900
ABC0
FA40
1240
6A40
5240
83C0
ENDCHAR

STARTCHAR 303f
ENCODING 12351
SWIDTH 960 0
DWIDTH 12 0
BBX 12 12 0 -2
BITMAP
0280
0240
FFE0
0200
7A40
4A40
4A40
7980
0180
1AA0
E460
1820
ENDCHAR

STARTCHAR 3040
ENCODING 12352
SWIDTH 960 0
DWIDTH 12 0
BBX 12 12 0 -2
BITMAP
FFE0
0A00
7FC0
4A40
7FC0
64C0
1500
FFE0
0E00
3580
C460
0400
ENDCHAR

STARTCHAR 3041
ENCODING 12353
SWIDTH 960 0
DWIDTH 12 0
BBX 12 12 0 -2
BITMAP
2100
2100
FA80
1280
2440
3BA0
7000
AFC0
2440
2440
2440
27C0
ENDCHAR

STARTCHAR 3042
ENCODING 12354
SWIDTH 960 0
DWIDTH 12 0
BBX 12 12 0 -2
BITMAP
0400
FFE0
8820
8820
0800
FFE0
1100
1100
3D00
0600
1980
6040
ENDCHAR

STARTCHAR 3043
ENCODING 12355
SWIDTH 960 0
DWIDTH 12 0
BBX 12 12 0 -2
BITMAP
0200
7FE0
4200
7FE0
4A80
5FC0
7260
5FC0
5240
5FC0
8220
81E0
ENDCHAR

STARTCHAR 3044
ENCODING 12356
SWIDTH 960 0
DWIDTH 12 0
BBX 12 12 0 -2
BITMAP
2100
2FE0
2820
FA20
2200
2FF0
3240
E240
2640
2180
2240
6C20
ENDCHAR

STARTCHAR 3045
ENCODING 12357
SWIDTH 960 0
DWIDTH 12 0
BBX 12 12 0 -2
BITMAP
0100
FFE0
9440
9480
9FE0
F000
97C0
9440
97C0
F440
0440
07C0
ENDCHAR

STARTCHAR 3046
ENCODING 12358
SWIDTH 960 0
DWIDTH 12 0
BBX 12 12 0 -2
BITMAP
0400
FFE0
8820
BFA0
1100
0E00
3580
FFE0
0E00
3580
C460
0400
ENDCHAR

STARTCHAR 3047
ENCODING 12359
SWIDTH 960 0
DWIDTH 12 0
BBX 12 12 0 -2
BITMAP
FBE0
8A20
FBE0
FBE0
8420
BFA0
8A20
FFE0
9120
9F20
9120
9F60
ENDCHAR

STARTCHAR 3048
ENCODING 12360
SWIDTH 960 0
DWIDTH 12 0
BBX 12 12 0 -2
BITMAP
5100
FFE0
5A20
7200
2FF0
FA40
AA40
FA40
2680
F980
2240
2420
ENDCHAR

STARTCHAR 3049
ENCODING 12361
SWIDTH 960 0
DWIDTH 12 0
BBX 12 12 0 -2
BITMAP
0400
0400
FFE0
0E00
1500
2480
C460
3F80
2080
2080
2080
3F80
ENDCHAR

STARTCHAR 304a
ENCODING 12362
SWIDTH 960 0
DWIDTH 12 0
BBX 12 12 0 -2
BITMAP
2040
2040
2840
2440
2440
2240
2040
2840
30C0
40A0
8310
0C00
ENDCHAR

STARTCHAR 304b
ENCODING 12363
SWIDTH 960 0
DWIDTH 12 0
BBX 12 12 0 -2
BITMAP
1000
1FC0
1240
2240
7FE0
A240
2240
2FC0
2200
2200
2400
2800
ENDCHAR

STARTCHAR 304c
ENCODING 12364
SWIDTH 960 0
DWIDTH 12 0
BBX 12 12 0 -2
BITMAP
1100
1100
1100
2FE0
2040
6840
A440
2440
2480
2480
2100
3FE0
ENDCHAR

STARTCHAR 304d
ENCODING 12365
SWIDTH 960 0
DWIDTH 12 0
BBX 12 12 0 -2
BITMAP
1100
1100
1FE0
2100
2220
6540
AD80
3500
2480
2480
2740
2C20
ENDCHAR

STARTCHAR 304e
ENCODING 12366
SWIDTH 960 0
DWIDTH 12 0
BBX 12 12 0 -2
BITMAP
1200
17C0
1240
3FF0
2440
67C0
A100
2FC0
2900
3FE0
2100
2100
ENDCHAR

STARTCHAR 304f
ENCODING 12367
SWIDTH 960 0
DWIDTH 12 0
BBX 12 12 0 -2
BITMAP
0000
7FE0
4920
4920
7FE0
4920
4920
7FE0
4920
4920
5020
7FE0
ENDCHAR

STARTCHAR 3050
ENCODING 12368
SWIDTH 960 0
DWIDTH 12 0
BBX 12 12 0 -2
BITMAP
0400
FFE0
0400
7F80
0480
7F80
4400
7FE0
0A20
1140
2080
C060
ENDCHAR

STARTCHAR 3051
ENCODING 12369
SWIDTH 960 0
DWIDTH 12 0
BBX 12 12 0 -2
BITMAP
0180
3E00
0400
FFE0
0E00
3580
C860
7FC0
1100
3E00
0D80
7040
ENDCHAR

STARTCHAR 3052
ENCODING 12370
SWIDTH 960 0
DWIDTH 12 0
BBX 12 12 0 -2
BITMAP
0140
4120
7FF0
4100
7D20
5520
7F40
54C0
5490
54D0
8930
B610
ENDCHAR

STARTCHAR 3053
ENCODING 12371
SWIDTH 960 0
DWIDTH 12 0
BBX 12 12 0 -2
BITMAP
0040
7C40
4440
7FE0
4040
7D40
4140
7D40
4840
AA40
AA40
18C0
ENDCHAR

STARTCHAR 3054
ENCODING 12372
SWIDTH 960 0
DWIDTH 12 0
BBX 12 12 0 -2
BITMAP
2440
2480
27E0
6C80
7480
B7E0
A480
2480
27E0
2480
2480
27E0
ENDCHAR

STARTCHAR 3055
ENCODING 12373
SWIDTH 960 0
DWIDTH 12 0
BBX 12 12 0 -2
BITMAP
0400
7FC0
1100
FFE0
2080
3F80
2080
3F80
5400
5240
90A0
0F80
ENDCHAR

STARTCHAR 3056
ENCODING 12374
SWIDTH 960 0
DWIDTH 12 0
BBX 12 12 0 -2
BITMAP
7C40
4440
7FE0
4240
7D40
4840
AA40
AAC0
1400
5240
90A0
0F80
ENDCHAR

STARTCHAR 3057
ENCODING 12375
SWIDTH 960 0
DWIDTH 12 0
BBX 12 12 0 -2
BITMAP
0000
1FC0
1040
1FC0
1040
1FC0
0800
1FE0
64A0
0920
3220
0CC0
ENDCHAR

STARTCHAR 3058
ENCODING 12376
SWIDTH 960 0
DWIDTH 12 0
BBX 12 12 0 -2
BITMAP
2100
27E0
2100
F280
2440
6FE0
7040
6740
A540
A740
2040
20C0
ENDCHAR

STARTCHAR 3059
ENCODING 12377
SWIDTH 960 0
DWIDTH 12 0
BBX 12 12 0 -2
BITMAP
2200
1200
0400
7F00
0900
1FC0
1040
3FE0
4020
9520
2AA0
40C0
ENDCHAR

STARTCHAR 305a
ENCODING 12378
SWIDTH 960 0
DWIDTH 12 0
BBX 12 12 0 -2
BITMAP
0000
3FC0
2440
3FC0
2440
3FC0
0000
FFE0
2440
2280
3D80
E060
ENDCHAR

STARTCHAR 305b
ENCODING 12379
SWIDTH 960 0
DWIDTH 12 0
BBX 12 12 0 -2
BITMAP
0000
7FC0
4440
7FC0
4440
7FC0
1100
7FC0
1100
FFE0
2180
C040
ENDCHAR

STARTCHAR 305c
ENCODING 12380
SWIDTH 960 0
DWIDTH 12 0
BBX 12 12 0 -2
BITMAP
1A00
E3C0
2440
FA80
2100
7680
69E0
6220
AD40
A080
2300
2C00
ENDCHAR

STARTCHAR 305d
ENCODING 12381
SWIDTH 960 0
DWIDTH 12 0
BBX 12 12 0 -2
BITMAP
2240
2280
D7E0
5C80
2480
57C0
FC80
2480
B7C0
AC80
A480
27E0
ENDCHAR

STARTCHAR 305e
ENCODING 12382
SWIDTH 960 0
DWIDTH 12 0
BBX 12 12 0 -2
BITMAP
2100
27E0
D120
57F0
2220
53E0
F880
23E0
AA80
AFF0
A080
2080
ENDCHAR

STARTCHAR 305f
ENCODING 12383
SWIDTH 960 0
DWIDTH 12 0
BBX 12 12 0 -2
BITMAP
0000
7FC0
4440
7FC0
4440
7FC0
2080
3F80
2080
3F80
2080
2180
ENDCHAR

STARTCHAR 3060
ENCODING 12384
SWIDTH 960 0
DWIDTH 12 0
BBX 12 12 0 -2
BITMAP
1100
FFE0
1100
7FC0
0400
FFE0
3580
C460
7FC0
1100
0F00
78C0
ENDCHAR

STARTCHAR 3061
ENCODING 12385
SWIDTH 960 0
DWIDTH 12 0
BBX 12 12 0 -2
BITMAP
0400
0400
FFE0
0800
0C40
1440
3280
D200
1100
1080
1C40
7020
ENDCHAR

STARTCHAR 3062
ENCODING 12386
SWIDTH 960 0
DWIDTH 12 0
BBX 12 12 0 -2
BITMAP
7000
0FE0
F920
0FE0
F920
0FE0
F440
07C0
F440
97C0
9440
F4C0
ENDCHAR

STARTCHAR 3063
ENCODING 12387
SWIDTH 960 0
DWIDTH 12 0
BBX 12 12 0 -2
BITMAP
0200
4FC0
2240
1FE0
0440
E7C0
2100
2FC0
2900
3FE0
5100
8FF0
ENDCHAR

STARTCHAR 3064
ENCODING 12388
SWIDTH 960 0
DWIDTH 12 0
BBX 12 12 0 -2
BITMAP
0200
4FC0
2A40
1FE0
0000
EFC0
2840
2FC0
2840
2FC0
5C60
8FF0
ENDCHAR

STARTCHAR 3065
ENCODING 12389
SWIDTH 960 0
DWIDTH 12 0
BBX 12 12 0 -2
BITMAP
0000
7FE0
4800
4F80
5200
6200
5FC0
4200
4500
4880
5000
7FE0
ENDCHAR

STARTCHAR 3066
ENCODING 12390
SWIDTH 960 0
DWIDTH 12 0
BBX 12 12 0 -2
BITMAP
0880
0880
0880
7FE0
0880
0880
0880
7FE0
0880
0880
1080
2080
ENDCHAR

STARTCHAR 3067
ENCODING 12391
SWIDTH 960 0
DWIDTH 12 0
BBX 12 12 0 -2
BITMAP
0400
FFE0
0800
0A00
7200
1400
0C80
1900
6200
0D00
3080
C040
ENDCHAR

STARTCHAR 3068
ENCODING 12392
SWIDTH 960 0
DWIDTH 12 0
BBX 12 12 0 -2
BITMAP
0180
4140
5FE0
4100
FD20
5520
5540
5CC0
6280
CCA0
3160
0220
ENDCHAR

STARTCHAR 3069
ENCODING 12393
SWIDTH 960 0
DWIDTH 12 0
BBX 12 12 0 -2
BITMAP
0400
FFE0
0900
1380
7C40
3F80
2080
3F80
2080
3F80
2080
2180
ENDCHAR

STARTCHAR 306a
ENCODING 12394
SWIDTH 960 0
DWIDTH 12 0
BBX 12 12 0 -2
BITMAP
1000
11E0
FF20
2140
3D80
65C0
7D20
A520
3D20
25C0
2500
2D00
ENDCHAR

STARTCHAR 306b
ENCODING 12395
SWIDTH 960 0
DWIDTH 12 0
BBX 12 12 0 -2
BITMAP
0440
FAA0
2DC0
2560
4FE0
71A0
DFF0
54A0
54C0
5BA0
7260
0C20
ENDCHAR

STARTCHAR 306c
ENCODING 12396
SWIDTH 960 0
DWIDTH 12 0
BBX 12 12 0 -2
BITMAP
0000
0000
0000
0000
0000
7FE0
0000
0000
0000
0000
0000
0000
ENDCHAR

STARTCHAR 306d
ENCODING 12397
SWIDTH 960 0
DWIDTH 12 0
BBX 12 12 0 -2
BITMAP
0400
3F80
0400
FFE0
0000
FFE0
9020
9020
1F00
1000
1040
0FC0
ENDCHAR

STARTCHAR 306e
ENCODING 12398
SWIDTH 960 0
DWIDTH 12 0
BBX 12 12 0 -2
BITMAP
4880
2480
0500
BFE0
4880
0880
1040
3FE0
5540
5540
9540
BFE0
ENDCHAR

STARTCHAR 306f
ENCODING 12399
SWIDTH 960 0
DWIDTH 12 0
BBX 12 12 0 -2
BITMAP
0200
43C0
2480
0FE0
0920
EFE0
2300
2300
2520
28E0
5800
87F0
ENDCHAR

STARTCHAR 3070
ENCODING 12400
SWIDTH 960 0
DWIDTH 12 0
BBX 12 12 0 -2
BITMAP
18E0
E7A0
22A0
FAC0
2280
75E0
6D20
6D20
A5E0
A520
2520
25E0
ENDCHAR

STARTCHAR 3071
ENCODING 12401
SWIDTH 960 0
DWIDTH 12 0
BBX 12 12 0 -2
BITMAP
1100
FFE0
1100
1500
47E0
2520
2940
0900
1100
2280
CC40
3020
ENDCHAR

STARTCHAR 3072
ENCODING 12402
SWIDTH 960 0
DWIDTH 12 0
BBX 12 12 0 -2
BITMAP
1100
FFE0
1100
3F80
0400
0400
FFE0
0400
0400
0400
0400
0C00
ENDCHAR

STARTCHAR 3073
ENCODING 12403
SWIDTH 960 0
DWIDTH 12 0
BBX 12 12 0 -2
BITMAP
2000
3FE0
5120
FBE0
AC80
FFE0
A920
FDA0
1360
6DA0
5120
86C0
ENDCHAR

STARTCHAR 3074
ENCODING 12404
SWIDTH 960 0
DWIDTH 12 0
BBX 12 12 0 -2
BITMAP
0800
0800
1300
20C0
7F20
0A00
0A00
0A00
1200
1220
2220
41E0
ENDCHAR

STARTCHAR 3075
ENCODING 12405
SWIDTH 960 0
DWIDTH 12 0
BBX 12 12 0 -2
BITMAP
0800
73E0
4220
4220
7A20
4220
4220
4220
7AC0
4200
0200
0200
ENDCHAR

STARTCHAR 3076
ENCODING 12406
SWIDTH 960 0
DWIDTH 12 0
BBX 12 12 0 -2
BITMAP
0000
0FE0
E920
A920
AFE0
A920
A920
A9A0
AA60
EA60
0C20
0FE0
ENDCHAR

STARTCHAR 3077
ENCODING 12407
SWIDTH 960 0
DWIDTH 12 0
BBX 12 12 0 -2
BITMAP
1F80
1080
1F80
3FC0
2040
3FC0
2040
3FC0
2040
3FC0
1980
6060
ENDCHAR

STARTCHAR 3078
ENCODING 12408
SWIDTH 960 0
DWIDTH 12 0
BBX 12 12 0 -2
BITMAP
0000
7FE0
4420
4420
7FA0
4420
4420
4A20
5120
60A0
4020
7FE0
ENDCHAR

STARTCHAR 3079
ENCODING 12409
SWIDTH 960 0
DWIDTH 12 0
BBX 12 12 0 -2
BITMAP
4000
47E0
5520
FD20
57E0
5520
5520
95A0
F560
2E60
4620
87E0
ENDCHAR

STARTCHAR 307a
ENCODING 12410
SWIDTH 960 0
DWIDTH 12 0
BBX 12 12 0 -2
BITMAP
0040
7C40
0440
0440
7C40
4040
7C40
0440
0440
0440
0440
3840
ENDCHAR

STARTCHAR 307b
ENCODING 12411
SWIDTH 960 0
DWIDTH 12 0
BBX 12 12 0 -2
BITMAP
2100
3100
4D00
B1F0
4AA0
7AA0
4C80
7880
5140
4940
5620
EC10
ENDCHAR

STARTCHAR 307c
ENCODING 12412
SWIDTH 960 0
DWIDTH 12 0
BBX 12 12 0 -2
BITMAP
40E0
2F00
1240
8A40
4880
2FE0
0200
2200
4FC0
4200
8200
9FE0
ENDCHAR

STARTCHAR 307d
ENCODING 12413
SWIDTH 960 0
DWIDTH 12 0
BBX 12 12 0 -2
BITMAP
4440
4940
5240
4C40
4940
7FC0
5140
5F40
5140
5F50
5150
9330
ENDCHAR

STARTCHAR 307e
ENCODING 12414
SWIDTH 960 0
DWIDTH 12 0
BBX 12 12 0 -2
BITMAP
1100
FFE0
1100
E300
A780
C840
B7E0
A080
BFE0
C480
85C0
8E40
ENDCHAR

STARTCHAR 3121
ENCODING 12577
SWIDTH 960 0
DWIDTH 12 0
BBX 12 12 0 -2
BITMAP
E100
BFE0
B020
DFA0
A000
BFE0
A280
A280
C480
84A0
88A0
9060
ENDCHAR

STARTCHAR 3122
ENCODING 12578
SWIDTH 960 0
DWIDTH 12 0
BBX 12 12 0 -2
BITMAP
0200
E300
A480
AFC0
D020
AFC0
A100
BFE0
A280
C4C0
9F40
8040
ENDCHAR

STARTCHAR 3123
ENCODING 12579
SWIDTH 960 0
DWIDTH 12 0
BBX 12 12 0 -2
BITMAP
E3C0
BE40
AA80
DFC0
C040
AFC0
A040
BFC0
C540
94A0
A420
A3E0
ENDCHAR

STARTCHAR 3124
ENCODING 12580
SWIDTH 960 0
DWIDTH 12 0
BBX 12 12 0 -2
BITMAP
23C0
FA40
5240
53E0
FA20
03E0
7A20
4BE0
7A20
4BE0
7940
0620
ENDCHAR

STARTCHAR 3125
ENCODING 12581
SWIDTH 960 0
DWIDTH 12 0
BBX 12 12 0 -2
BITMAP
0080
0080
F080
9FE0
9080
9480
9280
9280
9080
F080
0080
0180
ENDCHAR

STARTCHAR 3126
ENCODING 12582
SWIDTH 960 0
DWIDTH 12 0
BBX 12 12 0 -2
BITMAP
0800
0800
0800
FFE0
0800
0800
1000
1FC0
3040
5040
9040
1FC0
ENDCHAR

STARTCHAR 3127
ENCODING 12583
SWIDTH 960 0
DWIDTH 12 0
BBX 12 12 0 -2
BITMAP
0400
FFE0
8020
BFA0
0400
0400
7FC0
0400
0400
0400
0400
0C00
ENDCHAR

STARTCHAR 3128
ENCODING 12584
SWIDTH 960 0
DWIDTH 12 0
BBX 12 12 0 -2
BITMAP
0800
3F80
2080
3F80
2000
3FE0
2000
3FE0
0120
54A0
4A20
80C0
ENDCHAR

STARTCHAR 3129
ENCODING 12585
SWIDTH 960 0
DWIDTH 12 0
BBX 12 12 0 -2
BITMAP
0000
FFE0
0820
4A20
2920
0820
1860
28A0
CB20
0820
0820
1860
ENDCHAR

STARTCHAR 312a
ENCODING 12586
SWIDTH 960 0
DWIDTH 12 0
BBX 12 12 0 -2
BITMAP
0000
4FC0
2100
0100
1FE0
E100
2100
2100
2100
2300
5800
87F0
ENDCHAR

STARTCHAR 312b
ENCODING 12587
SWIDTH 960 0
DWIDTH 12 0
BBX 12 12 0 -2
BITMAP
0000
7FE0
0400
0400
7FE0
6520
54A0
4420
6520
54A0
4420
4460
ENDCHAR

STARTCHAR 312c
ENCODING 12588
SWIDTH 960 0
DWIDTH 12 0
BBX 12 12 0 -2
BITMAP
0C00
71E0
4120
4920
4920
4920
4920
5920
E9C0
0900
1100
2100
ENDCHAR

STARTCHAR 312d
ENCODING 12589
SWIDTH 960 0
DWIDTH 12 0
BBX 12 12 0 -2
BITMAP
4900
33C0
FA40
2BC0
FA40
A3E0
FA00
2BE0
6960
7AA0
A420
20C0
ENDCHAR

STARTCHAR 312e
ENCODING 12590
SWIDTH 960 0
DWIDTH 12 0
BBX 12 12 0 -2
BITMAP
0400
FFE0
8A20
73C0
2000
7BC0
2240
FFC0
3240
2BC0
42A0
8CE0
ENDCHAR

STARTCHAR 312f
ENCODING 12591
SWIDTH 960 0
DWIDTH 12 0
BBX 12 12 0 -2
BITMAP
0000
3F80
0480
0480
0480
7FE0
0480
0880
0880
0880
0880
7FE0
ENDCHAR

STARTCHAR 3130
ENCODING 12592
SWIDTH 960 0
DWIDTH 12 0
BBX 12 12 0 -2
BITMAP
0240
F480
27E0
2C80
5480
77E0
D480
5480
57E0
5480
7480
07E0
ENDCHAR

STARTCHAR 3131
ENCODING 12593
SWIDTH 960 0
DWIDTH 12 0
BBX 12 12 0 -2
BITMAP
0400
0800
33C0
2040
2040
2040
3BC0
2040
2040
2040
3FC0
0000
ENDCHAR

STARTCHAR 3132
ENCODING 12594
SWIDTH 960 0
DWIDTH 12 0
BBX 12 12 0 -2
BITMAP
4000
2FC0
0840
8BC0
4A40
1FE0
1020
37A0
54A0
57A0
9020
9060
ENDCHAR

STARTCHAR 3133
ENCODING 12595
SWIDTH 960 0
DWIDTH 12 0
BBX 12 12 0 -2
BITMAP
0200
03C0
E200
AFE0
AA00
AFE0
AA40
A9C0
AAA0
EAC0
1680
2FE0
ENDCHAR

STARTCHAR 3134
ENCODING 12596
SWIDTH 960 0
DWIDTH 12 0
BBX 12 12 0 -2
BITMAP
0000
07C0
F440
9440
97C0
9440
97C0
9440
9440
F7C0
0240
0C20
ENDCHAR

STARTCHAR 3135
ENCODING 12597
SWIDTH 960 0
DWIDTH 12 0
BBX 12 12 0 -2
BITMAP
2480
FBE0
75C0
AAA0
7FC0
4A40
7FC0
4880
7FE0
5280
4880
F580
ENDCHAR

STARTCHAR 3136
ENCODING 12598
SWIDTH 960 0
DWIDTH 12 0
BBX 12 12 0 -2
BITMAP
1100
FFE0
1100
7C40
4440
7FE0
4040
7D40
4940
6C40
AA40
2AC0
ENDCHAR

STARTCHAR 3137
ENCODING 12599
SWIDTH 960 0
DWIDTH 12 0
BBX 12 12 0 -2
BITMAP
23C0
7A40
93C0
FA40
AFE0
FAA0
AFE0
FA40
1140
6980
5240
8420
ENDCHAR

STARTCHAR 3138
ENCODING 12600
SWIDTH 960 0
DWIDTH 12 0
BBX 12 12 0 -2
BITMAP
4100
4100
57E0
F940
5180
5FE0
5100
9200
F7C0
2A00
4220
81E0
ENDCHAR

STARTCHAR 3139
ENCODING 12601
SWIDTH 960 0
DWIDTH 12 0
BBX 12 12 0 -2
BITMAP
7FE0
4000
5DE0
5540
5D40
57E0
5C80
5180
5980
5680
9AA0
3460
ENDCHAR

STARTCHAR 313a
ENCODING 12602
SWIDTH 960 0
DWIDTH 12 0
BBX 12 12 0 -2
BITMAP
4120
2110
0FE0
8100
4FE0
0920
0FE0
2920
4FE0
4920
8920
8960
ENDCHAR

STARTCHAR 313b
ENCODING 12603
SWIDTH 960 0
DWIDTH 12 0
BBX 12 12 0 -2
BITMAP
00C0
3F00
2500
2500
2500
2500
2480
2680
2580
4740
7940
8020
ENDCHAR

STARTCHAR 313c
ENCODING 12604
SWIDTH 960 0
DWIDTH 12 0
BBX 12 12 0 -2
BITMAP
FBE0
8A20
FBE0
8A20
FBE0
8020
BFA0
8420
9F20
8420
BFA0
8060
ENDCHAR

STARTCHAR 313d
ENCODING 12605
SWIDTH 960 0
DWIDTH 12 0
BBX 12 12 0 -2
BITMAP
0880
1FE0
E500
BFC0
B540
B9C0
BFC0
A080
BFE0
E880
0480
0180
ENDCHAR

STARTCHAR 313e
ENCODING 12606
SWIDTH 960 0
DWIDTH 12 0
BBX 12 12 0 -2
BITMAP
0000
3F80
0000
0000
FFE0
0400
0400
0900
0880
1380
7C40
0040
ENDCHAR

STARTCHAR 313f
ENCODING 12607
SWIDTH 960 0
DWIDTH 12 0
BBX 12 12 0 -2
BITMAP
1FE0
5120
3FE0
0940
0FC0
E940
2FC0
2100
3FE0
2100
5900
87F0
ENDCHAR

STARTCHAR 3140
ENCODING 12608
SWIDTH 960 0
DWIDTH 12 0
BBX 12 12 0 -2
BITMAP
7FC0
0400
FFE0
8420
B5A0
0400
3F80
0000
FFE0
0900
1380
7C40
ENDCHAR

STARTCHAR 3141
ENCODING 12609
SWIDTH 960 0
DWIDTH 12 0
BBX 12 12 0 -2
BITMAP
1100
FFE0
1100
10C0
1700
2100
2100
7FE0
A100
2100
2FC0
2000
ENDCHAR

STARTCHAR 3142
ENCODING 12610
SWIDTH 960 0
DWIDTH 12 0
BBX 12 12 0 -2
BITMAP
2000
37E0
4A40
B3C0
4A40
7A40
4BC0
7A40
5240
4BE0
5640
E040
ENDCHAR

STARTCHAR 3143
ENCODING 12611
SWIDTH 960 0
DWIDTH 12 0
BBX 12 12 0 -2
BITMAP
3800
23E0
FC20
A520
7140
8D40
2080
7880
CCC0
7940
4A20
7C10
ENDCHAR

STARTCHAR 3144
ENCODING 12612
SWIDTH 960 0
DWIDTH 12 0
BBX 12 12 0 -2
BITMAP
2880
1500
FFE0
8020
BF20
2100
3F00
0800
7F80
4080
4080
7F80
ENDCHAR

STARTCHAR 3145
ENCODING 12613
SWIDTH 960 0
DWIDTH 12 0
BBX 12 12 0 -2
BITMAP
FBE0
8A20
FBE0
8A20
FBE0
5140
8A20
FFE0
1100
3100
0E00
71C0
ENDCHAR

STARTCHAR 3146
ENCODING 12614
SWIDTH 960 0
DWIDTH 12 0
BBX 12 12 0 -2
BITMAP
7C80
4480
7D00
4640
7C40
1080
FE80
4520
7C20
5440
9280
3100
ENDCHAR

STARTCHAR 3147
ENCODING 12615
SWIDTH 960 0
DWIDTH 12 0
BBX 12 12 0 -2
BITMAP
0200
E200
AFC0
AA40
AA40
EA40
BFE0
A300
A500
E480
0840
3020
ENDCHAR

STARTCHAR 3148
ENCODING 12616
SWIDTH 960 0
DWIDTH 12 0
BBX 12 12 0 -2
BITMAP
0800
0800
7F80
4880
7F80
4880
7FC0
0880
0700
1A20
E1A0
0060
ENDCHAR

STARTCHAR 3149
ENCODING 12617
SWIDTH 960 0
DWIDTH 12 0
BBX 12 12 0 -2
BITMAP
4840
2480
2500
FFE0
8420
8420
7FC0
0E00
1500
2480
C460
0400
ENDCHAR

STARTCHAR 314a
ENCODING 12618
SWIDTH 960 0
DWIDTH 12 0
BBX 12 12 0 -2
BITMAP
0C00
0200
0000
1C40
0680
FF00
1500
1480
2440
C420
0400
0C00
ENDCHAR

STARTCHAR 314b
ENCODING 12619
SWIDTH 960 0
DWIDTH 12 0
BBX 12 12 0 -2
BITMAP
4300
2080
0000
8720
41C0
1D80
0580
2540
4920
5110
8100
8300
ENDCHAR

STARTCHAR 314c
ENCODING 12620
SWIDTH 960 0
DWIDTH 12 0
BBX 12 12 0 -2
BITMAP
4200
2200
1FC0
9240
5FC0
1240
1FC0
2200
4280
4100
86A0
9860
ENDCHAR

STARTCHAR 314d
ENCODING 12621
SWIDTH 960 0
DWIDTH 12 0
BBX 12 12 0 -2
BITMAP
0480
FFE0
4480
4580
4FC0
F940
4940
5FE0
7100
C280
0440
1820
ENDCHAR

STARTCHAR 314e
ENCODING 12622
SWIDTH 960 0
DWIDTH 12 0
BBX 12 12 0 -2
BITMAP
0000
7F00
1100
1FC0
2A40
2440
5A40
8180
7FC0
4A40
4A40
FFE0
ENDCHAR

STARTCHAR 314f
ENCODING 12623
SWIDTH 960 0
DWIDTH 12 0
BBX 12 12 0 -2
BITMAP
8000
F7E0
8100
7BE0
0220
7BE0
2220
FBE0
2220
73E0
AA40
2420
ENDCHAR

STARTCHAR 3150
ENCODING 12624
SWIDTH 960 0
DWIDTH 12 0
BBX 12 12 0 -2
BITMAP
8000
FBE0
8100
7BE0
0220
7BE0
0220
FBE0
2220
ABE0
A940
2620
ENDCHAR

STARTCHAR 3151
ENCODING 12625
SWIDTH 960 0
DWIDTH 12 0
BBX 12 12 0 -2
BITMAP
1100
7FC0
1500
0400
3F80
2480
2480
FFE0
0400
0A00
3180
C060
ENDCHAR

STARTCHAR 3152
ENCODING 12626
SWIDTH 960 0
DWIDTH 12 0
BBX 12 12 0 -2
BITMAP
2800
3EE0
4A00
BF00
33F0
5E40
C440
5E40
5440
7F40
4440
44C0
ENDCHAR

STARTCHAR 3153
ENCODING 12627
SWIDTH 960 0
DWIDTH 12 0
BBX 12 12 0 -2
BITMAP
7300
0080
F700
0120
71C0
0F80
7380
0340
F540
9920
9100
F300
ENDCHAR

STARTCHAR 3154
ENCODING 12628
SWIDTH 960 0
DWIDTH 12 0
BBX 12 12 0 -2
BITMAP
2440
3240
4A80
87C0
7C40
2440
FFC0
2280
AA80
7280
3CA0
C860
ENDCHAR

STARTCHAR 3155
ENCODING 12629
SWIDTH 960 0
DWIDTH 12 0
BBX 12 12 0 -2
BITMAP
4100
2FE0
0500
85E0
4920
09A0
1A40
6B40
4C80
4940
8A20
8C20
ENDCHAR

STARTCHAR 3156
ENCODING 12630
SWIDTH 960 0
DWIDTH 12 0
BBX 12 12 0 -2
BITMAP
0200
3FE0
A780
6480
24A0
2860
7780
A080
2480
4300
4580
9860
ENDCHAR

STARTCHAR 3157
ENCODING 12631
SWIDTH 960 0
DWIDTH 12 0
BBX 12 12 0 -2
BITMAP
2080
1080
0900
FFE0
1100
1100
2080
7FC0
AAA0
2A80
2A80
FFE0
ENDCHAR

STARTCHAR 3158
ENCODING 12632
SWIDTH 960 0
DWIDTH 12 0
BBX 12 12 0 -2
BITMAP
0000
FBE0
A220
F220
A3E0
F280
A280
FA80
0A40
AA40
8A20
3410
ENDCHAR

STARTCHAR 3159
ENCODING 12633
SWIDTH 960 0
DWIDTH 12 0
BBX 12 12 0 -2
BITMAP
2440
2280
27C0
7440
6C40
A440
A7C0
2280
2280
24A0
28A0
3060
ENDCHAR

STARTCHAR 315a
ENCODING 12634
SWIDTH 960 0
DWIDTH 12 0
BBX 12 12 0 -2
BITMAP
77C0
0440
FFC0
0440
77C0
0200
73E0
04A0
F720
9AA0
93A0
F0C0
ENDCHAR

STARTCHAR 315b
ENCODING 12635
SWIDTH 960 0
DWIDTH 12 0
BBX 12 12 0 -2
BITMAP
1080
10A0
7BE0
1280
FEA0
12A0
5E40
52E0
7720
5020
8C00
83F0
ENDCHAR

STARTCHAR 315c
ENCODING 12636
SWIDTH 960 0
DWIDTH 12 0
BBX 12 12 0 -2
BITMAP
FBE0
8A20
FBE0
8A20
FBE0
8A20
9F20
9120
9F20
8A20
93A0
A060
ENDCHAR

STARTCHAR 315d
ENCODING 12637
SWIDTH 960 0
DWIDTH 12 0
BBX 12 12 0 -2
BITMAP
2FE0
2100
27E0
F420
27E0
2420
77E0
63C0
A640
A980
2140
2E30
ENDCHAR

STARTCHAR 315e
ENCODING 12638
SWIDTH 960 0
DWIDTH 12 0
BBX 12 12 0 -2
BITMAP
0000
7FE0
54C0
5CA0
4080
5FE0
5480
5C80
5540
5D40
9540
9620
ENDCHAR

STARTCHAR 315f
ENCODING 12639
SWIDTH 960 0
DWIDTH 12 0
BBX 12 12 0 -2
BITMAP
0000
7FC0
4440
4440
4440
7FC0
4040
4040
4040
4040
4040
40C0
ENDCHAR

STARTCHAR 3160
ENCODING 12640
SWIDTH 960 0
DWIDTH 12 0
BBX 12 12 0 -2
BITMAP
0000
7FE0
4420
5FA0
4420
7FE0
50A0
5FA0
4EA0
7520
44A0
7FE0
ENDCHAR

STARTCHAR 3161
ENCODING 12641
SWIDTH 960 0
DWIDTH 12 0
BBX 12 12 0 -2
BITMAP
2000
2FE0
2A40
2BC0
FA40
2BC0
2900
2FE0
3A40
C980
0E40
0FE0
ENDCHAR

STARTCHAR 3162
ENCODING 12642
SWIDTH 960 0
DWIDTH 12 0
BBX 12 12 0 -2
BITMAP
0400
0400
FFE0
1500
2480
FFE0
2480
3F80
2480
3F80
0420
03E0
ENDCHAR

STARTCHAR 3163
ENCODING 12643
SWIDTH 960 0
DWIDTH 12 0
BBX 12 12 0 -2
BITMAP
0400
FFE0
9F20
9120
1F00
1100
1F00
0800
FFE0
3100
0E00
7180
ENDCHAR

STARTCHAR 3164
ENCODING 12644
SWIDTH 960 0
DWIDTH 12 0
BBX 12 12 0 -2
BITMAP
0060
F780
1100
2100
45E0
7500
1500
5500
2500
3FE0
4C00
83F0
ENDCHAR

STARTCHAR 3165
ENCODING 12645
SWIDTH 960 0
DWIDTH 12 0
BBX 12 12 0 -2
BITMAP
2000
3BC0
4A40
AA40
12C0
2220
C1E0
0400
5240
5220
90A0
0F80
ENDCHAR

STARTCHAR 3166
ENCODING 12646
SWIDTH 960 0
DWIDTH 12 0
BBX 12 12 0 -2
BITMAP
2100
2100
2FF0
F540
2920
37D0
3540
E7C0
2540
27C0
2110
60F0
ENDCHAR

STARTCHAR 3167
ENCODING 12647
SWIDTH 960 0
DWIDTH 12 0
BBX 12 12 0 -2
BITMAP
20E0
2F40
2A40
F580
2FC0
2400
3FE0
E400
2FC0
2A40
3180
6E60
ENDCHAR

STARTCHAR 3168
ENCODING 12648
SWIDTH 960 0
DWIDTH 12 0
BBX 12 12 0 -2
BITMAP
4500
2500
0500
0880
8880
5040
2FA0
2880
4880
4880
8880
8F80
ENDCHAR

STARTCHAR 3169
ENCODING 12649
SWIDTH 960 0
DWIDTH 12 0
BBX 12 12 0 -2
BITMAP
8200
7FE0
2020
1FC0
8200
5FC0
1240
3FC0
5240
5FC0
8840
B020
ENDCHAR

STARTCHAR 316a
ENCODING 12650
SWIDTH 960 0
DWIDTH 12 0
BBX 12 12 0 -2
BITMAP
0400
1440
2480
0600
1980
6440
1400
1440
2680
0900
3080
C060
ENDCHAR

STARTCHAR 316b
ENCODING 12651
SWIDTH 960 0
DWIDTH 12 0
BBX 12 12 0 -2
BITMAP
2080
20E0
2320
6840
B080
A5E0
2520
2520
55E0
4D20
8520
05E0
ENDCHAR

STARTCHAR 316c
ENCODING 12652
SWIDTH 960 0
DWIDTH 12 0
BBX 12 12 0 -2
BITMAP
2000
2FE0
2280
6FE0
BAA0
AAA0
2FE0
2100
57C0
4900
8100
0FE0
ENDCHAR

STARTCHAR 316d
ENCODING 12653
SWIDTH 960 0
DWIDTH 12 0
BBX 12 12 0 -2
BITMAP
0A00
FFE0
0A00
2E80
20E0
EE80
2AA0
EEA0
2060
2A40
4920
8920
ENDCHAR

STARTCHAR 316e
ENCODING 12654
SWIDTH 960 0
DWIDTH 12 0
BBX 12 12 0 -2
BITMAP
9100
6FE0
4100
BFF0
27C0
2440
67C0
A320
2520
3CC0
2540
CE20
ENDCHAR

STARTCHAR 316f
ENCODING 12655
SWIDTH 960 0
DWIDTH 12 0
BBX 12 12 0 -2
BITMAP
2780
2080
D780
5080
27E0
5320
FD40
2280
B5C0
AAA0
A480
2180
ENDCHAR

STARTCHAR 3170
ENCODING 12656
SWIDTH 960 0
DWIDTH 12 0
BBX 12 12 0 -2
BITMAP
2880
FEE0
AB40
FFE0
AAA0
FEA0
7BE0
4A00
7A00
5220
3E20
E1E0
ENDCHAR

STARTCHAR 3171
ENCODING 12657
SWIDTH 960 0
DWIDTH 12 0
BBX 12 12 0 -2
BITMAP
1100
FFE0
1100
2000
3BC0
2A40
4A40
6A40
9B80
1220
2220
41E0
ENDCHAR

STARTCHAR 3172
ENCODING 12658
SWIDTH 960 0
DWIDTH 12 0
BBX 12 12 0 -2
BITMAP
1100
FFE0
1100
7FE0
4F20
7FE0
50A0
5FA0
4AA0
7920
4CA0
7FE0
ENDCHAR

STARTCHAR 3173
ENCODING 12659
SWIDTH 960 0
DWIDTH 12 0
BBX 12 12 0 -2
BITMAP
0200
4FC0
2200
1FE0
0FC0
E840
2FC0
2740
2A80
3260
5B00
87F0
ENDCHAR

STARTCHAR 3174
ENCODING 12660
SWIDTH 960 0
DWIDTH 12 0
BBX 12 12 0 -2
BITMAP
2280
2280
5280
4C40
F840
2020
FFC0
2440
B440
6440
3C40
E7C0
ENDCHAR

STARTCHAR 3175
ENCODING 12661
SWIDTH 960 0
DWIDTH 12 0
BBX 12 12 0 -2
BITMAP
1DE0
2520
D560
3900
E4E0
3F80
2080
3FC0
2000
3FE0
5520
A4C0
ENDCHAR

STARTCHAR 3176
ENCODING 12662
SWIDTH 960 0
DWIDTH 12 0
BBX 12 12 0 -2
BITMAP
2400
27E0
2800
F7C0
2440
27C0
2000
7FE0
CAA0
0AA0
0AA0
3FF0
ENDCHAR

STARTCHAR 3177
ENCODING 12663
SWIDTH 960 0
DWIDTH 12 0
BBX 12 12 0 -2
BITMAP
2100
2100
FA80
2280
2440
3920
2880
2A00
4900
4880
8840
3040
ENDCHAR

STARTCHAR 3178
ENCODING 12664
SWIDTH 960 0
DWIDTH 12 0
BBX 12 12 0 -2
BITMAP
4000
2FC0
0200
8200
5FE0
0400
07C0
2840
4840
4040
8040
8180
ENDCHAR

STARTCHAR 3179
ENCODING 12665
SWIDTH 960 0
DWIDTH 12 0
BBX 12 12 0 -2
BITMAP
1000
57E0
5520
7FE0
9520
17E0
7900
17E0
1120
3A20
C220
0CC0
ENDCHAR

STARTCHAR 317a
ENCODING 12666
SWIDTH 960 0
DWIDTH 12 0
BBX 12 12 0 -2
BITMAP
0000
F1E0
9120
9120
9120
9120
9F20
8020
8020
8020
FFE0
0000
ENDCHAR

STARTCHAR 317b
ENCODING 12667
SWIDTH 960 0
DWIDTH 12 0
BBX 12 12 0 -2
BITMAP
0400
0400
3F80
2480
2480
2480
FFE0
0C00
0A00
1100
2080
C060
ENDCHAR

STARTCHAR 317c
ENCODING 12668
SWIDTH 960 0
DWIDTH 12 0
BBX 12 12 0 -2
BITMAP
0800
1000
7FC0
5540
4E40
7FC0
5540
64C0
FFE0
0A00
3180
C060
ENDCHAR

STARTCHAR 317d
ENCODING 12669
SWIDTH 960 0
DWIDTH 12 0
BBX 12 12 0 -2
BITMAP
2200
2100
5FE0
5100
9100
2100
27C0
6100
A100
2100
2100
2FE0
ENDCHAR

STARTCHAR 317e
ENCODING 12670
SWIDTH 960 0
DWIDTH 12 0
BBX 12 12 0 -2
BITMAP
0400
0400
7FE0
4200
4100
4500
5440
5420
5420
A480
A480
0380
ENDCHAR

STARTCHAR 3221
ENCODING 12833
SWIDTH 960 0
DWIDTH 12 0
BBX 12 12 0 -2
BITMAP
2000
2FE0
2920
F920
2FE0
2920
3920
EFE0
2100
2100
2100
6100
ENDCHAR

STARTCHAR 3222
ENCODING 12834
SWIDTH 960 0
DWIDTH 12 0
BBX 12 12 0 -2
BITMAP
0000
FFE0
9100
9100
9100
F100
9FC0
9100
9100
F100
0100
1FE0
ENDCHAR

STARTCHAR 3223
ENCODING 12835
SWIDTH 960 0
DWIDTH 12 0
BBX 12 12 0 -2
BITMAP
2240
27E0
F240
2FF0
2100
67E0
7520
6FE0
A520
A7E0
2240
2C20
ENDCHAR

STARTCHAR 3224
ENCODING 12836
SWIDTH 960 0
DWIDTH 12 0
BBX 12 12 0 -2
BITMAP
0200
FA00
8200
CBE0
AAA0
94C0
9480
A880
C980
8140
FA40
0C20
ENDCHAR

STARTCHAR 3225
ENCODING 12837
SWIDTH 960 0
DWIDTH 12 0
BBX 12 12 0 -2
BITMAP
0380
FA80
8280
CAA0
AC60
93C0
9040
AA40
C980
8080
FB40
0C20
ENDCHAR

STARTCHAR 3226
ENCODING 12838
SWIDTH 960 0
DWIDTH 12 0
BBX 12 12 0 -2
BITMAP
0000
7FC0
0400
0400
0400
0400
3F80
0400
0400
0400
0400
FFE0
ENDCHAR

STARTCHAR 3227
ENCODING 12839
SWIDTH 960 0
DWIDTH 12 0
BBX 12 12 0 -2
BITMAP
0900
1480
2440
C930
3F80
0040
FFE0
4920
28A0
38E0
CB20
1860
ENDCHAR

STARTCHAR 3228
ENCODING 12840
SWIDTH 960 0
DWIDTH 12 0
BBX 12 12 0 -2
BITMAP
2100
27E0
F6E0
15A0
17E0
25A0
6EE0
B4A0
2880
27F0
2140
2E30
ENDCHAR

STARTCHAR 3229
ENCODING 12841
SWIDTH 960 0
DWIDTH 12 0
BBX 12 12 0 -2
BITMAP
2880
1500
FFE0
8820
3F00
2100
3FE0
2000
3FC0
1540
4A40
8180
ENDCHAR

STARTCHAR 322a
ENCODING 12842
SWIDTH 960 0
DWIDTH 12 0
BBX 12 12 0 -2
BITMAP
0100
FBC0
8240
8BC0
CA40
B3E0
9200
ABE0
C960
82A0
FC20
80C0
ENDCHAR

STARTCHAR 322b
ENCODING 12843
SWIDTH 960 0
DWIDTH 12 0
BBX 12 12 0 -2
BITMAP
1100
7FC0
1100
FFE0
0400
3F80
2480
3F80
2480
3F80
1180
E060
ENDCHAR

STARTCHAR 322c
ENCODING 12844
SWIDTH 960 0
DWIDTH 12 0
BBX 12 12 0 -2
BITMAP
0000
FFE0
9120
8920
8A20
FFE0
8420
A4A0
A4A0
BFA0
8020
8060
ENDCHAR

STARTCHAR 322d
ENCODING 12845
SWIDTH 960 0
DWIDTH 12 0
BBX 12 12 0 -2
BITMAP
4100
2100
0FE0
8920
4920
0920
0FE0
2100
4100
4100
8100
8100
ENDCHAR

STARTCHAR 322e
ENCODING 12846
SWIDTH 960 0
DWIDTH 12 0
BBX 12 12 0 -2
BITMAP
1100
FFE0
1100
1100
A140
4540
A580
3500
5300
9280
1440
6820
ENDCHAR

STARTCHAR 322f
ENCODING 12847
SWIDTH 960 0
DWIDTH 12 0
BBX 12 12 0 -2
BITMAP
2100
2FC0
2480
3FE0
4840
4FC0
C840
4FC0
5600
5540
64A0
4380
ENDCHAR

STARTCHAR 3230
ENCODING 12848
SWIDTH 960 0
DWIDTH 12 0
BBX 12 12 0 -2
BITMAP
3FC0
2040
3FC0
2000
3FE0
2500
28C0
3F20
4200
5FC0
8200
7FE0
ENDCHAR

STARTCHAR 3231
ENCODING 12849
SWIDTH 960 0
DWIDTH 12 0
BBX 12 12 0 -2
BITMAP
2200
2FC0
2480
3FE0
6840
6FC0
A840
2FC0
2500
2D40
34A0
23A0
ENDCHAR

STARTCHAR 3232
ENCODING 12850
SWIDTH 960 0
DWIDTH 12 0
BBX 12 12 0 -2
BITMAP
0100
EFC0
A480
BFE0
E840
AFC0
A840
EFC0
A500
AD40
B4A0
A3A0
ENDCHAR

STARTCHAR 3233
ENCODING 12851
SWIDTH 960 0
DWIDTH 12 0
BBX 12 12 0 -2
BITMAP
2FC0
2480
2300
FFE0
2920
6920
7FE0
6920
AFE0
A920
2920
2960
ENDCHAR

STARTCHAR 3234
ENCODING 12852
SWIDTH 960 0
DWIDTH 12 0
BBX 12 12 0 -2
BITMAP
1100
5100
5100
7900
97E0
1100
1900
F100
1100
1100
1100
1FF0
ENDCHAR

STARTCHAR 3235
ENCODING 12853
SWIDTH 960 0
DWIDTH 12 0
BBX 12 12 0 -2
BITMAP
0000
3F80
0080
0100
0200
0400
0800
1000
2000
4020
4020
3FE0
ENDCHAR

STARTCHAR 3236
ENCODING 12854
SWIDTH 960 0
DWIDTH 12 0
BBX 12 12 0 -2
BITMAP
2200
2200
3FE0
4500
CAC0
5FA0
6A80
4F80
4A80
4F80
4220
41E0
ENDCHAR

STARTCHAR 3237
ENCODING 12855
SWIDTH 960 0
DWIDTH 12 0
BBX 12 12 0 -2
BITMAP
2000
3DE0
5120
9120
7F20
1120
5D20
5120
51C0
5D00
E100
0100
ENDCHAR

STARTCHAR 3238
ENCODING 12856
SWIDTH 960 0
DWIDTH 12 0
BBX 12 12 0 -2
BITMAP
0000
7FC0
4440
7FC0
4A40
71C0
7FC0
1400
5240
5220
90A0
0F80
ENDCHAR

STARTCHAR 3239
ENCODING 12857
SWIDTH 960 0
DWIDTH 12 0
BBX 12 12 0 -2
BITMAP
4000
2F80
0880
8F80
4880
0F80
0000
3FC0
5540
5540
9540
BFE0
ENDCHAR

STARTCHAR 323a
ENCODING 12858
SWIDTH 960 0
DWIDTH 12 0
BBX 12 12 0 -2
BITMAP
31E0
EE40
2940
2580
FFC0
2040
77C0
6040
AFC0
AB40
2AA0
29E0
ENDCHAR

STARTCHAR 323b
ENCODING 12859
SWIDTH 960 0
DWIDTH 12 0
BBX 12 12 0 -2
BITMAP
0400
7FC0
1100
0A00
FFE0
0000
1F80
1080
1F80
1080
1080
1F80
ENDCHAR

STARTCHAR 323c
ENCODING 12860
SWIDTH 960 0
DWIDTH 12 0
BBX 12 12 0 -2
BITMAP
0000
FFE0
0400
0400
0700
0480
0440
0400
0400
0400
0400
0400
ENDCHAR

STARTCHAR 323d
ENCODING 12861
SWIDTH 960 0
DWIDTH 12 0
BBX 12 12 0 -2
BITMAP
1200
1200
1240
2240
2280
6300
A200
2200
2200
2220
2220
21E0
ENDCHAR

STARTCHAR 323e
ENCODING 12862
SWIDTH 960 0
DWIDTH 12 0
BBX 12 12 0 -2
BITMAP
1000
17E0
1400
2400
27C0
6640
A540
2580
2880
2980
3240
2C20
ENDCHAR

STARTCHAR 323f
ENCODING 12863
SWIDTH 960 0
DWIDTH 12 0
BBX 12 12 0 -2
BITMAP
1000
1FF0
1040
2040
2F40
6940
A940
2940
2F40
2040
2040
20C0
ENDCHAR

STARTCHAR 3240
ENCODING 12864
SWIDTH 960 0
DWIDTH 12 0
BBX 12 12 0 -2
BITMAP
2800
2800
28E0
5EA0
4AA0
CAA0
4AA0
4AA0
52A0
52A0
62E0
4C00
ENDCHAR

STARTCHAR 3241
ENCODING 12865
SWIDTH 960 0
DWIDTH 12 0
BBX 12 12 0 -2
BITMAP
1000
1FE0
1280
2280
2FE0
6AA0
AAA0
2AA0
2AA0
2AA0
2FE0
2800
ENDCHAR

STARTCHAR 3242
ENCODING 12866
SWIDTH 960 0
DWIDTH 12 0
BBX 12 12 0 -2
BITMAP
2200
2200
3FC0
4200
4200
DFE0
4200
4200
5FC0
4200
4200
7FE0
ENDCHAR

STARTCHAR 3243
ENCODING 12867
SWIDTH 960 0
DWIDTH 12 0
BBX 12 12 0 -2
BITMAP
2000
2000
21E0
FD20
2520
2520
2520
2520
2520
4520
45E0
9800
ENDCHAR

STARTCHAR 3244
ENCODING 12868
SWIDTH 960 0
DWIDTH 12 0
BBX 12 12 0 -2
BITMAP
0000
FFE0
0080
3E80
2280
2280
2280
3E80
2080
0080
0080
0180
ENDCHAR

STARTCHAR 3245
ENCODING 12869
SWIDTH 960 0
DWIDTH 12 0
BBX 12 12 0 -2
BITMAP
0400
FFE0
0400
3F80
2080
7FC0
0900
FFE0
1000
FBE0
2A20
DBE0
ENDCHAR

STARTCHAR 3246
ENCODING 12870
SWIDTH 960 0
DWIDTH 12 0
BBX 12 12 0 -2
BITMAP
0000
FFE0
0800
3F80
2080
3F80
2080
3F80
1F00
7100
0E00
F1E0
ENDCHAR

STARTCHAR 3247
ENCODING 12871
SWIDTH 960 0
DWIDTH 12 0
BBX 12 12 0 -2
BITMAP
4100
4FE0
5820
F7C0
5100
5F20
52C0
9D80
F2C0
2CA0
4080
8300
ENDCHAR

STARTCHAR 3248
ENCODING 12872
SWIDTH 960 0
DWIDTH 12 0
BBX 12 12 0 -2
BITMAP
0400
FFE0
8020
BFA0
0800
1540
6B40
1680
6A80
1240
6220
0C00
ENDCHAR

STARTCHAR 3249
ENCODING 12873
SWIDTH 960 0
DWIDTH 12 0
BBX 12 12 0 -2
BITMAP
0400
FFE0
8820
9F20
1100
1F00
1100
FFE0
28C0
DFB0
0880
3300
ENDCHAR

STARTCHAR 324a
ENCODING 12874
SWIDTH 960 0
DWIDTH 12 0
BBX 12 12 0 -2
BITMAP
1840
E240
2140
2040
FA40
3140
6840
60F0
A740
2040
2040
2040
ENDCHAR

STARTCHAR 324b
ENCODING 12875
SWIDTH 960 0
DWIDTH 12 0
BBX 12 12 0 -2
BITMAP
0EE0
EA20
AA20
AEE0
A800
E9E0
AE20
A8A0
A840
EE40
08A0
0910
ENDCHAR

STARTCHAR 324c
ENCODING 12876
SWIDTH 960 0
DWIDTH 12 0
BBX 12 12 0 -2
BITMAP
0000
3FC0
2440
3FC0
2440
3FC0
0400
7FE0
0E00
3580
C460
0400
ENDCHAR

STARTCHAR 324d
ENCODING 12877
SWIDTH 960 0
DWIDTH 12 0
BBX 12 12 0 -2
BITMAP
2000
FBC0
2A40
2A40
4A40
B3C0
0400
FFE0
0E00
3580
C460
0400
ENDCHAR

STARTCHAR 324e
ENCODING 12878
SWIDTH 960 0
DWIDTH 12 0
BBX 12 12 0 -2
BITMAP
0100
FD00
E9E0
AAA0
EAC0
0C80
F880
0980
E940
AA40
EC20
1810
ENDCHAR

STARTCHAR 324f
ENCODING 12879
SWIDTH 960 0
DWIDTH 12 0
BBX 12 12 0 -2
BITMAP
4000
2FE0
0040
8040
4F40
0940
0940
2F40
4040
4040
8040
80C0
ENDCHAR

STARTCHAR 3250
ENCODING 12880
SWIDTH 960 0
DWIDTH 12 0
BBX 12 12 0 -2
BITMAP
0400
0400
0440
2440
2480
4500
4400
0600
0A00
0900
3080
C060
ENDCHAR

STARTCHAR 3251
ENCODING 12881
SWIDTH 960 0
DWIDTH 12 0
BBX 12 12 0 -2
BITMAP
0000
0FE0
F040
2740
2540
2540
F540
2740
2040
3040
C040
00C0
ENDCHAR

STARTCHAR 3252
ENCODING 12882
SWIDTH 960 0
DWIDTH 12 0
BBX 12 12 0 -2
BITMAP
27C0
2440
F5C0
1540
2540
2FE0
7820
ABA0
2AA0
2AA0
2BA0
2860
ENDCHAR

STARTCHAR 3253
ENCODING 12883
SWIDTH 960 0
DWIDTH 12 0
BBX 12 12 0 -2
BITMAP
0180
7E00
0400
0400
FFE0
0400
0E00
1500
2480
C460
0400
0400
ENDCHAR

STARTCHAR 3254
ENCODING 12884
SWIDTH 960 0
DWIDTH 12 0
BBX 12 12 0 -2
BITMAP
3100
EFE0
2820
2FC0
FA00
3320
6D40
B380
AD40
3120
2100
2600
ENDCHAR

STARTCHAR 3255
ENCODING 12885
SWIDTH 960 0
DWIDTH 12 0
BBX 12 12 0 -2
BITMAP
2100
7BE0
9480
7FE0
4420
5FA0
4420
5FA0
50A0
5FA0
4020
7FE0
ENDCHAR

STARTCHAR 3256
ENCODING 12886
SWIDTH 960 0
DWIDTH 12 0
BBX 12 12 0 -2
BITMAP
1100
1100
FFE0
1900
0A00
1220
32C0
5300
9200
1220
1220
11E0
ENDCHAR

STARTCHAR 3257
ENCODING 12887
SWIDTH 960 0
DWIDTH 12 0
BBX 12 12 0 -2
BITMAP
1100
FFE0
1100
0000
FFE0
0080
3E80
2280
2280
3E80
0080
0180
ENDCHAR

STARTCHAR 3258
ENCODING 12888
SWIDTH 960 0
DWIDTH 12 0
BBX 12 12 0 -2
BITMAP
1100
FFE0
1100
2100
21E0
FD20
2520
2520
2520
4520
45E0
9800
ENDCHAR

STARTCHAR 3259
ENCODING 12889
SWIDTH 960 0
DWIDTH 12 0
BBX 12 12 0 -2
BITMAP
1100
FFE0
0900
2000
3FE0
4080
5E80
D280
5280
5E80
4080
4180
ENDCHAR

STARTCHAR 325a
ENCODING 12890
SWIDTH 960 0
DWIDTH 12 0
BBX 12 12 0 -2
BITMAP
1100
FFE0
1100
7FC0
2480
FFE0
2480
7FC0
0400
FFE0
0400
0400
ENDCHAR

STARTCHAR 325b
ENCODING 12891
SWIDTH 960 0
DWIDTH 12 0
BBX 12 12 0 -2
BITMAP
1100
FFE0
1100
3F80
2480
3F80
2480
FFE0
0E00
3580
C460
0400
ENDCHAR

STARTCHAR 325c
ENCODING 12892
SWIDTH 960 0
DWIDTH 12 0
BBX 12 12 0 -2
BITMAP
2000
27E0
2520
FF60
AC00
ACE0
FF20
24A0
3440
2F40
3CA0
C520
ENDCHAR

STARTCHAR 325d
ENCODING 12893
SWIDTH 960 0
DWIDTH 12 0
BBX 12 12 0 -2
BITMAP
77E0
0520
F7E0
0520
7520
07E0
7100
0FE0
F380
9540
9920
F100
ENDCHAR

STARTCHAR 325e
ENCODING 12894
SWIDTH 960 0
DWIDTH 12 0
BBX 12 12 0 -2
BITMAP
0880
3FE0
E880
BFC0
AA80
BFE0
AA80
BFC0
E200
3FE0
0200
0200
ENDCHAR

STARTCHAR 325f
ENCODING 12895
SWIDTH 960 0
DWIDTH 12 0
BBX 12 12 0 -2
BITMAP
0A60
3380
D220
3FE0
2080
3F80
2080
3F80
2080
3F80
3180
C040
ENDCHAR

STARTCHAR 3260
ENCODING 12896
SWIDTH 960 0
DWIDTH 12 0
BBX 12 12 0 -2
BITMAP
0800
48E0
3EA0
0AA0
0AA0
EAA0
2AA0
2AA0
2AE0
3600
5800
87F0
ENDCHAR

STARTCHAR 3261
ENCODING 12897
SWIDTH 960 0
DWIDTH 12 0
BBX 12 12 0 -2
BITMAP
07C0
4440
25C0
0540
0FE0
E820
2BA0
2AA0
2BA0
2860
5800
87F0
ENDCHAR

STARTCHAR 3262
ENCODING 12898
SWIDTH 960 0
DWIDTH 12 0
BBX 12 12 0 -2
BITMAP
7FC0
0400
FFE0
8420
B5A0
0000
7BC0
4840
7BC0
4140
7880
4360
ENDCHAR

STARTCHAR 3263
ENCODING 12899
SWIDTH 960 0
DWIDTH 12 0
BBX 12 12 0 -2
BITMAP
2100
2100
2FE0
FA40
AA40
AA80
F980
3100
2980
3A80
C440
0820
ENDCHAR

STARTCHAR 3264
ENCODING 12900
SWIDTH 960 0
DWIDTH 12 0
BBX 12 12 0 -2
BITMAP
2500
3940
2920
2900
7FE0
4900
CD40
4940
5880
69A0
4A60
5820
ENDCHAR

STARTCHAR 3265
ENCODING 12901
SWIDTH 960 0
DWIDTH 12 0
BBX 12 12 0 -2
BITMAP
0280
2CC0
24A0
2480
2FE0
AC80
AEA0
ACA0
AC40
FCC0
0560
0C20
ENDCHAR

STARTCHAR 3266
ENCODING 12902
SWIDTH 960 0
DWIDTH 12 0
BBX 12 12 0 -2
BITMAP
0A00
7280
1240
1200
FFE0
1240
1240
1D40
F180
12A0
1460
3020
ENDCHAR

STARTCHAR 3267
ENCODING 12903
SWIDTH 960 0
DWIDTH 12 0
BBX 12 12 0 -2
BITMAP
0000
1FC0
1100
1100
1100
FFE0
0300
0500
0900
3100
C100
0300
ENDCHAR

STARTCHAR 3268
ENCODING 12904
SWIDTH 960 0
DWIDTH 12 0
BBX 12 12 0 -2
BITMAP
0000
FFE0
0400
3F80
A4A0
A4A0
BFA0
A4A0
A4A0
BFA0
8020
FFE0
ENDCHAR

STARTCHAR 3269
ENCODING 12905
SWIDTH 960 0
DWIDTH 12 0
BBX 12 12 0 -2
BITMAP
0080
FC80
9080
9080
FC80
8480
FC80
9140
9140
9140
FE20
0410
ENDCHAR

STARTCHAR 326a
ENCODING 12906
SWIDTH 960 0
DWIDTH 12 0
BBX 12 12 0 -2
BITMAP
1100
FFE0
1100
7FE0
2100
2100
FFE0
0500
0900
3100
C100
0300
ENDCHAR

STARTCHAR 326b
ENCODING 12907
SWIDTH 960 0
DWIDTH 12 0
BBX 12 12 0 -2
BITMAP
0280
2CC0
24A0
FC80
AFE0
AC80
FEA0
24A0
2C40
3CC0
C560
0C20
ENDCHAR

STARTCHAR 326c
ENCODING 12908
SWIDTH 960 0
DWIDTH 12 0
BBX 12 12 0 -2
BITMAP
2000
FBE0
2A20
4A20
9BE0
3F80
2080
3F80
2080
3F80
1100
E0C0
ENDCHAR

STARTCHAR 326d
ENCODING 12909
SWIDTH 960 0
DWIDTH 12 0
BBX 12 12 0 -2
BITMAP
0240
FA80
57E0
5480
FC80
17C0
3480
3480
57C0
9480
1480
37E0
ENDCHAR

STARTCHAR 326e
ENCODING 12910
SWIDTH 960 0
DWIDTH 12 0
BBX 12 12 0 -2
BITMAP
2280
34C0
4CA0
F480
5FE0
7480
56A0
7CA0
4440
54C0
5D60
EC20
ENDCHAR

STARTCHAR 326f
ENCODING 12911
SWIDTH 960 0
DWIDTH 12 0
BBX 12 12 0 -2
BITMAP
2000
FBE0
2A20
4BE0
9800
3FC0
2400
3F80
2400
3FE0
4AA0
90C0
ENDCHAR

STARTCHAR 3270
ENCODING 12912
SWIDTH 960 0
DWIDTH 12 0
BBX 12 12 0 -2
BITMAP
0400
0400
0A00
1100
2080
D160
1100
1100
1100
2100
2100
4100
ENDCHAR

STARTCHAR 3271
ENCODING 12913
SWIDTH 960 0
DWIDTH 12 0
BBX 12 12 0 -2
BITMAP
0400
0400
0A00
1100
3F80
C060
0000
7FC0
0A00
1300
7C80
0080
ENDCHAR

STARTCHAR 3272
ENCODING 12914
SWIDTH 960 0
DWIDTH 12 0
BBX 12 12 0 -2
BITMAP
2000
3FE0
4920
9220
7CC0
55E0
7E80
5480
7FF0
4480
4480
8C80
ENDCHAR

STARTCHAR 3273
ENCODING 12915
SWIDTH 960 0
DWIDTH 12 0
BBX 12 12 0 -2
BITMAP
0000
7FE0
4020
4020
4F20
4920
4920
4F20
4020
4020
7FE0
0000
ENDCHAR

STARTCHAR 3274
ENCODING 12916
SWIDTH 960 0
DWIDTH 12 0
BBX 12 12 0 -2
BITMAP
2100
2200
2FC0
F940
2FC0
2940
2FC0
2340
3BA0
C5E0
0920
30E0
ENDCHAR

STARTCHAR 3275
ENCODING 12917
SWIDTH 960 0
DWIDTH 12 0
BBX 12 12 0 -2
BITMAP
0100
2FE0
2100
2FE0
FAA0
2FE0
2100
3FF0
2D40
D480
2740
0C20
ENDCHAR

STARTCHAR 3276
ENCODING 12918
SWIDTH 960 0
DWIDTH 12 0
BBX 12 12 0 -2
BITMAP
0000
EFE0
2820
2BA0
4AA0
EAA0
2BA0
A820
6FE0
2000
5800
87E0
ENDCHAR

STARTCHAR 3277
ENCODING 12919
SWIDTH 960 0
DWIDTH 12 0
BBX 12 12 0 -2
BITMAP
2200
2200
2FC0
2240
7240
6FE0
A200
2300
2300
2480
2840
3020
ENDCHAR

STARTCHAR 3278
ENCODING 12920
SWIDTH 960 0
DWIDTH 12 0
BBX 12 12 0 -2
BITMAP
2FC0
2440
2280
2100
7280
6C60
A100
2100
2FC0
2100
2100
3FE0
ENDCHAR

STARTCHAR 3279
ENCODING 12921
SWIDTH 960 0
DWIDTH 12 0
BBX 12 12 0 -2
BITMAP
2200
23E0
2400
2FC0
6540
7540
A7E0
2940
2940
2FE0
2040
2180
ENDCHAR

STARTCHAR 327a
ENCODING 12922
SWIDTH 960 0
DWIDTH 12 0
BBX 12 12 0 -2
BITMAP
2000
27E0
2480
24A0
65A0
75C0
6E80
A480
2880
2940
3640
3820
ENDCHAR

STARTCHAR 327b
ENCODING 12923
SWIDTH 960 0
DWIDTH 12 0
BBX 12 12 0 -2
BITMAP
2100
2FE0
2100
3FE0
6AA0
6FE0
A100
3FF0
2540
2C80
3740
2C20
ENDCHAR

STARTCHAR 327c
ENCODING 12924
SWIDTH 960 0
DWIDTH 12 0
BBX 12 12 0 -2
BITMAP
0280
0240
FFE0
0200
2A40
2A40
FE80
2980
2900
4AA0
8C60
0820
ENDCHAR

STARTCHAR 327d
ENCODING 12925
SWIDTH 960 0
DWIDTH 12 0
BBX 12 12 0 -2
BITMAP
2000
27E0
2420
F420
27E0
2000
3FE0
E120
2120
2220
2420
68C0
ENDCHAR

STARTCHAR 327e
ENCODING 12926
SWIDTH 960 0
DWIDTH 12 0
BBX 12 12 0 -2
BITMAP
0200
FA00
0BE0
0A40
FC40
8640
8A80
8100
8980
7A80
0440
1820
ENDCHAR

STARTCHAR 3321
ENCODING 13089
SWIDTH 960 0
DWIDTH 12 0
BBX 12 12 0 -2
BITMAP
2040
4040
F940
AA40
F940
AA40
F860
37C0
3A40
5E40
5120
8FE0
ENDCHAR

STARTCHAR 3322
ENCODING 13090
SWIDTH 960 0
DWIDTH 12 0
BBX 12 12 0 -2
BITMAP
0400
E7E0
A400
AFC0
B540
E540
BFE0
A940
A940
EFE0
0040
0180
ENDCHAR

STARTCHAR 3323
ENCODING 13091
SWIDTH 960 0
DWIDTH 12 0
BBX 12 12 0 -2
BITMAP
2060
2050
2FF0
F040
2540
7540
6FD0
6550
A520
A960
3090
2110
ENDCHAR

STARTCHAR 3324
ENCODING 13092
SWIDTH 960 0
DWIDTH 12 0
BBX 12 12 0 -2
BITMAP
4400
27E0
0400
8FC0
5540
0540
07E0
2940
4940
4FE0
8040
8180
ENDCHAR

STARTCHAR 3325
ENCODING 13093
SWIDTH 960 0
DWIDTH 12 0
BBX 12 12 0 -2
BITMAP
0000
3FE0
2200
2240
2A40
2A40
3280
2200
4500
4500
8880
3060
ENDCHAR

STARTCHAR 3326
ENCODING 13094
SWIDTH 960 0
DWIDTH 12 0
BBX 12 12 0 -2
BITMAP
0000
3FC0
2440
3FC0
2440
3FC0
0A00
3180
C960
0900
1100
2100
ENDCHAR

STARTCHAR 3327
ENCODING 13095
SWIDTH 960 0
DWIDTH 12 0
BBX 12 12 0 -2
BITMAP
4200
4260
7B80
4200
5A20
E5E0
0800
3F80
2080
3F80
2080
3F80
ENDCHAR

STARTCHAR 3328
ENCODING 13096
SWIDTH 960 0
DWIDTH 12 0
BBX 12 12 0 -2
BITMAP
2100
2100
D280
5440
2BA0
5000
FFE0
2200
B280
A480
AF40
2040
ENDCHAR

STARTCHAR 3329
ENCODING 13097
SWIDTH 960 0
DWIDTH 12 0
BBX 12 12 0 -2
BITMAP
1080
FFE0
1100
1500
0A00
1100
2980
C960
0900
1100
1100
2100
ENDCHAR

STARTCHAR 332a
ENCODING 13098
SWIDTH 960 0
DWIDTH 12 0
BBX 12 12 0 -2
BITMAP
3BE0
D0A0
7D40
57E0
7C80
47E0
8C80
3F80
2480
3F80
04C0
FF20
ENDCHAR

STARTCHAR 332b
ENCODING 13099
SWIDTH 960 0
DWIDTH 12 0
BBX 12 12 0 -2
BITMAP
FBE0
8A20
FBE0
8A20
FBE0
8020
BFA0
8A20
BFA0
9220
A220
8260
ENDCHAR

STARTCHAR 332c
ENCODING 13100
SWIDTH 960 0
DWIDTH 12 0
BBX 12 12 0 -2
BITMAP
0900
E920
AFC0
A900
C920
ACE0
B200
AFC0
E840
8FC0
8840
8FC0
ENDCHAR

STARTCHAR 332d
ENCODING 13101
SWIDTH 960 0
DWIDTH 12 0
BBX 12 12 0 -2
BITMAP
0000
3F80
2080
2080
3F80
2080
3F80
2080
2080
3F80
1B00
60C0
ENDCHAR

STARTCHAR 332e
ENCODING 13102
SWIDTH 960 0
DWIDTH 12 0
BBX 12 12 0 -2
BITMAP
2000
ABC0
FA40
0240
FA40
0240
FA40
8A40
FA40
5240
7C40
C870
ENDCHAR

STARTCHAR 332f
ENCODING 13103
SWIDTH 960 0
DWIDTH 12 0
BBX 12 12 0 -2
BITMAP
1100
1100
FD00
27E0
5120
D120
2920
4920
9220
2A20
4420
88C0
ENDCHAR

STARTCHAR 3330
ENCODING 13104
SWIDTH 960 0
DWIDTH 12 0
BBX 12 12 0 -2
BITMAP
2100
2100
3D00
2500
4500
6580
9940
0920
1100
1100
2100
4100
ENDCHAR

STARTCHAR 3331
ENCODING 13105
SWIDTH 960 0
DWIDTH 12 0
BBX 12 12 0 -2
BITMAP
0100
0100
FFE0
9100
9240
9680
9100
9240
9C80
F380
0640
1820
ENDCHAR

STARTCHAR 3332
ENCODING 13106
SWIDTH 960 0
DWIDTH 12 0
BBX 12 12 0 -2
BITMAP
0400
FFE0
8420
BFA0
0400
3F80
0400
7FC0
0000
3F80
2080
3F80
ENDCHAR

STARTCHAR 3333
ENCODING 13107
SWIDTH 960 0
DWIDTH 12 0
BBX 12 12 0 -2
BITMAP
4440
7FC0
0000
7FE0
4200
5FC0
4200
7FE0
4200
5FC0
8200
3FE0
ENDCHAR

STARTCHAR 3334
ENCODING 13108
SWIDTH 960 0
DWIDTH 12 0
BBX 12 12 0 -2
BITMAP
2000
2EE0
2AA0
2EA0
7AA0
6BF0
AE40
2C40
2AC0
2ED0
3950
2230
ENDCHAR

STARTCHAR 3335
ENCODING 13109
SWIDTH 960 0
DWIDTH 12 0
BBX 12 12 0 -2
BITMAP
2000
2EE0
2AA0
FEA0
2AA0
6BF0
7E40
6C40
AAC0
AED0
2950
2230
ENDCHAR

STARTCHAR 3336
ENCODING 13110
SWIDTH 960 0
DWIDTH 12 0
BBX 12 12 0 -2
BITMAP
4000
3FE0
1100
97C0
5100
1FE0
1100
3100
57C0
5100
9100
AFE0
ENDCHAR

STARTCHAR 3337
ENCODING 13111
SWIDTH 960 0
DWIDTH 12 0
BBX 12 12 0 -2
BITMAP
0000
F7C0
2440
27C0
4440
7FE0
D040
5FE0
5240
5140
7040
00C0
ENDCHAR

STARTCHAR 3338
ENCODING 13112
SWIDTH 960 0
DWIDTH 12 0
BBX 12 12 0 -2
BITMAP
1100
FFE0
1100
0400
7FC0
0400
FFE0
1080
7FC0
2AA0
2A80
FFE0
ENDCHAR

STARTCHAR 3339
ENCODING 13113
SWIDTH 960 0
DWIDTH 12 0
BBX 12 12 0 -2
BITMAP
2400
25E0
5E00
A5E0
2440
5F40
4440
DF40
4440
4740
5840
40C0
ENDCHAR

STARTCHAR 333a
ENCODING 13114
SWIDTH 960 0
DWIDTH 12 0
BBX 12 12 0 -2
BITMAP
3880
0080
FFE0
0100
7140
0240
7580
0120
7A40
4C80
4940
7E20
ENDCHAR

STARTCHAR 333b
ENCODING 13115
SWIDTH 960 0
DWIDTH 12 0
BBX 12 12 0 -2
BITMAP
2540
3540
4FC0
8800
FFE0
2000
7FC0
2440
AFC0
7440
3A80
C7E0
ENDCHAR

STARTCHAR 333c
ENCODING 13116
SWIDTH 960 0
DWIDTH 12 0
BBX 12 12 0 -2
BITMAP
7880
4880
5FE0
FD00
8500
7A40
4D80
7920
4A40
7C80
4940
5E20
ENDCHAR

STARTCHAR 333d
ENCODING 13117
SWIDTH 960 0
DWIDTH 12 0
BBX 12 12 0 -2
BITMAP
4000
3FC0
1240
9FC0
5240
1240
1FC0
2200
5FC0
4200
8200
BFE0
ENDCHAR

STARTCHAR 333e
ENCODING 13118
SWIDTH 960 0
DWIDTH 12 0
BBX 12 12 0 -2
BITMAP
7DC0
1140
FF20
55C0
7D40
9E80
8560
FFE0
1480
3FC0
D0A0
1F80
ENDCHAR

STARTCHAR 333f
ENCODING 13119
SWIDTH 960 0
DWIDTH 12 0
BBX 12 12 0 -2
BITMAP
2100
2100
27C0
F900
A900
AFE0
F900
2100
37C0
2900
3900
C7E0
ENDCHAR

STARTCHAR 3340
ENCODING 13120
SWIDTH 960 0
DWIDTH 12 0
BBX 12 12 0 -2
BITMAP
0FE0
2000
27C0
2440
FC40
27C0
2440
2C40
37C0
E000
0000
1FE0
ENDCHAR

STARTCHAR 3341
ENCODING 13121
SWIDTH 960 0
DWIDTH 12 0
BBX 12 12 0 -2
BITMAP
2100
2100
2FE0
F100
27E0
6520
7520
6D20
A520
A560
2100
2100
ENDCHAR

STARTCHAR 3342
ENCODING 13122
SWIDTH 960 0
DWIDTH 12 0
BBX 12 12 0 -2
BITMAP
2000
23E0
2200
FBE0
AA80
AA80
FAE0
32A0
2B20
3D20
CA20
04C0
ENDCHAR

STARTCHAR 3343
ENCODING 13123
SWIDTH 960 0
DWIDTH 12 0
BBX 12 12 0 -2
BITMAP
2100
2100
51E0
4A20
FB20
2520
F920
22A0
B3A0
68A0
3020
C0C0
ENDCHAR

STARTCHAR 3344
ENCODING 13124
SWIDTH 960 0
DWIDTH 12 0
BBX 12 12 0 -2
BITMAP
1020
7D20
1520
FF20
1520
FF20
5520
7D20
5520
7C20
1E20
E060
ENDCHAR

STARTCHAR 3345
ENCODING 13125
SWIDTH 960 0
DWIDTH 12 0
BBX 12 12 0 -2
BITMAP
0440
E440
AEE0
A440
BFF0
A540
AD60
AFE0
F7D0
9550
2550
0640
ENDCHAR

STARTCHAR 3346
ENCODING 13126
SWIDTH 960 0
DWIDTH 12 0
BBX 12 12 0 -2
BITMAP
0800
0F80
1080
2900
4600
0900
1080
3FC0
D0A0
1080
1080
1F80
ENDCHAR

STARTCHAR 3347
ENCODING 13127
SWIDTH 960 0
DWIDTH 12 0
BBX 12 12 0 -2
BITMAP
0400
7FE0
4800
7FE0
5D20
5540
5D80
7D60
4920
BF20
89C0
1900
ENDCHAR

STARTCHAR 3348
ENCODING 13128
SWIDTH 960 0
DWIDTH 12 0
BBX 12 12 0 -2
BITMAP
2100
2100
2FE0
F800
2900
2900
3900
EA80
2A40
2AE0
3720
6020
ENDCHAR

STARTCHAR 3349
ENCODING 13129
SWIDTH 960 0
DWIDTH 12 0
BBX 12 12 0 -2
BITMAP
2A20
2540
2FE0
F820
27C0
2440
37C0
E440
27C0
2280
24A0
6860
ENDCHAR

STARTCHAR 334a
ENCODING 13130
SWIDTH 960 0
DWIDTH 12 0
BBX 12 12 0 -2
BITMAP
2200
23C0
2240
F640
2980
6140
7220
6FD0
A240
A240
2240
23C0
ENDCHAR

STARTCHAR 334b
ENCODING 13131
SWIDTH 960 0
DWIDTH 12 0
BBX 12 12 0 -2
BITMAP
2100
2100
2FE0
F200
2280
7680
6900
6240
AC80
A180
2240
2C20
ENDCHAR

STARTCHAR 334c
ENCODING 13132
SWIDTH 960 0
DWIDTH 12 0
BBX 12 12 0 -2
BITMAP
2380
FA80
2280
7AA0
0460
F800
8BC0
7040
5280
5900
5280
8C40
ENDCHAR

STARTCHAR 334d
ENCODING 13133
SWIDTH 960 0
DWIDTH 12 0
BBX 12 12 0 -2
BITMAP
9480
7FE0
4500
A880
2FE0
3900
6FE0
A900
2FE0
2480
C300
5CE0
ENDCHAR

STARTCHAR 334e
ENCODING 13134
SWIDTH 960 0
DWIDTH 12 0
BBX 12 12 0 -2
BITMAP
0100
FFE0
2A20
2280
47E0
7C80
D7C0
5480
57C0
5480
7480
07E0
ENDCHAR

STARTCHAR 334f
ENCODING 13135
SWIDTH 960 0
DWIDTH 12 0
BBX 12 12 0 -2
BITMAP
3280
EFE0
2280
F500
27E0
6D00
77C0
6500
AFE0
A480
2300
2CE0
ENDCHAR

STARTCHAR 3350
ENCODING 13136
SWIDTH 960 0
DWIDTH 12 0
BBX 12 12 0 -2
BITMAP
2880
1500
FFE0
A0A0
BFA0
2080
3F80
2080
3F80
0A00
3220
C1E0
ENDCHAR

STARTCHAR 3351
ENCODING 13137
SWIDTH 960 0
DWIDTH 12 0
BBX 12 12 0 -2
BITMAP
0800
1F00
2200
FFC0
2440
3FC0
2440
3FC0
2040
2040
2040
40C0
ENDCHAR

STARTCHAR 3352
ENCODING 13138
SWIDTH 960 0
DWIDTH 12 0
BBX 12 12 0 -2
BITMAP
1100
1100
7FC0
1100
FFE0
2A80
2A80
6EC0
AAA0
2A80
4C80
4C80
ENDCHAR

STARTCHAR 3353
ENCODING 13139
SWIDTH 960 0
DWIDTH 12 0
BBX 12 12 0 -2
BITMAP
2100
F100
2FE0
FA80
AC40
F8A0
AC80
FA80
2100
FA80
2440
2820
ENDCHAR

STARTCHAR 3354
ENCODING 13140
SWIDTH 960 0
DWIDTH 12 0
BBX 12 12 0 -2
BITMAP
1000
FFC0
7D40
4540
7D80
0140
7D20
0920
FD20
11C0
1100
3100
ENDCHAR

STARTCHAR 3355
ENCODING 13141
SWIDTH 960 0
DWIDTH 12 0
BBX 12 12 0 -2
BITMAP
FBE0
8A20
FBE0
8A20
FFE0
9220
AC20
9220
BF20
D2A0
9E20
8060
ENDCHAR

STARTCHAR 3356
ENCODING 13142
SWIDTH 960 0
DWIDTH 12 0
BBX 12 12 0 -2
BITMAP
EFE0
A000
AFC0
C840
AFC0
A000
AFE0
AAA0
ECE0
8BA0
8920
8960
ENDCHAR

STARTCHAR 3357
ENCODING 13143
SWIDTH 960 0
DWIDTH 12 0
BBX 12 12 0 -2
BITMAP
1100
FFE0
1100
1F00
0400
7FC0
4440
7FC0
0400
FFE0
0400
0400
ENDCHAR

STARTCHAR 3358
ENCODING 13144
SWIDTH 960 0
DWIDTH 12 0
BBX 12 12 0 -2
BITMAP
2440
1280
FFE0
8020
9F20
0200
0400
7FE0
0400
0400
0400
0C00
ENDCHAR

STARTCHAR 3359
ENCODING 13145
SWIDTH 960 0
DWIDTH 12 0
BBX 12 12 0 -2
BITMAP
0180
3E00
2000
3FC0
2100
2100
FFE0
0400
4440
4440
4440
7FC0
ENDCHAR

STARTCHAR 335a
ENCODING 13146
SWIDTH 960 0
DWIDTH 12 0
BBX 12 12 0 -2
BITMAP
0800
9F20
5140
1F00
31C0
DF20
0400
FFE0
0E00
3580
C460
0400
ENDCHAR

STARTCHAR 335b
ENCODING 13147
SWIDTH 960 0
DWIDTH 12 0
BBX 12 12 0 -2
BITMAP
1000
FFE0
8500
7BE0
4A20
53E0
B220
4BE0
FE20
4BE0
4940
7A20
ENDCHAR

STARTCHAR 335c
ENCODING 13148
SWIDTH 960 0
DWIDTH 12 0
BBX 12 12 0 -2
BITMAP
0000
FFE0
A900
FBE0
0220
7BE0
0220
FFE0
2220
7BE0
0920
3610
ENDCHAR

STARTCHAR 335d
ENCODING 13149
SWIDTH 960 0
DWIDTH 12 0
BBX 12 12 0 -2
BITMAP
2240
2240
2F40
F240
2FC0
2260
3250
EF50
2240
2340
2C40
6040
ENDCHAR

STARTCHAR 335e
ENCODING 13150
SWIDTH 960 0
DWIDTH 12 0
BBX 12 12 0 -2
BITMAP
4200
4200
7BE0
5480
8900
0400
FFE0
0100
2100
1100
1200
FFE0
ENDCHAR

STARTCHAR 335f
ENCODING 13151
SWIDTH 960 0
DWIDTH 12 0
BBX 12 12 0 -2
BITMAP
2FE0
2AA0
2FA0
F940
2F40
6AA0
7F20
6100
A7C0
A100
2100
2FE0
ENDCHAR

STARTCHAR 3360
ENCODING 13152
SWIDTH 960 0
DWIDTH 12 0
BBX 12 12 0 -2
BITMAP
2000
2FE0
2540
F7C0
2540
77C0
6800
6FE0
A540
A7C0
2540
2FE0
ENDCHAR

STARTCHAR 3361
ENCODING 13153
SWIDTH 960 0
DWIDTH 12 0
BBX 12 12 0 -2
BITMAP
2000
27E0
2420
F7E0
2400
67E0
7480
6FE0
A480
27D0
2890
2870
ENDCHAR

STARTCHAR 3362
ENCODING 13154
SWIDTH 960 0
DWIDTH 12 0
BBX 12 12 0 -2
BITMAP
21C0
3E40
5240
FA50
AF60
FAE0
AF40
FA40
12A0
6AA0
5320
8A10
ENDCHAR

STARTCHAR 3363
ENCODING 13155
SWIDTH 960 0
DWIDTH 12 0
BBX 12 12 0 -2
BITMAP
4200
2CC0
0840
0EC0
8840
4FC0
0400
27E0
4820
5520
84A0
80C0
ENDCHAR

STARTCHAR 3364
ENCODING 13156
SWIDTH 960 0
DWIDTH 12 0
BBX 12 12 0 -2
BITMAP
1020
FF20
9320
7D20
1120
7D20
1120
FF20
0120
7C20
4420
7C60
ENDCHAR

STARTCHAR 3365
ENCODING 13157
SWIDTH 960 0
DWIDTH 12 0
BBX 12 12 0 -2
BITMAP
0FC0
E840
AFC0
A840
AFC0
A400
A7E0
E920
1E20
28A0
07A0
00C0
ENDCHAR

STARTCHAR 3366
ENCODING 13158
SWIDTH 960 0
DWIDTH 12 0
BBX 12 12 0 -2
BITMAP
2100
2100
2280
2280
7440
6BA0
B000
27C0
2440
2440
2440
27C0
ENDCHAR

STARTCHAR 3367
ENCODING 13159
SWIDTH 960 0
DWIDTH 12 0
BBX 12 12 0 -2
BITMAP
20C0
2F00
2100
F100
2FE0
2100
3100
E7C0
2440
2440
2440
67C0
ENDCHAR

STARTCHAR 3368
ENCODING 13160
SWIDTH 960 0
DWIDTH 12 0
BBX 12 12 0 -2
BITMAP
40C0
2F00
0200
8200
5FE0
0200
0200
2FC0
4840
4840
8840
8FC0
ENDCHAR

STARTCHAR 3369
ENCODING 13161
SWIDTH 960 0
DWIDTH 12 0
BBX 12 12 0 -2
BITMAP
4FC0
2840
0FC0
8840
4FC0
0400
0FE0
34A0
4720
44A0
83A0
80C0
ENDCHAR

STARTCHAR 336a
ENCODING 13162
SWIDTH 960 0
DWIDTH 12 0
BBX 12 12 0 -2
BITMAP
47C0
2440
05C0
8540
5FF0
1450
17D0
2440
47C0
4440
8440
84C0
ENDCHAR

STARTCHAR 336b
ENCODING 13163
SWIDTH 960 0
DWIDTH 12 0
BBX 12 12 0 -2
BITMAP
1100
FFE0
1100
3F80
2080
3F80
2080
3FE0
3320
DCA0
0FA0
00C0
ENDCHAR

STARTCHAR 336c
ENCODING 13164
SWIDTH 960 0
DWIDTH 12 0
BBX 12 12 0 -2
BITMAP
27C0
2440
F7C0
1440
27C0
2A00
77E0
ACA0
3720
24A0
23A0
20C0
ENDCHAR

STARTCHAR 336d
ENCODING 13165
SWIDTH 960 0
DWIDTH 12 0
BBX 12 12 0 -2
BITMAP
2100
FFE0
2920
FFC0
A900
FFC0
A900
FFE0
2000
FFC0
2440
27C0
ENDCHAR

STARTCHAR 336e
ENCODING 13166
SWIDTH 960 0
DWIDTH 12 0
BBX 12 12 0 -2
BITMAP
0000
1F80
1080
1080
1F80
1080
1080
1F80
1080
1080
1080
7FE0
ENDCHAR

STARTCHAR 336f
ENCODING 13167
SWIDTH 960 0
DWIDTH 12 0
BBX 12 12 0 -2
BITMAP
2000
37E0
54A0
FFA0
AF40
FCA0
AF10
F880
13E0
6880
5080
87F0
ENDCHAR

STARTCHAR 3370
ENCODING 13168
SWIDTH 960 0
DWIDTH 12 0
BBX 12 12 0 -2
BITMAP
0100
0100
F100
9100
9FE0
9100
9100
9100
9100
F100
0100
0100
ENDCHAR

STARTCHAR 3371
ENCODING 13169
SWIDTH 960 0
DWIDTH 12 0
BBX 12 12 0 -2
BITMAP
2480
3FE0
2480
F200
2300
6520
6DC0
7500
A500
A500
2520
24E0
ENDCHAR

STARTCHAR 3372
ENCODING 13170
SWIDTH 960 0
DWIDTH 12 0
BBX 12 12 0 -2
BITMAP
2480
2FE0
2480
FFE0
2540
6FE0
7540
6FE0
A100
AFE0
2100
2100
ENDCHAR

STARTCHAR 3373
ENCODING 13171
SWIDTH 960 0
DWIDTH 12 0
BBX 12 12 0 -2
BITMAP
5200
FA00
53E0
7420
2BA0
F8A0
A8A0
FBA0
22C0
FA00
2220
21E0
ENDCHAR

STARTCHAR 3374
ENCODING 13172
SWIDTH 960 0
DWIDTH 12 0
BBX 12 12 0 -2
BITMAP
2100
2500
27C0
FD00
2900
6FE0
7100
6B80
A380
A540
2920
2100
ENDCHAR

STARTCHAR 3375
ENCODING 13173
SWIDTH 960 0
DWIDTH 12 0
BBX 12 12 0 -2
BITMAP
1400
6FC0
4A40
4E40
4A40
7BC0
4E40
0000
0A00
1220
2220
C1E0
ENDCHAR

STARTCHAR 3376
ENCODING 13174
SWIDTH 960 0
DWIDTH 12 0
BBX 12 12 0 -2
BITMAP
0400
FFE0
9520
6EC0
0400
7FC0
2480
7FC0
4440
7FC0
0420
03E0
ENDCHAR

STARTCHAR 3377
ENCODING 13175
SWIDTH 960 0
DWIDTH 12 0
BBX 12 12 0 -2
BITMAP
1100
FFE0
1280
4FC0
2200
8FC0
4A40
0FC0
2A40
4FC0
4A40
8AC0
ENDCHAR

STARTCHAR 3378
ENCODING 13176
SWIDTH 960 0
DWIDTH 12 0
BBX 12 12 0 -2
BITMAP
0A00
1100
2A80
C460
1B00
E0E0
3F80
0400
7FC0
2480
1500
FFE0
ENDCHAR

STARTCHAR 3379
ENCODING 13177
SWIDTH 960 0
DWIDTH 12 0
BBX 12 12 0 -2
BITMAP
2280
27E0
5280
4FE0
FAA0
27E0
FAA0
27E0
B280
66C0
3AA0
C280
ENDCHAR

STARTCHAR 337a
ENCODING 13178
SWIDTH 960 0
DWIDTH 12 0
BBX 12 12 0 -2
BITMAP
0100
05E0
E500
BFF0
A920
AD60
ABA0
AFE0
E920
8BA0
0D60
0FE0
ENDCHAR

STARTCHAR 337b
ENCODING 13179
SWIDTH 960 0
DWIDTH 12 0
BBX 12 12 0 -2
BITMAP
0100
FBC0
AA40
ABC0
FA00
ABE0
AA00
FBE0
2020
2560
2520
28C0
ENDCHAR

STARTCHAR 337c
ENCODING 13180
SWIDTH 960 0
DWIDTH 12 0
BBX 12 12 0 -2
BITMAP
2000
2FE0
2100
F200
27C0
6440
7440
67C0
A440
A440
2440
27C0
ENDCHAR

STARTCHAR 337d
ENCODING 13181
SWIDTH 960 0
DWIDTH 12 0
BBX 12 12 0 -2
BITMAP
1100
FFE0
1100
7F80
1100
0A00
FFE0
0C40
1480
2400
C400
0C00
ENDCHAR

STARTCHAR 337e
ENCODING 13182
SWIDTH 960 0
DWIDTH 12 0
BBX 12 12 0 -2
BITMAP
1100
FFE0
1500
FFE0
8020
7FC0
2080
3F80
2080
3F80
0000
FFE0
ENDCHAR

STARTCHAR 3421
ENCODING 13345
SWIDTH 960 0
DWIDTH 12 0
BBX 12 12 0 -2
BITMAP
0400
F5E0
2D20
2620
FFE0
8480
EEE0
2E20
3520
2420
2420
C4C0
ENDCHAR

STARTCHAR 3422
ENCODING 13346
SWIDTH 960 0
DWIDTH 12 0
BBX 12 12 0 -2
BITMAP
0020
0520
0520
0520
C920
2920
1120
1920
2520
2420
4020
8060
ENDCHAR

STARTCHAR 3423
ENCODING 13347
SWIDTH 960 0
DWIDTH 12 0
BBX 12 12 0 -2
BITMAP
1100
FFE0
1100
0840
0A40
CA40
2A40
1240
1240
2A40
4840
80C0
ENDCHAR

STARTCHAR 3424
ENCODING 13348
SWIDTH 960 0
DWIDTH 12 0
BBX 12 12 0 -2
BITMAP
0000
FFC0
1000
1000
1F00
1100
1900
1500
2120
2720
3920
C0E0
ENDCHAR

STARTCHAR 3425
ENCODING 13349
SWIDTH 960 0
DWIDTH 12 0
BBX 12 12 0 -2
BITMAP
2200
FA00
23E0
FC00
8BC0
F840
8880
F900
2200
FC20
2420
23E0
ENDCHAR

STARTCHAR 3426
ENCODING 13350
SWIDTH 960 0
DWIDTH 12 0
BBX 12 12 0 -2
BITMAP
1000
1FC0
1840
2840
2840
6FC0
A000
2A80
2A80
2AA0
32A0
2060
ENDCHAR

STARTCHAR 3427
ENCODING 13351
SWIDTH 960 0
DWIDTH 12 0
BBX 12 12 0 -2
BITMAP
0000
FFE0
80A0
FCA0
03E0
FC80
2A80
2A80
2880
49A0
4820
87E0
ENDCHAR

STARTCHAR 3428
ENCODING 13352
SWIDTH 960 0
DWIDTH 12 0
BBX 12 12 0 -2
BITMAP
0400
FFE0
9220
FFA0
1200
7F80
1200
FFC0
2900
4480
9860
0600
ENDCHAR

STARTCHAR 3429
ENCODING 13353
SWIDTH 960 0
DWIDTH 12 0
BBX 12 12 0 -2
BITMAP
0020
7D20
1120
1120
1120
FD20
1120
1120
1120
1020
1020
1060
ENDCHAR

STARTCHAR 342a
ENCODING 13354
SWIDTH 960 0
DWIDTH 12 0
BBX 12 12 0 -2
BITMAP
4900
FD00
4900
7FE0
4920
7920
4920
FD20
A920
CD20
8220
7CC0
ENDCHAR

STARTCHAR 342b
ENCODING 13355
SWIDTH 960 0
DWIDTH 12 0
BBX 12 12 0 -2
BITMAP
4100
7D00
4900
7FE0
9120
7D20
D120
7D20
5120
7D20
5220
7CC0
ENDCHAR

STARTCHAR 342c
ENCODING 13356
SWIDTH 960 0
DWIDTH 12 0
BBX 12 12 0 -2
BITMAP
0400
2480
1500
7FC0
0A00
FFE0
1100
3F80
C160
1F00
1040
0FC0
ENDCHAR

STARTCHAR 342d
ENCODING 13357
SWIDTH 960 0
DWIDTH 12 0
BBX 12 12 0 -2
BITMAP
0200
03C0
E480
AFE0
AAA0
AAA0
ACE0
A920
FFF0
0280
0460
1810
ENDCHAR

STARTCHAR 342e
ENCODING 13358
SWIDTH 960 0
DWIDTH 12 0
BBX 12 12 0 -2
BITMAP
0440
2FE0
2440
27C0
F440
27C0
2440
3FE0
2A80
CEC0
0800
07E0
ENDCHAR

STARTCHAR 342f
ENCODING 13359
SWIDTH 960 0
DWIDTH 12 0
BBX 12 12 0 -2
BITMAP
0400
7FC0
0900
1A00
0600
3980
1080
FFE0
2940
6B40
3180
CE60
ENDCHAR

STARTCHAR 3430
ENCODING 13360
SWIDTH 960 0
DWIDTH 12 0
BBX 12 12 0 -2
BITMAP
0400
FFE0
8020
9F20
0000
0000
FFE0
0A00
0A00
1220
2220
C1E0
ENDCHAR

STARTCHAR 3431
ENCODING 13361
SWIDTH 960 0
DWIDTH 12 0
BBX 12 12 0 -2
BITMAP
0400
FFE0
8020
9F20
1100
1100
1F00
1000
1F80
1080
1080
1F80
ENDCHAR

STARTCHAR 3432
ENCODING 13362
SWIDTH 960 0
DWIDTH 12 0
BBX 12 12 0 -2
BITMAP
0400
FFE0
9120
7FC0
1100
3F80
2080
3F80
2080
3F80
1A20
E1E0
ENDCHAR

STARTCHAR 3433
ENCODING 13363
SWIDTH 960 0
DWIDTH 12 0
BBX 12 12 0 -2
BITMAP
0000
7FC0
0400
0400
0400
FFE0
0400
0400
0400
0400
0400
0400
ENDCHAR

STARTCHAR 3434
ENCODING 13364
SWIDTH 960 0
DWIDTH 12 0
BBX 12 12 0 -2
BITMAP
2080
F880
2140
FA20
8FD0
F880
8880
FFE0
2080
F880
2080
2080
ENDCHAR

STARTCHAR 3435
ENCODING 13365
SWIDTH 960 0
DWIDTH 12 0
BBX 12 12 0 -2
BITMAP
0400
3F80
2480
3F80
0400
7FC0
4440
7FC0
0400
5240
90A0
0F80
ENDCHAR

STARTCHAR 3436
ENCODING 13366
SWIDTH 960 0
DWIDTH 12 0
BBX 12 12 0 -2
BITMAP
0240
7FE0
4200
7D40
4140
7CA0
A560
3E20
0400
5240
90A0
0F80
ENDCHAR

STARTCHAR 3437
ENCODING 13367
SWIDTH 960 0
DWIDTH 12 0
BBX 12 12 0 -2
BITMAP
23E0
22A0
2FE0
7540
6FC0
A7E0
A420
27E0
2420
27E0
2240
2C20
ENDCHAR

STARTCHAR 3438
ENCODING 13368
SWIDTH 960 0
DWIDTH 12 0
BBX 12 12 0 -2
BITMAP
40A0
4FE0
6880
5FA0
CE40
CAC0
DF60
6220
4500
54A0
6420
43E0
ENDCHAR

STARTCHAR 3439
ENCODING 13369
SWIDTH 960 0
DWIDTH 12 0
BBX 12 12 0 -2
BITMAP
2200
23C0
2480
FFE0
2AA0
2AA0
3CE0
E920
3FF0
2180
2240
6C30
ENDCHAR

STARTCHAR 343a
ENCODING 13370
SWIDTH 960 0
DWIDTH 12 0
BBX 12 12 0 -2
BITMAP
0100
7D00
11E0
FE40
4A40
7C40
4940
7940
4C80
7980
CA40
0C20
ENDCHAR

STARTCHAR 343b
ENCODING 13371
SWIDTH 960 0
DWIDTH 12 0
BBX 12 12 0 -2
BITMAP
2440
2440
2FE0
FC40
2440
6440
77C0
6C40
A440
A440
2440
27C0
ENDCHAR

STARTCHAR 343c
ENCODING 13372
SWIDTH 960 0
DWIDTH 12 0
BBX 12 12 0 -2
BITMAP
2000
2FE0
2000
F7C0
2440
6440
77C0
6C40
A440
A7C0
2000
2FE0
ENDCHAR

STARTCHAR 343d
ENCODING 13373
SWIDTH 960 0
DWIDTH 12 0
BBX 12 12 0 -2
BITMAP
2100
2FE0
2820
FFE0
2440
6440
77C0
6C00
A7E0
A420
2420
27E0
ENDCHAR

STARTCHAR 343e
ENCODING 13374
SWIDTH 960 0
DWIDTH 12 0
BBX 12 12 0 -2
BITMAP
2200
FA00
2200
7BE0
0520
7540
0100
F900
3280
AA80
A440
6820
ENDCHAR

STARTCHAR 343f
ENCODING 13375
SWIDTH 960 0
DWIDTH 12 0
BBX 12 12 0 -2
BITMAP
4100
7D00
5100
7DE0
AAA0
7CC0
5080
FC80
5180
7D40
5240
7C20
ENDCHAR

STARTCHAR 3440
ENCODING 13376
SWIDTH 960 0
DWIDTH 12 0
BBX 12 12 0 -2
BITMAP
4000
3FC0
0200
8200
4200
3FE0
0200
2200
4200
4200
8200
8200
ENDCHAR

STARTCHAR 3441
ENCODING 13377
SWIDTH 960 0
DWIDTH 12 0
BBX 12 12 0 -2
BITMAP
8900
7FE0
0900
1FC0
9240
5FC0
0200
3FC0
4200
5FC0
8580
B860
ENDCHAR

STARTCHAR 3442
ENCODING 13378
SWIDTH 960 0
DWIDTH 12 0
BBX 12 12 0 -2
BITMAP
5DE0
3520
1DE0
9520
5DE0
1020
17A0
34A0
57A0
54A0
97A0
9060
ENDCHAR

STARTCHAR 3443
ENCODING 13379
SWIDTH 960 0
DWIDTH 12 0
BBX 12 12 0 -2
BITMAP
4800
2FC0
1200
AFE0
4500
0FE0
1900
2FC0
4900
4FC0
8900
8FE0
ENDCHAR

STARTCHAR 3444
ENCODING 13380
SWIDTH 960 0
DWIDTH 12 0
BBX 12 12 0 -2
BITMAP
1FC0
F540
3FC0
2000
FFE0
2840
2FC0
3640
CD80
1480
2460
0400
ENDCHAR

STARTCHAR 3445
ENCODING 13381
SWIDTH 960 0
DWIDTH 12 0
BBX 12 12 0 -2
BITMAP
1080
1080
1080
FFE0
1080
1080
1F80
1080
1080
1080
1080
1F80
ENDCHAR

STARTCHAR 3446
ENCODING 13382
SWIDTH 960 0
DWIDTH 12 0
BBX 12 12 0 -2
BITMAP
FA00
A200
FBE0
8C00
F800
A3C0
F800
0000
7FC0
4A40
4A40
FFE0
ENDCHAR

STARTCHAR 3447
ENCODING 13383
SWIDTH 960 0
DWIDTH 12 0
BBX 12 12 0 -2
BITMAP
00C0
7F00
0800
FFE0
1000
FFE0
3080
5F80
9080
1F80
1080
1F80
ENDCHAR

STARTCHAR 3448
ENCODING 13384
SWIDTH 960 0
DWIDTH 12 0
BBX 12 12 0 -2
BITMAP
4200
7BE0
9480
2100
7FC0
0400
0400
FFE0
0400
0400
0400
0400
ENDCHAR

STARTCHAR 3449
ENCODING 13385
SWIDTH 960 0
DWIDTH 12 0
BBX 12 12 0 -2
BITMAP
4100
7DE0
9240
FFE0
8020
9F20
1100
1F00
1000
1F80
1080
1F80
ENDCHAR

STARTCHAR 344a
ENCODING 13386
SWIDTH 960 0
DWIDTH 12 0
BBX 12 12 0 -2
BITMAP
4100
7DF0
9240
7BE0
4A20
7BE0
4E20
79E0
4F20
4920
4F20
4060
ENDCHAR

STARTCHAR 344b
ENCODING 13387
SWIDTH 960 0
DWIDTH 12 0
BBX 12 12 0 -2
BITMAP
20C0
2740
D280
5FE0
2200
57E0
FA00
23C0
B540
A580
AA40
2420
ENDCHAR

STARTCHAR 344c
ENCODING 13388
SWIDTH 960 0
DWIDTH 12 0
BBX 12 12 0 -2
BITMAP
2000
2000
3FC0
4400
8400
FFE0
0400
4440
4440
4440
7FC0
4040
ENDCHAR

STARTCHAR 344d
ENCODING 13389
SWIDTH 960 0
DWIDTH 12 0
BBX 12 12 0 -2
BITMAP
2080
F940
2220
FC10
8FE0
F920
8DA0
FB60
2120
FB60
25A0
2120
ENDCHAR

STARTCHAR 344e
ENCODING 13390
SWIDTH 960 0
DWIDTH 12 0
BBX 12 12 0 -2
BITMAP
7BE0
4880
4880
4880
7FF0
4880
4880
7880
4880
4880
4880
9880
ENDCHAR

STARTCHAR 344f
ENCODING 13391
SWIDTH 960 0
DWIDTH 12 0
BBX 12 12 0 -2
BITMAP
4E80
E8E0
AE80
EB00
AE00
F8E0
AE00
E000
AFC0
A540
A540
AFE0
ENDCHAR

STARTCHAR 3450
ENCODING 13392
SWIDTH 960 0
DWIDTH 12 0
BBX 12 12 0 -2
BITMAP
1100
FFE0
1100
0400
FFE0
8020
3F80
0000
FFE0
0A00
3220
C1E0
ENDCHAR

STARTCHAR 3451
ENCODING 13393
SWIDTH 960 0
DWIDTH 12 0
BBX 12 12 0 -2
BITMAP
43E0
7E20
5220
7FE0
AA20
7FE0
5220
FFE0
5140
7D40
5250
7C30
ENDCHAR

STARTCHAR 3452
ENCODING 13394
SWIDTH 960 0
DWIDTH 12 0
BBX 12 12 0 -2
BITMAP
E100
0FE0
F100
0FC0
F940
0FC0
E940
0FC0
F380
9540
9920
F100
ENDCHAR

STARTCHAR 3453
ENCODING 13395
SWIDTH 960 0
DWIDTH 12 0
BBX 12 12 0 -2
BITMAP
0000
3F80
2480
FFE0
4900
7F80
2080
3F80
2080
3F80
1980
6060
ENDCHAR

STARTCHAR 3454
ENCODING 13396
SWIDTH 960 0
DWIDTH 12 0
BBX 12 12 0 -2
BITMAP
0FC0
4B40
3FE0
0000
0FC0
E840
2FC0
2720
2AC0
2260
5B00
87F0
ENDCHAR

STARTCHAR 3455
ENCODING 13397
SWIDTH 960 0
DWIDTH 12 0
BBX 12 12 0 -2
BITMAP
2740
2470
5740
4D80
FF00
2470
FF00
2000
B3E0
6AA0
32A0
C7F0
ENDCHAR

STARTCHAR 3456
ENCODING 13398
SWIDTH 960 0
DWIDTH 12 0
BBX 12 12 0 -2
BITMAP
FBE0
8A20
FBE0
8A20
FBE0
8020
9F20
9120
9F20
9120
9F20
8060
ENDCHAR

STARTCHAR 3457
ENCODING 13399
SWIDTH 960 0
DWIDTH 12 0
BBX 12 12 0 -2
BITMAP
FBE0
8A20
FBE0
8A20
FBE0
8420
BFA0
8420
8E20
9520
A4A0
8460
ENDCHAR

STARTCHAR 3458
ENCODING 13400
SWIDTH 960 0
DWIDTH 12 0
BBX 12 12 0 -2
BITMAP
FBE0
8A20
FBE0
8A20
FBE0
8A20
BFA0
8420
BFA0
8A20
9120
A060
ENDCHAR

STARTCHAR 3459
ENCODING 13401
SWIDTH 960 0
DWIDTH 12 0
BBX 12 12 0 -2
BITMAP
0200
E3C0
A440
A880
C100
ABE0
AA20
AA20
ABE0
CA20
8A20
8BE0
ENDCHAR

STARTCHAR 345a
ENCODING 13402
SWIDTH 960 0
DWIDTH 12 0
BBX 12 12 0 -2
BITMAP
2080
FBE0
20A0
FFF0
8A20
FBE0
8840
FBE0
2240
FFF0
2040
2040
ENDCHAR

STARTCHAR 345b
ENCODING 13403
SWIDTH 960 0
DWIDTH 12 0
BBX 12 12 0 -2
BITMAP
2100
27E0
5420
7BC0
CE40
7A40
4BC0
7A00
53E0
4A20
5620
E3E0
ENDCHAR

STARTCHAR 345c
ENCODING 13404
SWIDTH 960 0
DWIDTH 12 0
BBX 12 12 0 -2
BITMAP
2100
2FE0
5820
8BC0
FA40
2240
FBC0
2200
7BE0
4A20
4A20
7BE0
ENDCHAR

STARTCHAR 345d
ENCODING 13405
SWIDTH 960 0
DWIDTH 12 0
BBX 12 12 0 -2
BITMAP
1000
1000
1000
FF00
1100
1100
5100
3100
1900
2520
4520
80E0
ENDCHAR

STARTCHAR 345e
ENCODING 13406
SWIDTH 960 0
DWIDTH 12 0
BBX 12 12 0 -2
BITMAP
0400
0A00
1100
2E80
C060
7F80
0200
0400
3F80
2080
2080
3F80
ENDCHAR

STARTCHAR 345f
ENCODING 13407
SWIDTH 960 0
DWIDTH 12 0
BBX 12 12 0 -2
BITMAP
4440
4440
7FC0
0000
7FE0
4000
5FC0
4200
7FE0
4200
8200
0200
ENDCHAR

STARTCHAR 3460
ENCODING 13408
SWIDTH 960 0
DWIDTH 12 0
BBX 12 12 0 -2
BITMAP
4440
7FC0
0200
7FE0
5D00
49F0
7E20
56A0
5CC0
5440
BCA0
8720
ENDCHAR

STARTCHAR 3461
ENCODING 13409
SWIDTH 960 0
DWIDTH 12 0
BBX 12 12 0 -2
BITMAP
0000
0FC0
F000
2000
2000
FFE0
2500
2500
3500
C900
1120
20E0
ENDCHAR

STARTCHAR 3462
ENCODING 13410
SWIDTH 960 0
DWIDTH 12 0
BBX 12 12 0 -2
BITMAP
0200
3FE0
A780
6480
2780
6EE0
AAA0
2EE0
2100
5120
5120
9FE0
ENDCHAR

STARTCHAR 3463
ENCODING 13411
SWIDTH 960 0
DWIDTH 12 0
BBX 12 12 0 -2
BITMAP
0000
F7C0
9440
97C0
F440
9440
97C0
F420
9540
9480
F740
0C20
ENDCHAR

STARTCHAR 3464
ENCODING 13412
SWIDTH 960 0
DWIDTH 12 0
BBX 12 12 0 -2
BITMAP
0400
4440
4440
7FC0
0000
FFE0
1000
1000
3FC0
5040
9040
1FC0
ENDCHAR

STARTCHAR 3465
ENCODING 13413
SWIDTH 960 0
DWIDTH 12 0
BBX 12 12 0 -2
BITMAP
0000
FFC0
B400
6C00
B7E0
2680
2280
FA80
8A80
FA80
8AA0
FC60
ENDCHAR

STARTCHAR 3466
ENCODING 13414
SWIDTH 960 0
DWIDTH 12 0
BBX 12 12 0 -2
BITMAP
0000
7FE0
4A80
7FE0
5480
57E0
5F80
5080
9F80
9080
1F80
39C0
ENDCHAR

STARTCHAR 3467
ENCODING 13415
SWIDTH 960 0
DWIDTH 12 0
BBX 12 12 0 -2
BITMAP
0000
7FE0
4A40
4BE0
5680
5680
73E0
5280
53E0
9280
9280
13E0
ENDCHAR

STARTCHAR 3468
ENCODING 13416
SWIDTH 960 0
DWIDTH 12 0
BBX 12 12 0 -2
BITMAP
0000
07E0
F900
03E0
0220
FFE0
5220
57E0
5220
5BE0
5140
8620
ENDCHAR

STARTCHAR 3469
ENCODING 13417
SWIDTH 960 0
DWIDTH 12 0
BBX 12 12 0 -2
BITMAP
1000
FFE0
4900
33E0
7E20
4BE0
7220
4BE0
7220
8BE0
9140
6620
ENDCHAR

STARTCHAR 346a
ENCODING 13418
SWIDTH 960 0
DWIDTH 12 0
BBX 12 12 0 -2
BITMAP
0000
7FF0
4880
7DE0
6520
7DE0
6520
7DE0
5920
75E0
51A0
B610
ENDCHAR

STARTCHAR 346b
ENCODING 13419
SWIDTH 960 0
DWIDTH 12 0
BBX 12 12 0 -2
BITMAP
0400
0400
0A00
1100
2480
C460
0400
2780
2400
2400
2400
FFE0
ENDCHAR

STARTCHAR 346c
ENCODING 13420
SWIDTH 960 0
DWIDTH 12 0
BBX 12 12 0 -2
BITMAP
1100
1100
1FE0
2100
2100
6FE0
A040
2440
2280
2100
2680
3860
ENDCHAR

STARTCHAR 346d
ENCODING 13421
SWIDTH 960 0
DWIDTH 12 0
BBX 12 12 0 -2
BITMAP
0800
1F00
6200
0400
3FE0
2000
2F80
2880
4880
49A0
8820
07E0
ENDCHAR

STARTCHAR 346e
ENCODING 13422
SWIDTH 960 0
DWIDTH 12 0
BBX 12 12 0 -2
BITMAP
0400
FFE0
0400
7FC0
2080
3F80
1100
FFE0
0000
3F80
2080
3F80
ENDCHAR

STARTCHAR 346f
ENCODING 13423
SWIDTH 960 0
DWIDTH 12 0
BBX 12 12 0 -2
BITMAP
0000
7BC0
4A40
7BC0
0400
FFE0
0A00
3180
FBE0
4A40
4A40
7BC0
ENDCHAR

STARTCHAR 3470
ENCODING 13424
SWIDTH 960 0
DWIDTH 12 0
BBX 12 12 0 -2
BITMAP
1100
7FC0
1100
1F00
1100
1F00
1100
FFE0
2480
DF60
0400
7FC0
ENDCHAR

STARTCHAR 3471
ENCODING 13425
SWIDTH 960 0
DWIDTH 12 0
BBX 12 12 0 -2
BITMAP
0400
7FC0
0A00
1100
6080
FFE0
0080
3E80
2280
3E80
0080
0180
ENDCHAR

STARTCHAR 3472
ENCODING 13426
SWIDTH 960 0
DWIDTH 12 0
BBX 12 12 0 -2
BITMAP
4100
4FE0
5100
FFC0
5440
57C0
5280
9FE0
F000
2FC0
4440
87C0
ENDCHAR

STARTCHAR 3473
ENCODING 13427
SWIDTH 960 0
DWIDTH 12 0
BBX 12 12 0 -2
BITMAP
0400
FFE0
8420
7F80
0A00
3100
FFE0
0080
3E80
2280
3E80
0180
ENDCHAR

STARTCHAR 3474
ENCODING 13428
SWIDTH 960 0
DWIDTH 12 0
BBX 12 12 0 -2
BITMAP
0100
2100
2FE0
A900
A900
AFE0
AA40
AA40
A980
F880
0340
0C20
ENDCHAR

STARTCHAR 3475
ENCODING 13429
SWIDTH 960 0
DWIDTH 12 0
BBX 12 12 0 -2
BITMAP
1880
0700
7880
0800
FFE0
1200
3FC0
5240
9240
1380
1200
0200
ENDCHAR

STARTCHAR 3476
ENCODING 13430
SWIDTH 960 0
DWIDTH 12 0
BBX 12 12 0 -2
BITMAP
2480
5540
A680
5540
F5C0
1440
FFE0
2440
2280
5120
46A0
B860
ENDCHAR

STARTCHAR 3477
ENCODING 13431
SWIDTH 960 0
DWIDTH 12 0
BBX 12 12 0 -2
BITMAP
0000
3F80
0080
3F80
2000
2040
1FC0
0400
5240
5220
9090
0F80
ENDCHAR

STARTCHAR 3478
ENCODING 13432
SWIDTH 960 0
DWIDTH 12 0
BBX 12 12 0 -2
BITMAP
2000
2FE0
2920
F7C0
2100
2FE0
3920
EFE0
2100
2FF0
2100
6100
ENDCHAR

STARTCHAR 3479
ENCODING 13433
SWIDTH 960 0
DWIDTH 12 0
BBX 12 12 0 -2
BITMAP
2000
23C0
2240
FA40
2240
6240
7240
6A40
A240
A450
2450
2830
ENDCHAR

STARTCHAR 347a
ENCODING 13434
SWIDTH 960 0
DWIDTH 12 0
BBX 12 12 0 -2
BITMAP
2200
27E0
FA40
2FE0
2240
3BC0
2A40
2BC0
4A40
4FE0
8940
3620
ENDCHAR

STARTCHAR 347b
ENCODING 13435
SWIDTH 960 0
DWIDTH 12 0
BBX 12 12 0 -2
BITMAP
0000
7FE0
4A80
7A80
4A80
4FE0
7980
4180
5280
5AA0
64A0
8860
ENDCHAR

STARTCHAR 347c
ENCODING 13436
SWIDTH 960 0
DWIDTH 12 0
BBX 12 12 0 -2
BITMAP
2400
25E0
FF20
2520
3DE0
2520
3D20
25E0
FF20
2A20
4620
8460
ENDCHAR

STARTCHAR 347d
ENCODING 13437
SWIDTH 960 0
DWIDTH 12 0
BBX 12 12 0 -2
BITMAP
2440
2440
2FE0
F440
27C0
7440
6FC0
6440
AFE0
A280
2440
2840
ENDCHAR

STARTCHAR 347e
ENCODING 13438
SWIDTH 960 0
DWIDTH 12 0
BBX 12 12 0 -2
BITMAP
0400
FFE0
1900
7FC0
2480
FFE0
2480
FFE0
0E00
3580
C460
0400
ENDCHAR

STARTCHAR 3521
ENCODING 13601
SWIDTH 960 0
DWIDTH 12 0
BBX 12 12 0 -2
BITMAP
2240
2480
2FC0
F5A0
2FE0
6140
7FE0
6940
AD80
AAA0
3160
2620
ENDCHAR

STARTCHAR 3522
ENCODING 13602
SWIDTH 960 0
DWIDTH 12 0
BBX 12 12 0 -2
BITMAP
2F80
2080
AF80
A080
BFE0
B220
AFE0
2A40
2A40
4AC0
4200
8200
ENDCHAR

STARTCHAR 3523
ENCODING 13603
SWIDTH 960 0
DWIDTH 12 0
BBX 12 12 0 -2
BITMAP
2380
FA80
5280
54A0
F860
27C0
E840
3640
D980
3480
D140
3620
ENDCHAR

STARTCHAR 3524
ENCODING 13604
SWIDTH 960 0
DWIDTH 12 0
BBX 12 12 0 -2
BITMAP
2000
3FC0
2000
5F00
8000
7F80
0480
3480
0880
14A0
2060
C020
ENDCHAR

STARTCHAR 3525
ENCODING 13605
SWIDTH 960 0
DWIDTH 12 0
BBX 12 12 0 -2
BITMAP
5000
3FC0
1000
AF80
4000
1F80
0080
2080
40A0
40A0
8060
8020
ENDCHAR

STARTCHAR 3526
ENCODING 13606
SWIDTH 960 0
DWIDTH 12 0
BBX 12 12 0 -2
BITMAP
2480
5540
A680
5540
F5C0
1440
FFE0
7C40
5680
7D20
56A0
7C60
ENDCHAR

STARTCHAR 3527
ENCODING 13607
SWIDTH 960 0
DWIDTH 12 0
BBX 12 12 0 -2
BITMAP
2040
2780
F400
1400
17E0
2480
7480
AC80
2480
2880
2880
3080
ENDCHAR

STARTCHAR 3528
ENCODING 13608
SWIDTH 960 0
DWIDTH 12 0
BBX 12 12 0 -2
BITMAP
0380
7C00
0400
FFE0
0E00
3580
DF60
0200
7FC0
0400
0400
0C00
ENDCHAR

STARTCHAR 3529
ENCODING 13609
SWIDTH 960 0
DWIDTH 12 0
BBX 12 12 0 -2
BITMAP
1240
E180
2640
2FE0
F500
27C0
6D40
7540
A540
A5C0
2100
2100
ENDCHAR

STARTCHAR 352a
ENCODING 13610
SWIDTH 960 0
DWIDTH 12 0
BBX 12 12 0 -2
BITMAP
2000
27C0
D040
5040
2040
53C0
FA00
2200
B200
AA20
A220
21E0
ENDCHAR

STARTCHAR 352b
ENCODING 13611
SWIDTH 960 0
DWIDTH 12 0
BBX 12 12 0 -2
BITMAP
1540
5540
5F70
84A0
2B20
24A0
4AA0
DF40
4440
56C0
6520
4610
ENDCHAR

STARTCHAR 352c
ENCODING 13612
SWIDTH 960 0
DWIDTH 12 0
BBX 12 12 0 -2
BITMAP
27C0
2440
FC40
27C0
2440
FFC0
2440
27C0
3280
4A80
44A0
8860
ENDCHAR

STARTCHAR 352d
ENCODING 13613
SWIDTH 960 0
DWIDTH 12 0
BBX 12 12 0 -2
BITMAP
7000
07C0
F840
0040
7840
03C0
7A00
0200
FA00
8A20
8A20
F9E0
ENDCHAR

STARTCHAR 352e
ENCODING 13614
SWIDTH 960 0
DWIDTH 12 0
BBX 12 12 0 -2
BITMAP
0400
3F80
2480
FFE0
0000
3F80
2080
3F80
2080
3F80
1180
6040
ENDCHAR

STARTCHAR 352f
ENCODING 13615
SWIDTH 960 0
DWIDTH 12 0
BBX 12 12 0 -2
BITMAP
1000
13C0
7C40
1040
FFC0
1200
5200
5E20
7220
51E0
8C00
83F0
ENDCHAR

STARTCHAR 3530
ENCODING 13616
SWIDTH 960 0
DWIDTH 12 0
BBX 12 12 0 -2
BITMAP
2200
FA00
2200
FF80
AA80
FA80
AA80
FA80
2280
FCA0
24A0
2860
ENDCHAR

STARTCHAR 3531
ENCODING 13617
SWIDTH 960 0
DWIDTH 12 0
BBX 12 12 0 -2
BITMAP
27E0
A520
AFC0
7100
27E0
FD20
57E0
5520
5FE0
5100
8FE0
0100
ENDCHAR

STARTCHAR 3532
ENCODING 13618
SWIDTH 960 0
DWIDTH 12 0
BBX 12 12 0 -2
BITMAP
2000
3380
4A80
B680
4A80
7A80
4A80
7A80
5280
4AA0
54A0
E860
ENDCHAR

STARTCHAR 3533
ENCODING 13619
SWIDTH 960 0
DWIDTH 12 0
BBX 12 12 0 -2
BITMAP
0100
F7C0
A100
F280
A460
FFE0
A040
FF40
0D40
AF40
8840
30C0
ENDCHAR

STARTCHAR 3534
ENCODING 13620
SWIDTH 960 0
DWIDTH 12 0
BBX 12 12 0 -2
BITMAP
0400
0800
3F80
2480
3F80
2480
3F80
0A80
0B40
13C0
2220
C1E0
ENDCHAR

STARTCHAR 3535
ENCODING 13621
SWIDTH 960 0
DWIDTH 12 0
BBX 12 12 0 -2
BITMAP
0800
1F00
2200
FF80
2480
3F80
2480
7FC0
4440
7FC0
0420
03E0
ENDCHAR

STARTCHAR 3536
ENCODING 13622
SWIDTH 960 0
DWIDTH 12 0
BBX 12 12 0 -2
BITMAP
2900
2500
2200
5F80
4480
C7C0
4840
5FE0
6020
4AA0
5220
40C0
ENDCHAR

STARTCHAR 3537
ENCODING 13623
SWIDTH 960 0
DWIDTH 12 0
BBX 12 12 0 -2
BITMAP
2480
3FE0
2200
4FC0
4200
FFE0
4D40
5FE0
4540
5CA0
4560
4C20
ENDCHAR

STARTCHAR 3538
ENCODING 13624
SWIDTH 960 0
DWIDTH 12 0
BBX 12 12 0 -2
BITMAP
4100
4100
57E0
F900
5100
57C0
5040
9240
F180
2980
4240
8C20
ENDCHAR

STARTCHAR 3539
ENCODING 13625
SWIDTH 960 0
DWIDTH 12 0
BBX 12 12 0 -2
BITMAP
0400
FFE0
8020
9F20
1100
1100
1F00
1100
1F00
1100
1100
FFE0
ENDCHAR

STARTCHAR 353a
ENCODING 13626
SWIDTH 960 0
DWIDTH 12 0
BBX 12 12 0 -2
BITMAP
1D00
1140
7D20
5500
53E0
5D00
4120
54A0
74C0
56A0
9960
6220
ENDCHAR

STARTCHAR 353b
ENCODING 13627
SWIDTH 960 0
DWIDTH 12 0
BBX 12 12 0 -2
BITMAP
2100
2100
2FE0
F100
2100
2FC0
3040
E280
2180
2180
2240
6C20
ENDCHAR

STARTCHAR 353c
ENCODING 13628
SWIDTH 960 0
DWIDTH 12 0
BBX 12 12 0 -2
BITMAP
51E0
5E20
5140
F280
4FE0
50A0
5EC0
F480
5EE0
4680
4B80
D260
ENDCHAR

STARTCHAR 353d
ENCODING 13629
SWIDTH 960 0
DWIDTH 12 0
BBX 12 12 0 -2
BITMAP
4A00
4A00
FE00
4BE0
7D20
4D40
7900
4900
FD00
5280
4C40
9820
ENDCHAR

STARTCHAR 353e
ENCODING 13630
SWIDTH 960 0
DWIDTH 12 0
BBX 12 12 0 -2
BITMAP
2280
AFE0
A100
F7E0
A100
AFE0
34A0
EFE0
24A0
2E50
25B0
2C10
ENDCHAR

STARTCHAR 353f
ENCODING 13631
SWIDTH 960 0
DWIDTH 12 0
BBX 12 12 0 -2
BITMAP
47E0
7840
4280
4980
3FE0
4120
7940
9500
7DC0
2700
5580
8860
ENDCHAR

STARTCHAR 3540
ENCODING 13632
SWIDTH 960 0
DWIDTH 12 0
BBX 12 12 0 -2
BITMAP
20C0
2780
FC80
0C80
1480
27E0
7480
AC80
2480
2440
2760
2C20
ENDCHAR

STARTCHAR 3541
ENCODING 13633
SWIDTH 960 0
DWIDTH 12 0
BBX 12 12 0 -2
BITMAP
1100
7FE0
0400
3FC0
0400
7FE0
1240
FFE0
1140
7CA0
1360
3020
ENDCHAR

STARTCHAR 3542
ENCODING 13634
SWIDTH 960 0
DWIDTH 12 0
BBX 12 12 0 -2
BITMAP
2280
2FE0
2100
FFE0
A900
AFE0
FCA0
2FF0
24C0
2EA0
3560
CC20
ENDCHAR

STARTCHAR 3543
ENCODING 13635
SWIDTH 960 0
DWIDTH 12 0
BBX 12 12 0 -2
BITMAP
7100
0FE0
F820
07C0
7440
0440
77C0
0440
F7C0
9440
9440
FFE0
ENDCHAR

STARTCHAR 3544
ENCODING 13636
SWIDTH 960 0
DWIDTH 12 0
BBX 12 12 0 -2
BITMAP
7240
0FE0
F100
07C0
7100
0FE0
74A0
0FF0
F4C0
9EA0
9560
FC20
ENDCHAR

STARTCHAR 3545
ENCODING 13637
SWIDTH 960 0
DWIDTH 12 0
BBX 12 12 0 -2
BITMAP
2400
2400
27E0
FA20
2AA0
2720
3FA0
E220
2720
2AA0
2220
62C0
ENDCHAR

STARTCHAR 3546
ENCODING 13638
SWIDTH 960 0
DWIDTH 12 0
BBX 12 12 0 -2
BITMAP
1100
FFE0
1100
2000
3FE0
44A0
9520
7FE0
0E20
1520
64A0
04C0
ENDCHAR

STARTCHAR 3547
ENCODING 13639
SWIDTH 960 0
DWIDTH 12 0
BBX 12 12 0 -2
BITMAP
5200
FA00
53E0
7520
2560
FBA0
AFE0
F920
23A0
FD60
2120
20C0
ENDCHAR

STARTCHAR 3548
ENCODING 13640
SWIDTH 960 0
DWIDTH 12 0
BBX 12 12 0 -2
BITMAP
0400
0400
FFE0
0400
0400
7FC0
0000
3F80
2080
2080
2080
3F80
ENDCHAR

STARTCHAR 3549
ENCODING 13641
SWIDTH 960 0
DWIDTH 12 0
BBX 12 12 0 -2
BITMAP
0400
0400
F7E0
9800
9000
9FC0
9080
9300
F400
0820
0820
07E0
ENDCHAR

STARTCHAR 354a
ENCODING 13642
SWIDTH 960 0
DWIDTH 12 0
BBX 12 12 0 -2
BITMAP
0400
FFE0
A4A0
BEA0
A520
BE40
AF80
A200
FFE0
0500
0880
3060
ENDCHAR

STARTCHAR 354b
ENCODING 13643
SWIDTH 960 0
DWIDTH 12 0
BBX 12 12 0 -2
BITMAP
2100
2100
2FE0
F100
2100
67C0
7000
6FC0
A440
A440
2440
27C0
ENDCHAR

STARTCHAR 354c
ENCODING 13644
SWIDTH 960 0
DWIDTH 12 0
BBX 12 12 0 -2
BITMAP
27C0
2280
2FE0
F340
2D00
6FE0
7AA0
6CE0
ABA0
AAA0
2BA0
2860
ENDCHAR

STARTCHAR 354d
ENCODING 13645
SWIDTH 960 0
DWIDTH 12 0
BBX 12 12 0 -2
BITMAP
7100
0100
FFE0
0100
7100
0FC0
7000
07C0
F440
9440
9440
F7C0
ENDCHAR

STARTCHAR 354e
ENCODING 13646
SWIDTH 960 0
DWIDTH 12 0
BBX 12 12 0 -2
BITMAP
0100
F900
2100
21E0
4100
7900
C900
4FC0
4C40
4C40
7C40
07C0
ENDCHAR

STARTCHAR 354f
ENCODING 13647
SWIDTH 960 0
DWIDTH 12 0
BBX 12 12 0 -2
BITMAP
2400
2400
27C0
F500
2900
6100
77E0
6900
A100
A100
2100
2100
ENDCHAR

STARTCHAR 3550
ENCODING 13648
SWIDTH 960 0
DWIDTH 12 0
BBX 12 12 0 -2
BITMAP
01C0
3E00
0400
FFE0
1500
64C0
0A00
3580
D560
0E00
75C0
0400
ENDCHAR

STARTCHAR 3551
ENCODING 13649
SWIDTH 960 0
DWIDTH 12 0
BBX 12 12 0 -2
BITMAP
2000
21E0
FD20
2120
2120
FD20
2120
2920
4DC0
7500
C500
0100
ENDCHAR

STARTCHAR 3552
ENCODING 13650
SWIDTH 960 0
DWIDTH 12 0
BBX 12 12 0 -2
BITMAP
0400
FFE0
8820
8F20
1100
6A00
0600
3980
DFE0
1080
1080
1F80
ENDCHAR

STARTCHAR 3553
ENCODING 13651
SWIDTH 960 0
DWIDTH 12 0
BBX 12 12 0 -2
BITMAP
0400
E4E0
BFA0
A4A0
E4A0
BFA0
A4A0
EAA0
ABC0
BD80
A080
A080
ENDCHAR

STARTCHAR 3554
ENCODING 13652
SWIDTH 960 0
DWIDTH 12 0
BBX 12 12 0 -2
BITMAP
0400
07C0
0400
7FE0
4420
5F80
4440
5FC0
5000
5FC0
9000
1FC0
ENDCHAR

STARTCHAR 3555
ENCODING 13653
SWIDTH 960 0
DWIDTH 12 0
BBX 12 12 0 -2
BITMAP
0440
4280
2FE0
0100
0920
E920
2FE0
2900
2100
2200
5800
87F0
ENDCHAR

STARTCHAR 3556
ENCODING 13654
SWIDTH 960 0
DWIDTH 12 0
BBX 12 12 0 -2
BITMAP
0000
0180
3E00
2000
2000
3FC0
2100
2100
2100
2100
2100
FFE0
ENDCHAR

STARTCHAR 3557
ENCODING 13655
SWIDTH 960 0
DWIDTH 12 0
BBX 12 12 0 -2
BITMAP
0800
0800
0F00
1100
1100
2200
4200
0400
0A00
1100
2080
C060
ENDCHAR

STARTCHAR 3558
ENCODING 13656
SWIDTH 960 0
DWIDTH 12 0
BBX 12 12 0 -2
BITMAP
2400
2400
2400
5F80
4480
C480
4480
4480
4880
48A0
50A0
6060
ENDCHAR

STARTCHAR 3559
ENCODING 13657
SWIDTH 960 0
DWIDTH 12 0
BBX 12 12 0 -2
BITMAP
1100
1100
1100
3FE0
2100
6380
A380
2540
2920
3110
2100
2100
ENDCHAR

STARTCHAR 355a
ENCODING 13658
SWIDTH 960 0
DWIDTH 12 0
BBX 12 12 0 -2
BITMAP
0000
3F80
0880
0900
09C0
1440
1440
1280
2180
2180
4640
9820
ENDCHAR

STARTCHAR 355b
ENCODING 13659
SWIDTH 960 0
DWIDTH 12 0
BBX 12 12 0 -2
BITMAP
0000
0FC0
F240
9280
92E0
9220
9320
9540
F480
04C0
0920
1610
ENDCHAR

STARTCHAR 355c
ENCODING 13660
SWIDTH 960 0
DWIDTH 12 0
BBX 12 12 0 -2
BITMAP
0400
FFE0
8020
9F20
1100
1100
1F00
0800
3F80
2080
2080
3F80
ENDCHAR

STARTCHAR 355d
ENCODING 13661
SWIDTH 960 0
DWIDTH 12 0
BBX 12 12 0 -2
BITMAP
1F80
0080
0080
3F80
2000
2000
3FC0
0040
0040
0040
0080
0700
ENDCHAR

STARTCHAR 355e
ENCODING 13662
SWIDTH 960 0
DWIDTH 12 0
BBX 12 12 0 -2
BITMAP
1000
1F00
2200
7F80
0080
1F80
0080
7F80
4400
5240
90A0
0F80
ENDCHAR

STARTCHAR 355f
ENCODING 13663
SWIDTH 960 0
DWIDTH 12 0
BBX 12 12 0 -2
BITMAP
1900
1500
FDE0
1240
9240
5540
5880
3580
5580
9240
1440
3820
ENDCHAR

STARTCHAR 3560
ENCODING 13664
SWIDTH 960 0
DWIDTH 12 0
BBX 12 12 0 -2
BITMAP
2000
2FE0
2200
FA00
2200
67C0
7440
6840
A040
A040
2040
2180
ENDCHAR

STARTCHAR 3561
ENCODING 13665
SWIDTH 960 0
DWIDTH 12 0
BBX 12 12 0 -2
BITMAP
0400
0500
0480
FFE0
0400
4640
2680
0D00
3480
C440
0420
0C00
ENDCHAR

STARTCHAR 3562
ENCODING 13666
SWIDTH 960 0
DWIDTH 12 0
BBX 12 12 0 -2
BITMAP
4000
3F80
0480
8500
45C0
0440
0A40
2A80
4900
4980
9240
AC20
ENDCHAR

STARTCHAR 3563
ENCODING 13667
SWIDTH 960 0
DWIDTH 12 0
BBX 12 12 0 -2
BITMAP
4200
2200
0200
9FE0
4040
0840
0840
2440
4480
4480
8480
9FE0
ENDCHAR

STARTCHAR 3564
ENCODING 13668
SWIDTH 960 0
DWIDTH 12 0
BBX 12 12 0 -2
BITMAP
0800
0F00
1100
6600
0980
3460
C400
1440
6D80
0A00
3100
C0E0
ENDCHAR

STARTCHAR 3565
ENCODING 13669
SWIDTH 960 0
DWIDTH 12 0
BBX 12 12 0 -2
BITMAP
0100
F180
2140
2FE0
F100
2920
27C0
2380
3540
E930
0100
0300
ENDCHAR

STARTCHAR 3566
ENCODING 13670
SWIDTH 960 0
DWIDTH 12 0
BBX 12 12 0 -2
BITMAP
0400
FFE0
9220
9220
1240
25C0
4400
7F00
0900
0920
1120
60E0
ENDCHAR

STARTCHAR 3567
ENCODING 13671
SWIDTH 960 0
DWIDTH 12 0
BBX 12 12 0 -2
BITMAP
0400
FFE0
8A20
73E0
1000
7BE0
4820
79E0
4A00
FBE0
2820
D8C0
ENDCHAR

STARTCHAR 3568
ENCODING 13672
SWIDTH 960 0
DWIDTH 12 0
BBX 12 12 0 -2
BITMAP
4200
7BE0
9480
2100
7E00
1200
1380
1080
2900
4600
9B00
60C0
ENDCHAR

STARTCHAR 3569
ENCODING 13673
SWIDTH 960 0
DWIDTH 12 0
BBX 12 12 0 -2
BITMAP
2000
2780
D480
5500
25C0
5640
FD40
2580
B480
A940
AA40
3420
ENDCHAR

STARTCHAR 356a
ENCODING 13674
SWIDTH 960 0
DWIDTH 12 0
BBX 12 12 0 -2
BITMAP
2040
2240
D240
5240
2240
5240
FA40
A2F0
AF40
A840
A040
2040
ENDCHAR

STARTCHAR 356b
ENCODING 13675
SWIDTH 960 0
DWIDTH 12 0
BBX 12 12 0 -2
BITMAP
2100
2100
D280
5440
2FC0
5020
F800
27C0
B440
AC40
A440
27C0
ENDCHAR

STARTCHAR 356c
ENCODING 13676
SWIDTH 960 0
DWIDTH 12 0
BBX 12 12 0 -2
BITMAP
4000
4FC0
4840
4840
4840
4FC0
4840
4840
4840
4840
4FC0
4000
ENDCHAR

STARTCHAR 356d
ENCODING 13677
SWIDTH 960 0
DWIDTH 12 0
BBX 12 12 0 -2
BITMAP
0400
2400
2400
3FC0
4400
8400
0400
FFE0
0400
0400
0400
0400
ENDCHAR

STARTCHAR 356e
ENCODING 13678
SWIDTH 960 0
DWIDTH 12 0
BBX 12 12 0 -2
BITMAP
0400
0400
7FC0
0400
0400
FFE0
0400
0900
0880
1380
7C40
0040
ENDCHAR

STARTCHAR 356f
ENCODING 13679
SWIDTH 960 0
DWIDTH 12 0
BBX 12 12 0 -2
BITMAP
0000
3FC0
2040
3FC0
2200
3FE0
2200
2200
5FC0
5040
9040
1FC0
ENDCHAR

STARTCHAR 3570
ENCODING 13680
SWIDTH 960 0
DWIDTH 12 0
BBX 12 12 0 -2
BITMAP
0000
7FE0
4000
4000
7FC0
4040
4040
7FC0
4000
4000
4000
7FE0
ENDCHAR

STARTCHAR 3571
ENCODING 13681
SWIDTH 960 0
DWIDTH 12 0
BBX 12 12 0 -2
BITMAP
2000
27E0
2400
F400
27C0
2440
3440
E7C0
2400
2400
2400
67E0
ENDCHAR

STARTCHAR 3572
ENCODING 13682
SWIDTH 960 0
DWIDTH 12 0
BBX 12 12 0 -2
BITMAP
2000
24E0
24A0
F6A0
2AA0
2AA0
3AA0
E6A0
2320
2530
2880
7070
ENDCHAR

STARTCHAR 3573
ENCODING 13683
SWIDTH 960 0
DWIDTH 12 0
BBX 12 12 0 -2
BITMAP
4880
2480
FFE0
1200
3F00
4880
BF60
0400
7F80
0400
0400
1800
ENDCHAR

STARTCHAR 3574
ENCODING 13684
SWIDTH 960 0
DWIDTH 12 0
BBX 12 12 0 -2
BITMAP
4FE0
2800
8FC0
4840
0FC0
2800
4FE0
8400
FFE0
0E00
3580
C460
ENDCHAR

STARTCHAR 3575
ENCODING 13685
SWIDTH 960 0
DWIDTH 12 0
BBX 12 12 0 -2
BITMAP
0400
0780
0400
7FE0
4820
7F80
4840
47C0
6A80
5B00
8A00
7FE0
ENDCHAR

STARTCHAR 3576
ENCODING 13686
SWIDTH 960 0
DWIDTH 12 0
BBX 12 12 0 -2
BITMAP
7400
0400
F7C0
0900
7100
0100
7FE0
0100
F100
9100
9100
F100
ENDCHAR

STARTCHAR 3577
ENCODING 13687
SWIDTH 960 0
DWIDTH 12 0
BBX 12 12 0 -2
BITMAP
0000
F7E0
9400
9400
F7C0
2440
A440
BFC0
A400
AC00
B400
C7E0
ENDCHAR

STARTCHAR 3578
ENCODING 13688
SWIDTH 960 0
DWIDTH 12 0
BBX 12 12 0 -2
BITMAP
2000
27E0
5420
4FE0
F480
27E0
FC80
2480
B7E0
6A20
3220
C3E0
ENDCHAR

STARTCHAR 3579
ENCODING 13689
SWIDTH 960 0
DWIDTH 12 0
BBX 12 12 0 -2
BITMAP
4200
23C0
0480
9900
4FE0
0920
0FE0
2920
4FE0
4000
8AA0
9250
ENDCHAR

STARTCHAR 357a
ENCODING 13690
SWIDTH 960 0
DWIDTH 12 0
BBX 12 12 0 -2
BITMAP
28E0
4FA0
AAA0
63A0
AAE0
2F80
2080
7FC0
0000
FFE0
1500
64C0
ENDCHAR

STARTCHAR 357b
ENCODING 13691
SWIDTH 960 0
DWIDTH 12 0
BBX 12 12 0 -2
BITMAP
0800
0F00
1100
2200
7FC0
A440
3FC0
2440
3FC0
0000
4A40
8920
ENDCHAR

STARTCHAR 357c
ENCODING 13692
SWIDTH 960 0
DWIDTH 12 0
BBX 12 12 0 -2
BITMAP
0400
FFE0
3F80
2080
3F80
0000
7FC0
0100
0600
0400
0400
0C00
ENDCHAR

STARTCHAR 357d
ENCODING 13693
SWIDTH 960 0
DWIDTH 12 0
BBX 12 12 0 -2
BITMAP
0400
FFE0
3F80
2080
3F80
0000
3F80
0200
FFE0
0400
0400
0C00
ENDCHAR

STARTCHAR 357e
ENCODING 13694
SWIDTH 960 0
DWIDTH 12 0
BBX 12 12 0 -2
BITMAP
0400
FFE0
0000
3F80
2080
2080
3F80
0400
2480
2440
4440
0C00
ENDCHAR

STARTCHAR 3621
ENCODING 13857
SWIDTH 960 0
DWIDTH 12 0
BBX 12 12 0 -2
BITMAP
1240
1240
1240
2FE0
2240
6240
A240
3FF0
2000
2240
2420
2820
ENDCHAR

STARTCHAR 3622
ENCODING 13858
SWIDTH 960 0
DWIDTH 12 0
BBX 12 12 0 -2
BITMAP
2200
2200
3FC0
5240
4A80
CA00
7FE0
4200
4300
4480
4840
7020
ENDCHAR

STARTCHAR 3623
ENCODING 13859
SWIDTH 960 0
DWIDTH 12 0
BBX 12 12 0 -2
BITMAP
17C0
1100
2FE0
2280
2C60
6380
A280
2FE0
2BA0
2AA0
2BA0
2860
ENDCHAR

STARTCHAR 3624
ENCODING 13860
SWIDTH 960 0
DWIDTH 12 0
BBX 12 12 0 -2
BITMAP
0200
5A40
4440
4640
4940
5040
7FC0
0A00
0A00
1220
2220
C1E0
ENDCHAR

STARTCHAR 3625
ENCODING 13861
SWIDTH 960 0
DWIDTH 12 0
BBX 12 12 0 -2
BITMAP
1100
FFC0
5280
FFE0
0000
7BC0
4A40
7BC0
2A80
2AA0
4CA0
8860
ENDCHAR

STARTCHAR 3626
ENCODING 13862
SWIDTH 960 0
DWIDTH 12 0
BBX 12 12 0 -2
BITMAP
1100
1100
1100
7FC0
1100
1100
1100
FFE0
0100
1080
2040
C040
ENDCHAR

STARTCHAR 3627
ENCODING 13863
SWIDTH 960 0
DWIDTH 12 0
BBX 12 12 0 -2
BITMAP
0080
40A0
50A0
4920
4520
4220
4520
48A0
70A0
4020
7FE0
4000
ENDCHAR

STARTCHAR 3628
ENCODING 13864
SWIDTH 960 0
DWIDTH 12 0
BBX 12 12 0 -2
BITMAP
4200
4FC0
4240
F240
4440
4980
4880
7FE0
54A0
54A0
6520
4E60
ENDCHAR

STARTCHAR 3629
ENCODING 13865
SWIDTH 960 0
DWIDTH 12 0
BBX 12 12 0 -2
BITMAP
0000
FFE0
8000
BFC0
8400
8400
9F80
8400
8400
BFC0
8000
FFE0
ENDCHAR

STARTCHAR 362a
ENCODING 13866
SWIDTH 960 0
DWIDTH 12 0
BBX 12 12 0 -2
BITMAP
2000
CEE0
8AA0
AEA0
AAA0
AAA0
AEA0
A8A0
ECE0
2A80
5D80
8080
ENDCHAR

STARTCHAR 362b
ENCODING 13867
SWIDTH 960 0
DWIDTH 12 0
BBX 12 12 0 -2
BITMAP
0080
F480
9480
9480
9480
9480
9480
94E0
F780
8C80
0080
0080
ENDCHAR

STARTCHAR 362c
ENCODING 13868
SWIDTH 960 0
DWIDTH 12 0
BBX 12 12 0 -2
BITMAP
0380
3C00
0400
FFC0
1F00
3180
DF60
7FC0
5F40
5140
5F40
40C0
ENDCHAR

STARTCHAR 362d
ENCODING 13869
SWIDTH 960 0
DWIDTH 12 0
BBX 12 12 0 -2
BITMAP
4200
5FC0
4880
4500
FFE0
4880
4F80
4880
7F80
C500
0920
30E0
ENDCHAR

STARTCHAR 362e
ENCODING 13870
SWIDTH 960 0
DWIDTH 12 0
BBX 12 12 0 -2
BITMAP
0100
2100
2FE0
2120
AD40
AB80
AFE0
A900
A900
FA80
0440
1820
ENDCHAR

STARTCHAR 362f
ENCODING 13871
SWIDTH 960 0
DWIDTH 12 0
BBX 12 12 0 -2
BITMAP
0200
F280
1440
1FE0
F120
87C0
F540
17C0
1540
1120
21E0
CE20
ENDCHAR

STARTCHAR 3630
ENCODING 13872
SWIDTH 960 0
DWIDTH 12 0
BBX 12 12 0 -2
BITMAP
0000
FFE0
2940
2FC0
E940
8FC0
FFE0
2940
2FC0
2940
2FC0
DFE0
ENDCHAR

STARTCHAR 3631
ENCODING 13873
SWIDTH 960 0
DWIDTH 12 0
BBX 12 12 0 -2
BITMAP
2100
2100
2100
6FC0
6100
B100
BFE0
2200
2280
2480
27C0
3C40
ENDCHAR

STARTCHAR 3632
ENCODING 13874
SWIDTH 960 0
DWIDTH 12 0
BBX 12 12 0 -2
BITMAP
0780
FC80
2480
2680
3DA0
E4A0
0860
1400
5240
5220
90A0
0F80
ENDCHAR

STARTCHAR 3633
ENCODING 13875
SWIDTH 960 0
DWIDTH 12 0
BBX 12 12 0 -2
BITMAP
1100
1100
7FC0
1100
1100
FFE0
1100
2880
EAE0
2940
4940
1800
ENDCHAR

STARTCHAR 3634
ENCODING 13876
SWIDTH 960 0
DWIDTH 12 0
BBX 12 12 0 -2
BITMAP
2100
2100
2FE0
F100
2520
2540
3FE0
E100
2100
2280
2440
7820
ENDCHAR

STARTCHAR 3635
ENCODING 13877
SWIDTH 960 0
DWIDTH 12 0
BBX 12 12 0 -2
BITMAP
2100
2500
F900
2BE0
FE40
2640
7940
9180
1C80
F180
1240
3C20
ENDCHAR

STARTCHAR 3636
ENCODING 13878
SWIDTH 960 0
DWIDTH 12 0
BBX 12 12 0 -2
BITMAP
27C0
2100
2FE0
F280
2440
6BA0
7280
6FE0
ABA0
AAA0
2BA0
2860
ENDCHAR

STARTCHAR 3637
ENCODING 13879
SWIDTH 960 0
DWIDTH 12 0
BBX 12 12 0 -2
BITMAP
4000
2FC0
0840
8840
4840
0FC0
0500
2500
4500
4920
8920
90E0
ENDCHAR

STARTCHAR 3638
ENCODING 13880
SWIDTH 960 0
DWIDTH 12 0
BBX 12 12 0 -2
BITMAP
9000
5FE0
2100
6100
A100
2FC0
3100
6100
A100
2100
2100
CFE0
ENDCHAR

STARTCHAR 3639
ENCODING 13881
SWIDTH 960 0
DWIDTH 12 0
BBX 12 12 0 -2
BITMAP
9200
5200
2FC0
7240
AA80
2A00
3FE0
6200
A200
2500
2880
D060
ENDCHAR

STARTCHAR 363a
ENCODING 13882
SWIDTH 960 0
DWIDTH 12 0
BBX 12 12 0 -2
BITMAP
47C0
4100
77E0
A280
AC60
2380
F280
2FE0
5BA0
4AA0
8BA0
0860
ENDCHAR

STARTCHAR 363b
ENCODING 13883
SWIDTH 960 0
DWIDTH 12 0
BBX 12 12 0 -2
BITMAP
0400
E400
A7E0
A820
F0A0
ADA0
AAA0
EDA0
A8A0
AFA0
A020
A0C0
ENDCHAR

STARTCHAR 363c
ENCODING 13884
SWIDTH 960 0
DWIDTH 12 0
BBX 12 12 0 -2
BITMAP
0400
3F80
0480
2980
FBE0
2920
DA60
3F80
2080
3F80
2080
2180
ENDCHAR

STARTCHAR 363d
ENCODING 13885
SWIDTH 960 0
DWIDTH 12 0
BBX 12 12 0 -2
BITMAP
1000
6FC0
4A40
7FC0
4A40
4E40
7BC0
4E40
FFE0
0900
1080
6040
ENDCHAR

STARTCHAR 363e
ENCODING 13886
SWIDTH 960 0
DWIDTH 12 0
BBX 12 12 0 -2
BITMAP
1100
FFE0
1100
3F80
0400
FFE0
3B80
CE60
7FC0
4E40
4A40
4EC0
ENDCHAR

STARTCHAR 363f
ENCODING 13887
SWIDTH 960 0
DWIDTH 12 0
BBX 12 12 0 -2
BITMAP
4000
4EE0
AAA0
6EA0
2AC0
4EA0
A890
EC90
2A90
2DE0
4980
8080
ENDCHAR

STARTCHAR 3640
ENCODING 13888
SWIDTH 960 0
DWIDTH 12 0
BBX 12 12 0 -2
BITMAP
2100
27C0
5280
4FE0
F440
27C0
FC40
27C0
B280
6A80
34A0
C860
ENDCHAR

STARTCHAR 3641
ENCODING 13889
SWIDTH 960 0
DWIDTH 12 0
BBX 12 12 0 -2
BITMAP
2EE0
DAA0
6EC0
FCA0
2AA0
4DC0
FFE0
1100
FFE0
3F80
2080
3F80
ENDCHAR

STARTCHAR 3642
ENCODING 13890
SWIDTH 960 0
DWIDTH 12 0
BBX 12 12 0 -2
BITMAP
2EE0
DAA0
6EC0
FCA0
2AA0
5DC0
0680
3F80
D160
1F00
1280
39C0
ENDCHAR

STARTCHAR 3643
ENCODING 13891
SWIDTH 960 0
DWIDTH 12 0
BBX 12 12 0 -2
BITMAP
2900
FDE0
4520
F6C0
5540
7FA0
2200
3FC0
2200
3FE0
52A0
88C0
ENDCHAR

STARTCHAR 3644
ENCODING 13892
SWIDTH 960 0
DWIDTH 12 0
BBX 12 12 0 -2
BITMAP
2300
2C00
29E0
4920
4920
C920
4920
4920
4B20
5DC0
4100
4100
ENDCHAR

STARTCHAR 3645
ENCODING 13893
SWIDTH 960 0
DWIDTH 12 0
BBX 12 12 0 -2
BITMAP
23E0
2420
B940
6480
1FE0
10A0
1E80
6AE0
5E80
8A80
9580
2460
ENDCHAR

STARTCHAR 3646
ENCODING 13894
SWIDTH 960 0
DWIDTH 12 0
BBX 12 12 0 -2
BITMAP
0400
7F80
0400
2500
FFC0
2100
0000
FFE0
1200
1240
2240
C1C0
ENDCHAR

STARTCHAR 3647
ENCODING 13895
SWIDTH 960 0
DWIDTH 12 0
BBX 12 12 0 -2
BITMAP
0200
1FC0
E200
AA80
BFE0
E880
A000
BFE0
E500
8520
0920
30E0
ENDCHAR

STARTCHAR 3648
ENCODING 13896
SWIDTH 960 0
DWIDTH 12 0
BBX 12 12 0 -2
BITMAP
0A00
2A80
FFE0
1100
7FC0
0400
3F80
0400
FFE0
1500
2480
4440
ENDCHAR

STARTCHAR 3649
ENCODING 13897
SWIDTH 960 0
DWIDTH 12 0
BBX 12 12 0 -2
BITMAP
0000
3FC0
2040
3FC0
2000
3FE0
2020
2F20
4920
4920
8F20
00C0
ENDCHAR

STARTCHAR 364a
ENCODING 13898
SWIDTH 960 0
DWIDTH 12 0
BBX 12 12 0 -2
BITMAP
0900
0900
0900
7FE0
4920
4920
7FE0
4920
4920
4920
4920
7FE0
ENDCHAR

STARTCHAR 364b
ENCODING 13899
SWIDTH 960 0
DWIDTH 12 0
BBX 12 12 0 -2
BITMAP
2000
2FE0
2200
F400
2EE0
6120
7DA0
7540
B540
BDA0
2300
2FE0
ENDCHAR

STARTCHAR 364c
ENCODING 13900
SWIDTH 960 0
DWIDTH 12 0
BBX 12 12 0 -2
BITMAP
0000
7FC0
0400
0400
0400
0400
3F80
0400
0500
0480
0480
FFE0
ENDCHAR

STARTCHAR 364d
ENCODING 13901
SWIDTH 960 0
DWIDTH 12 0
BBX 12 12 0 -2
BITMAP
2000
2FE0
2820
FBA0
2820
6BA0
7AA0
6AA0
ABA0
A820
2820
2860
ENDCHAR

STARTCHAR 364e
ENCODING 13902
SWIDTH 960 0
DWIDTH 12 0
BBX 12 12 0 -2
BITMAP
20C0
AF00
7100
2100
F100
2FE0
7100
6900
A100
A100
2100
2100
ENDCHAR

STARTCHAR 364f
ENCODING 13903
SWIDTH 960 0
DWIDTH 12 0
BBX 12 12 0 -2
BITMAP
2280
2FE0
2280
4FE0
4920
CFE0
4100
4FE0
4100
47C0
4100
4FE0
ENDCHAR

STARTCHAR 3650
ENCODING 13904
SWIDTH 960 0
DWIDTH 12 0
BBX 12 12 0 -2
BITMAP
2900
FD00
2900
7FE0
5520
7D20
1120
7D20
1120
7920
1E20
F4C0
ENDCHAR

STARTCHAR 3651
ENCODING 13905
SWIDTH 960 0
DWIDTH 12 0
BBX 12 12 0 -2
BITMAP
2200
2200
27E0
F420
2820
3620
20A0
3320
2C20
C020
0020
00C0
ENDCHAR

STARTCHAR 3652
ENCODING 13906
SWIDTH 960 0
DWIDTH 12 0
BBX 12 12 0 -2
BITMAP
0400
0400
0400
7FC0
4440
4440
4440
4440
4580
0400
0400
0400
ENDCHAR

STARTCHAR 3653
ENCODING 13907
SWIDTH 960 0
DWIDTH 12 0
BBX 12 12 0 -2
BITMAP
2200
27C0
5440
4FC0
FC40
27C0
F900
27E0
B520
6D20
3560
C100
ENDCHAR

STARTCHAR 3654
ENCODING 13908
SWIDTH 960 0
DWIDTH 12 0
BBX 12 12 0 -2
BITMAP
0080
0300
3C00
2000
3FE0
2200
2200
2200
2200
4200
4200
8200
ENDCHAR

STARTCHAR 3655
ENCODING 13909
SWIDTH 960 0
DWIDTH 12 0
BBX 12 12 0 -2
BITMAP
1A00
6200
4200
43E0
7D20
5540
5900
5100
5300
5280
9440
1820
ENDCHAR

STARTCHAR 3656
ENCODING 13910
SWIDTH 960 0
DWIDTH 12 0
BBX 12 12 0 -2
BITMAP
2200
2200
5200
4BE0
FD20
2540
F900
2100
B180
6A80
3440
C820
ENDCHAR

STARTCHAR 3657
ENCODING 13911
SWIDTH 960 0
DWIDTH 12 0
BBX 12 12 0 -2
BITMAP
FBE0
2080
FBE0
2080
F7E0
0E00
3180
DF60
0000
3F80
0100
0600
ENDCHAR

STARTCHAR 3658
ENCODING 13912
SWIDTH 960 0
DWIDTH 12 0
BBX 12 12 0 -2
BITMAP
2100
FFE0
3300
2D80
6540
A120
3F80
0000
FFE0
2480
C440
0C00
ENDCHAR

STARTCHAR 3659
ENCODING 13913
SWIDTH 960 0
DWIDTH 12 0
BBX 12 12 0 -2
BITMAP
0400
0B00
3FC0
C930
2640
2940
3FC0
0400
7FE0
4520
5FA0
40A0
ENDCHAR

STARTCHAR 365a
ENCODING 13914
SWIDTH 960 0
DWIDTH 12 0
BBX 12 12 0 -2
BITMAP
4200
7BE0
9480
7900
4FE0
7920
4920
4920
7920
4A20
4A20
9CC0
ENDCHAR

STARTCHAR 365b
ENCODING 13915
SWIDTH 960 0
DWIDTH 12 0
BBX 12 12 0 -2
BITMAP
0000
7DE0
5020
7D40
7C80
5140
7E20
3180
0E40
FFE0
1520
6480
ENDCHAR

STARTCHAR 365c
ENCODING 13916
SWIDTH 960 0
DWIDTH 12 0
BBX 12 12 0 -2
BITMAP
1100
FFE0
1100
01C0
3E00
2000
3FE0
2200
2200
4200
4200
8200
ENDCHAR

STARTCHAR 365d
ENCODING 13917
SWIDTH 960 0
DWIDTH 12 0
BBX 12 12 0 -2
BITMAP
0900
FFF0
0900
7FE0
4320
5C20
4420
7FE0
4E20
75A0
4420
7FE0
ENDCHAR

STARTCHAR 365e
ENCODING 13918
SWIDTH 960 0
DWIDTH 12 0
BBX 12 12 0 -2
BITMAP
2100
2100
FA80
0A80
1440
2BA0
7000
AFC0
2040
2080
2080
2100
ENDCHAR

STARTCHAR 365f
ENCODING 13919
SWIDTH 960 0
DWIDTH 12 0
BBX 12 12 0 -2
BITMAP
4480
5FE0
E480
2FC0
34A0
4FE0
6000
FFE0
4940
4920
5120
4300
ENDCHAR

STARTCHAR 3660
ENCODING 13920
SWIDTH 960 0
DWIDTH 12 0
BBX 12 12 0 -2
BITMAP
7240
0FE0
F240
07C0
7540
07C0
7100
0FC0
F100
97C0
9100
FFE0
ENDCHAR

STARTCHAR 3661
ENCODING 13921
SWIDTH 960 0
DWIDTH 12 0
BBX 12 12 0 -2
BITMAP
0060
4780
2400
0400
07E0
E480
2480
2480
2880
3080
5800
87F0
ENDCHAR

STARTCHAR 3662
ENCODING 13922
SWIDTH 960 0
DWIDTH 12 0
BBX 12 12 0 -2
BITMAP
0400
0400
0A00
1100
3F80
C460
0400
7FC0
0400
2480
1500
FFE0
ENDCHAR

STARTCHAR 3663
ENCODING 13923
SWIDTH 960 0
DWIDTH 12 0
BBX 12 12 0 -2
BITMAP
0200
0300
E500
A480
AFC0
B020
A000
AFC0
A080
E080
0100
0200
ENDCHAR

STARTCHAR 3664
ENCODING 13924
SWIDTH 960 0
DWIDTH 12 0
BBX 12 12 0 -2
BITMAP
2000
27C0
5440
4FC0
F440
27C0
FD20
2540
B480
6C80
3740
CC20
ENDCHAR

STARTCHAR 3665
ENCODING 13925
SWIDTH 960 0
DWIDTH 12 0
BBX 12 12 0 -2
BITMAP
0800
0800
0800
7F00
0900
0900
0900
0900
1100
1120
2120
40E0
ENDCHAR

STARTCHAR 3666
ENCODING 13926
SWIDTH 960 0
DWIDTH 12 0
BBX 12 12 0 -2
BITMAP
1000
1FC0
1840
2840
2FC0
6840
AFC0
2840
3FE0
2280
2440
3820
ENDCHAR

STARTCHAR 3667
ENCODING 13927
SWIDTH 960 0
DWIDTH 12 0
BBX 12 12 0 -2
BITMAP
1000
1000
3FE0
2020
5F20
9120
1120
1120
1F20
0020
0020
00C0
ENDCHAR

STARTCHAR 3668
ENCODING 13928
SWIDTH 960 0
DWIDTH 12 0
BBX 12 12 0 -2
BITMAP
0000
7FE0
4080
4080
5900
4500
4200
4500
4880
5000
7FE0
4000
ENDCHAR

STARTCHAR 3669
ENCODING 13929
SWIDTH 960 0
DWIDTH 12 0
BBX 12 12 0 -2
BITMAP
9400
6400
47E0
A820
2820
37A0
64A0
A4A0
27A0
2020
2020
C0C0
ENDCHAR

STARTCHAR 366a
ENCODING 13930
SWIDTH 960 0
DWIDTH 12 0
BBX 12 12 0 -2
BITMAP
0200
FA00
23C0
2240
F440
2480
2880
2180
3940
C240
0420
1820
ENDCHAR

STARTCHAR 366b
ENCODING 13931
SWIDTH 960 0
DWIDTH 12 0
BBX 12 12 0 -2
BITMAP
4000
47E0
7C00
A400
A7C0
2440
7C40
27C0
3400
4C00
4400
87E0
ENDCHAR

STARTCHAR 366c
ENCODING 13932
SWIDTH 960 0
DWIDTH 12 0
BBX 12 12 0 -2
BITMAP
1100
FFE0
1100
1500
0400
FFE0
0400
0400
3F80
2080
2080
3F80
ENDCHAR

STARTCHAR 366d
ENCODING 13933
SWIDTH 960 0
DWIDTH 12 0
BBX 12 12 0 -2
BITMAP
2000
7BE0
4A00
7A20
4B20
7AC0
4E40
FAA0
1AA0
2B00
CA00
1BE0
ENDCHAR

STARTCHAR 366e
ENCODING 13934
SWIDTH 960 0
DWIDTH 12 0
BBX 12 12 0 -2
BITMAP
0000
FFE0
A440
F440
A540
F480
A480
FD40
0D20
AE00
8C00
37E0
ENDCHAR

STARTCHAR 366f
ENCODING 13935
SWIDTH 960 0
DWIDTH 12 0
BBX 12 12 0 -2
BITMAP
0040
F880
A300
F200
A3E0
F240
A240
FA40
0A40
AA40
8A40
37F0
ENDCHAR

STARTCHAR 3670
ENCODING 13936
SWIDTH 960 0
DWIDTH 12 0
BBX 12 12 0 -2
BITMAP
0200
FA00
A3E0
F420
A7A0
FAA0
A2A0
FAA0
0BA0
A820
8820
30C0
ENDCHAR

STARTCHAR 3671
ENCODING 13937
SWIDTH 960 0
DWIDTH 12 0
BBX 12 12 0 -2
BITMAP
3F00
2100
3F00
2100
3F00
2100
3F00
0000
FFE0
1200
2180
C040
ENDCHAR

STARTCHAR 3672
ENCODING 13938
SWIDTH 960 0
DWIDTH 12 0
BBX 12 12 0 -2
BITMAP
3F80
2480
3F80
2480
FFE0
8A20
9720
B8A0
1460
5240
90A0
0F80
ENDCHAR

STARTCHAR 3673
ENCODING 13939
SWIDTH 960 0
DWIDTH 12 0
BBX 12 12 0 -2
BITMAP
0400
0780
7FE0
4440
5FC0
6880
6F80
7F00
4100
7FE0
8880
B040
ENDCHAR

STARTCHAR 3674
ENCODING 13940
SWIDTH 960 0
DWIDTH 12 0
BBX 12 12 0 -2
BITMAP
0200
0500
EF80
B040
AFA0
A880
AF80
AF80
AA40
E980
0CC0
3820
ENDCHAR

STARTCHAR 3675
ENCODING 13941
SWIDTH 960 0
DWIDTH 12 0
BBX 12 12 0 -2
BITMAP
0400
FFE0
9220
9220
1240
21C0
4000
3FC0
0400
0400
0400
FFE0
ENDCHAR

STARTCHAR 3676
ENCODING 13942
SWIDTH 960 0
DWIDTH 12 0
BBX 12 12 0 -2
BITMAP
2000
2FC0
2A40
4FC0
4A40
CFC0
4200
5FE0
52A0
53A0
5CA0
5060
ENDCHAR

STARTCHAR 3677
ENCODING 13943
SWIDTH 960 0
DWIDTH 12 0
BBX 12 12 0 -2
BITMAP
0400
FFE0
8020
BFA0
2480
3F80
2480
7FC0
4540
5F40
4140
40C0
ENDCHAR

STARTCHAR 3678
ENCODING 13944
SWIDTH 960 0
DWIDTH 12 0
BBX 12 12 0 -2
BITMAP
0FC0
4A40
2FC0
0A40
0FC0
E200
2FE0
2AA0
2FA0
28E0
5800
87F0
ENDCHAR

STARTCHAR 3679
ENCODING 13945
SWIDTH 960 0
DWIDTH 12 0
BBX 12 12 0 -2
BITMAP
0000
EFC0
AA40
AFC0
CA40
AFC0
A200
BFE0
B2A0
D3A0
9CA0
9060
ENDCHAR

STARTCHAR 367a
ENCODING 13946
SWIDTH 960 0
DWIDTH 12 0
BBX 12 12 0 -2
BITMAP
0400
0400
7FC0
4440
7FC0
0400
FFE0
8420
FFE0
0400
0400
0400
ENDCHAR

STARTCHAR 367b
ENCODING 13947
SWIDTH 960 0
DWIDTH 12 0
BBX 12 12 0 -2
BITMAP
2880
2EE0
3540
F440
2EE0
6AA0
7EA0
6AA0
AEA0
A8E0
2E80
2A80
ENDCHAR

STARTCHAR 367c
ENCODING 13948
SWIDTH 960 0
DWIDTH 12 0
BBX 12 12 0 -2
BITMAP
2220
22A0
52A0
4AA0
FAA0
22A0
FAA0
22A0
B2A0
6AA0
3220
C420
ENDCHAR

STARTCHAR 367d
ENCODING 13949
SWIDTH 960 0
DWIDTH 12 0
BBX 12 12 0 -2
BITMAP
7FE0
4020
7FE0
5240
4A80
5FC0
5040
5FC0
5040
5FC0
9040
10C0
ENDCHAR

STARTCHAR 367e
ENCODING 13950
SWIDTH 960 0
DWIDTH 12 0
BBX 12 12 0 -2
BITMAP
0000
7FE0
4020
7FE0
4200
5240
5240
5FC0
4200
6220
A220
3FE0
ENDCHAR

STARTCHAR 3721
ENCODING 14113
SWIDTH 960 0
DWIDTH 12 0
BBX 12 12 0 -2
BITMAP
2000
2FE0
2820
FFE0
2880
2AA0
3AA0
EBE0
2880
2CA0
34A0
67E0
ENDCHAR

STARTCHAR 3722
ENCODING 14114
SWIDTH 960 0
DWIDTH 12 0
BBX 12 12 0 -2
BITMAP
0400
FFE0
90A0
3F80
E0E0
3F80
2200
3240
3FC0
4200
A240
3FC0
ENDCHAR

STARTCHAR 3723
ENCODING 14115
SWIDTH 960 0
DWIDTH 12 0
BBX 12 12 0 -2
BITMAP
0400
04C0
F700
1600
2580
C460
0C00
3F80
2080
3F80
2080
3F80
ENDCHAR

STARTCHAR 3724
ENCODING 14116
SWIDTH 960 0
DWIDTH 12 0
BBX 12 12 0 -2
BITMAP
5280
FA80
5280
74A0
2AA0
FAC0
AA80
FA80
2280
FAA0
22A0
2260
ENDCHAR

STARTCHAR 3725
ENCODING 14117
SWIDTH 960 0
DWIDTH 12 0
BBX 12 12 0 -2
BITMAP
5F40
8480
BF40
55A0
FFE0
44A0
FFC0
44A0
3F80
2080
2080
3F80
ENDCHAR

STARTCHAR 3726
ENCODING 14118
SWIDTH 960 0
DWIDTH 12 0
BBX 12 12 0 -2
BITMAP
0400
FFE0
8A20
71C0
4200
2FC0
8200
5FE0
0200
2FC0
4200
BFE0
ENDCHAR

STARTCHAR 3727
ENCODING 14119
SWIDTH 960 0
DWIDTH 12 0
BBX 12 12 0 -2
BITMAP
2240
4B80
FA20
4DE0
7800
4A40
7B80
4A20
89E0
0000
5240
8920
ENDCHAR

STARTCHAR 3728
ENCODING 14120
SWIDTH 960 0
DWIDTH 12 0
BBX 12 12 0 -2
BITMAP
0000
EFC0
AA40
AFC0
CA40
AFC0
A000
BFE0
AA40
C980
8A40
9C20
ENDCHAR

STARTCHAR 3729
ENCODING 14121
SWIDTH 960 0
DWIDTH 12 0
BBX 12 12 0 -2
BITMAP
0800
0F00
3100
C600
1980
E460
2480
1500
FFE0
0E00
3580
C460
ENDCHAR

STARTCHAR 372a
ENCODING 14122
SWIDTH 960 0
DWIDTH 12 0
BBX 12 12 0 -2
BITMAP
0000
FFE0
0A00
7FC0
4A40
7FC0
0400
FFE0
0E00
3580
C460
0400
ENDCHAR

STARTCHAR 372b
ENCODING 14123
SWIDTH 960 0
DWIDTH 12 0
BBX 12 12 0 -2
BITMAP
2380
2280
D380
5000
2EE0
5AA0
FEE0
2100
AFE0
AB80
A540
2920
ENDCHAR

STARTCHAR 372c
ENCODING 14124
SWIDTH 960 0
DWIDTH 12 0
BBX 12 12 0 -2
BITMAP
3F80
1100
0E00
3180
FFC0
4A40
3580
CE40
FFE0
0E00
3580
C460
ENDCHAR

STARTCHAR 372d
ENCODING 14125
SWIDTH 960 0
DWIDTH 12 0
BBX 12 12 0 -2
BITMAP
2140
2640
5240
4A50
F7D0
22E0
F640
2740
AAA0
72A0
3B20
C210
ENDCHAR

STARTCHAR 372e
ENCODING 14126
SWIDTH 960 0
DWIDTH 12 0
BBX 12 12 0 -2
BITMAP
7D00
1100
FFE0
5520
7D20
5520
7D20
1220
FCC0
4080
5240
8920
ENDCHAR

STARTCHAR 372f
ENCODING 14127
SWIDTH 960 0
DWIDTH 12 0
BBX 12 12 0 -2
BITMAP
0000
7F80
0880
FFE0
0880
0880
7F80
1000
3F80
5080
9080
1F80
ENDCHAR

STARTCHAR 3730
ENCODING 14128
SWIDTH 960 0
DWIDTH 12 0
BBX 12 12 0 -2
BITMAP
1100
FFE0
1100
7FC0
0400
FFE0
2480
3F80
2480
FFE0
5240
8920
ENDCHAR

STARTCHAR 3731
ENCODING 14129
SWIDTH 960 0
DWIDTH 12 0
BBX 12 12 0 -2
BITMAP
7220
02A0
FAA0
02A0
72A0
02A0
72A0
02A0
F2A0
92A0
9420
F420
ENDCHAR

STARTCHAR 3732
ENCODING 14130
SWIDTH 960 0
DWIDTH 12 0
BBX 12 12 0 -2
BITMAP
0220
7D40
27E0
FE80
2480
7FE0
2080
3C80
67E0
6480
A480
3C80
ENDCHAR

STARTCHAR 3733
ENCODING 14131
SWIDTH 960 0
DWIDTH 12 0
BBX 12 12 0 -2
BITMAP
FFE0
8420
BFA0
0400
7FC0
4440
7FC0
4440
7FC0
0400
FFE0
0400
ENDCHAR

STARTCHAR 3734
ENCODING 14132
SWIDTH 960 0
DWIDTH 12 0
BBX 12 12 0 -2
BITMAP
0000
7DE0
2520
FF40
2580
7D40
2120
3D20
6520
65C0
A500
3D00
ENDCHAR

STARTCHAR 3735
ENCODING 14133
SWIDTH 960 0
DWIDTH 12 0
BBX 12 12 0 -2
BITMAP
1100
1100
7D00
1100
FD80
1140
1120
7D20
1100
1F00
E100
0100
ENDCHAR

STARTCHAR 3736
ENCODING 14134
SWIDTH 960 0
DWIDTH 12 0
BBX 12 12 0 -2
BITMAP
2000
23C0
FA40
2A40
2A40
5BC0
8000
FFE0
1440
3280
DD80
3060
ENDCHAR

STARTCHAR 3737
ENCODING 14135
SWIDTH 960 0
DWIDTH 12 0
BBX 12 12 0 -2
BITMAP
2000
23C0
FA40
0A80
1300
2280
7240
AA20
2220
22C0
2200
2200
ENDCHAR

STARTCHAR 3738
ENCODING 14136
SWIDTH 960 0
DWIDTH 12 0
BBX 12 12 0 -2
BITMAP
10C0
1F00
1240
2C80
2300
6240
AFA0
2100
2540
2520
2920
2100
ENDCHAR

STARTCHAR 3739
ENCODING 14137
SWIDTH 960 0
DWIDTH 12 0
BBX 12 12 0 -2
BITMAP
2000
2FE0
2100
53C0
5640
DBC0
5240
53C0
5640
4FC0
4340
4C20
ENDCHAR

STARTCHAR 373a
ENCODING 14138
SWIDTH 960 0
DWIDTH 12 0
BBX 12 12 0 -2
BITMAP
0020
FD20
4920
4920
4920
FF20
4920
4920
4920
4820
4820
8860
ENDCHAR

STARTCHAR 373b
ENCODING 14139
SWIDTH 960 0
DWIDTH 12 0
BBX 12 12 0 -2
BITMAP
0000
3F80
2080
2080
2080
3F80
0A00
0A00
0A00
1220
2220
C1E0
ENDCHAR

STARTCHAR 373c
ENCODING 14140
SWIDTH 960 0
DWIDTH 12 0
BBX 12 12 0 -2
BITMAP
FA00
03E0
7A40
4D40
7880
4140
4620
8000
3F80
2080
2080
3F80
ENDCHAR

STARTCHAR 373d
ENCODING 14141
SWIDTH 960 0
DWIDTH 12 0
BBX 12 12 0 -2
BITMAP
0400
0400
3FC0
0400
0400
7FE0
0400
0400
7FC0
0400
0400
FFE0
ENDCHAR

STARTCHAR 373e
ENCODING 14142
SWIDTH 960 0
DWIDTH 12 0
BBX 12 12 0 -2
BITMAP
0100
F100
2FC0
2100
F100
2FE0
2100
2100
3FC0
E100
0100
1FE0
ENDCHAR

STARTCHAR 373f
ENCODING 14143
SWIDTH 960 0
DWIDTH 12 0
BBX 12 12 0 -2
BITMAP
0020
7F20
2920
2920
FF20
2920
4820
8460
3F80
0400
0400
FFE0
ENDCHAR

STARTCHAR 3740
ENCODING 14144
SWIDTH 960 0
DWIDTH 12 0
BBX 12 12 0 -2
BITMAP
1000
7BE0
1120
7D20
1120
1A20
E4C0
0400
FFE0
0A00
3180
C060
ENDCHAR

STARTCHAR 3741
ENCODING 14145
SWIDTH 960 0
DWIDTH 12 0
BBX 12 12 0 -2
BITMAP
0080
FC80
4900
4940
4A40
FC80
4880
4920
4820
4840
4880
8900
ENDCHAR

STARTCHAR 3742
ENCODING 14146
SWIDTH 960 0
DWIDTH 12 0
BBX 12 12 0 -2
BITMAP
2000
2FC0
5040
9680
2100
2280
6D60
A100
2FC0
2100
2100
3FE0
ENDCHAR

STARTCHAR 3743
ENCODING 14147
SWIDTH 960 0
DWIDTH 12 0
BBX 12 12 0 -2
BITMAP
0400
FFE0
0400
3FC0
2440
3FC0
2440
3FC0
1400
5240
90A0
0F80
ENDCHAR

STARTCHAR 3744
ENCODING 14148
SWIDTH 960 0
DWIDTH 12 0
BBX 12 12 0 -2
BITMAP
0400
7FE0
4900
7FC0
4940
7FE0
5A40
67A0
4920
B600
8980
7060
ENDCHAR

STARTCHAR 3745
ENCODING 14149
SWIDTH 960 0
DWIDTH 12 0
BBX 12 12 0 -2
BITMAP
FBC0
2100
FFC0
2100
7FC0
0080
7F80
0080
7F80
5440
92A0
0F80
ENDCHAR

STARTCHAR 3746
ENCODING 14150
SWIDTH 960 0
DWIDTH 12 0
BBX 12 12 0 -2
BITMAP
1900
E3C0
2240
FBC0
2240
7BC0
4A40
7BC0
1400
5240
90A0
0F80
ENDCHAR

STARTCHAR 3747
ENCODING 14151
SWIDTH 960 0
DWIDTH 12 0
BBX 12 12 0 -2
BITMAP
27C0
2440
27C0
F440
27C0
2200
37E0
EC20
37A0
2420
23A0
60C0
ENDCHAR

STARTCHAR 3748
ENCODING 14152
SWIDTH 960 0
DWIDTH 12 0
BBX 12 12 0 -2
BITMAP
2440
27E0
2C80
F7E0
2480
27E0
3480
EFE0
2240
2260
2420
68C0
ENDCHAR

STARTCHAR 3749
ENCODING 14153
SWIDTH 960 0
DWIDTH 12 0
BBX 12 12 0 -2
BITMAP
2900
FD00
29E0
2240
7E40
4540
F540
5480
5480
7580
0640
1820
ENDCHAR

STARTCHAR 374a
ENCODING 14154
SWIDTH 960 0
DWIDTH 12 0
BBX 12 12 0 -2
BITMAP
3F80
2080
3F80
2080
FFE0
0000
3F80
2080
3F80
0500
2480
CC40
ENDCHAR

STARTCHAR 374b
ENCODING 14155
SWIDTH 960 0
DWIDTH 12 0
BBX 12 12 0 -2
BITMAP
2100
2100
27C0
F900
2100
6FE0
7100
6900
A7C0
A100
2100
2FE0
ENDCHAR

STARTCHAR 374c
ENCODING 14156
SWIDTH 960 0
DWIDTH 12 0
BBX 12 12 0 -2
BITMAP
43C0
3C40
1240
8A80
4A80
0FC0
0200
3FE0
4200
4300
8480
9860
ENDCHAR

STARTCHAR 374d
ENCODING 14157
SWIDTH 960 0
DWIDTH 12 0
BBX 12 12 0 -2
BITMAP
0100
F900
AFC0
A900
A900
FFE0
A900
A900
AFC0
F900
0100
0FE0
ENDCHAR

STARTCHAR 374e
ENCODING 14158
SWIDTH 960 0
DWIDTH 12 0
BBX 12 12 0 -2
BITMAP
1240
EFE0
2300
24E0
FC40
2780
7420
6FE0
A440
A7C0
2440
27C0
ENDCHAR

STARTCHAR 374f
ENCODING 14159
SWIDTH 960 0
DWIDTH 12 0
BBX 12 12 0 -2
BITMAP
01C0
7E00
0480
2900
1200
0C80
FFC0
0420
2500
2480
4440
0400
ENDCHAR

STARTCHAR 3750
ENCODING 14160
SWIDTH 960 0
DWIDTH 12 0
BBX 12 12 0 -2
BITMAP
2000
27C0
D240
5180
2280
5460
F900
2100
B7C0
A900
A100
2FE0
ENDCHAR

STARTCHAR 3751
ENCODING 14161
SWIDTH 960 0
DWIDTH 12 0
BBX 12 12 0 -2
BITMAP
2480
2480
D6A0
55C0
27E0
5480
FDC0
25C0
B6A0
AC80
A480
27E0
ENDCHAR

STARTCHAR 3752
ENCODING 14162
SWIDTH 960 0
DWIDTH 12 0
BBX 12 12 0 -2
BITMAP
FB80
22A0
FCE0
AFC0
FA40
2180
FE60
3280
0D00
FFE0
1500
64C0
ENDCHAR

STARTCHAR 3753
ENCODING 14163
SWIDTH 960 0
DWIDTH 12 0
BBX 12 12 0 -2
BITMAP
0000
7FC0
4A40
7FC0
1100
7D00
1180
FF40
1120
7D00
1D00
F100
ENDCHAR

STARTCHAR 3754
ENCODING 14164
SWIDTH 960 0
DWIDTH 12 0
BBX 12 12 0 -2
BITMAP
1100
FFE0
1100
7F80
1300
0C00
3300
C4E0
3F80
0400
0400
FFE0
ENDCHAR

STARTCHAR 3755
ENCODING 14165
SWIDTH 960 0
DWIDTH 12 0
BBX 12 12 0 -2
BITMAP
1200
FFE0
1200
0040
FE40
2A40
2A40
FE40
2A40
4A40
4840
88C0
ENDCHAR

STARTCHAR 3756
ENCODING 14166
SWIDTH 960 0
DWIDTH 12 0
BBX 12 12 0 -2
BITMAP
4880
2480
2500
FFE0
8420
BFA0
2480
2480
3F80
0440
07E0
F820
ENDCHAR

STARTCHAR 3757
ENCODING 14167
SWIDTH 960 0
DWIDTH 12 0
BBX 12 12 0 -2
BITMAP
7100
0100
F900
0100
7FE0
0100
7100
0100
F100
9100
9100
F100
ENDCHAR

STARTCHAR 3758
ENCODING 14168
SWIDTH 960 0
DWIDTH 12 0
BBX 12 12 0 -2
BITMAP
7400
04C0
FF00
0420
73E0
0000
77C0
0440
F7C0
9440
9440
F7C0
ENDCHAR

STARTCHAR 3759
ENCODING 14169
SWIDTH 960 0
DWIDTH 12 0
BBX 12 12 0 -2
BITMAP
2900
FDF0
4620
F540
54C0
7730
0C00
7FE0
0F00
3FC0
2040
3FC0
ENDCHAR

STARTCHAR 375a
ENCODING 14170
SWIDTH 960 0
DWIDTH 12 0
BBX 12 12 0 -2
BITMAP
2000
FBE0
2020
F940
A880
FB60
A880
F880
23E0
F880
2080
27F0
ENDCHAR

STARTCHAR 375b
ENCODING 14171
SWIDTH 960 0
DWIDTH 12 0
BBX 12 12 0 -2
BITMAP
0000
FBE0
0900
53E0
3220
4BE0
A220
7BE0
2220
2BE0
3140
C620
ENDCHAR

STARTCHAR 375c
ENCODING 14172
SWIDTH 960 0
DWIDTH 12 0
BBX 12 12 0 -2
BITMAP
1A00
E7C0
0440
AFC0
AC00
07C0
FC00
27E0
F820
22A0
5420
80C0
ENDCHAR

STARTCHAR 375d
ENCODING 14173
SWIDTH 960 0
DWIDTH 12 0
BBX 12 12 0 -2
BITMAP
1100
FFE0
1100
1100
7FC0
0000
FFE0
0400
0900
1380
7C40
0040
ENDCHAR

STARTCHAR 375e
ENCODING 14174
SWIDTH 960 0
DWIDTH 12 0
BBX 12 12 0 -2
BITMAP
0000
4200
2DE0
0920
0920
E920
2920
2F20
29C0
2100
5900
87F0
ENDCHAR

STARTCHAR 375f
ENCODING 14175
SWIDTH 960 0
DWIDTH 12 0
BBX 12 12 0 -2
BITMAP
2100
3FE0
5000
FBC0
AA40
FA40
ABC0
F880
12C0
6AA0
54A0
8180
ENDCHAR

STARTCHAR 3760
ENCODING 14176
SWIDTH 960 0
DWIDTH 12 0
BBX 12 12 0 -2
BITMAP
1C20
1120
7D20
6520
7920
4120
7D20
5320
6D20
5C20
AA20
1060
ENDCHAR

STARTCHAR 3761
ENCODING 14177
SWIDTH 960 0
DWIDTH 12 0
BBX 12 12 0 -2
BITMAP
2100
F980
2140
F9E0
8F00
F940
8940
F980
2080
F9A0
2260
2420
ENDCHAR

STARTCHAR 3762
ENCODING 14178
SWIDTH 960 0
DWIDTH 12 0
BBX 12 12 0 -2
BITMAP
11C0
FD40
5550
7FF0
5540
FDC0
1230
3F80
0200
FFE0
0200
0600
ENDCHAR

STARTCHAR 3763
ENCODING 14179
SWIDTH 960 0
DWIDTH 12 0
BBX 12 12 0 -2
BITMAP
4900
3D00
15E0
9D40
5640
1E40
0940
3E80
4880
4D40
9640
AC20
ENDCHAR

STARTCHAR 3764
ENCODING 14180
SWIDTH 960 0
DWIDTH 12 0
BBX 12 12 0 -2
BITMAP
0100
E540
A920
AFC0
C840
AFC0
A840
AFC0
C540
8920
9120
8300
ENDCHAR

STARTCHAR 3765
ENCODING 14181
SWIDTH 960 0
DWIDTH 12 0
BBX 12 12 0 -2
BITMAP
2200
25C0
2800
F200
25E0
6C80
7480
6C80
A480
A480
2480
2580
ENDCHAR

STARTCHAR 3766
ENCODING 14182
SWIDTH 960 0
DWIDTH 12 0
BBX 12 12 0 -2
BITMAP
2840
2C40
35E0
5D40
47E0
C840
7240
5FE0
4700
4A80
5260
4200
ENDCHAR

STARTCHAR 3767
ENCODING 14183
SWIDTH 960 0
DWIDTH 12 0
BBX 12 12 0 -2
BITMAP
1000
1000
1000
1FE0
2440
2480
4400
0600
0A00
1100
2080
C060
ENDCHAR

STARTCHAR 3768
ENCODING 14184
SWIDTH 960 0
DWIDTH 12 0
BBX 12 12 0 -2
BITMAP
4200
2200
1FC0
8240
4240
0240
3FF0
2300
4500
4480
8840
B020
ENDCHAR

STARTCHAR 3769
ENCODING 14185
SWIDTH 960 0
DWIDTH 12 0
BBX 12 12 0 -2
BITMAP
49E0
3EA0
08A0
3CA0
8F20
7240
1D00
2640
5FA0
4A80
B240
8200
ENDCHAR

STARTCHAR 376a
ENCODING 14186
SWIDTH 960 0
DWIDTH 12 0
BBX 12 12 0 -2
BITMAP
0400
0400
FFE0
8020
8020
1700
1100
1100
2080
2080
4040
8020
ENDCHAR

STARTCHAR 376b
ENCODING 14187
SWIDTH 960 0
DWIDTH 12 0
BBX 12 12 0 -2
BITMAP
2100
2100
DFE0
5100
2100
57C0
F800
27C0
B440
AC40
A440
27C0
ENDCHAR

STARTCHAR 376c
ENCODING 14188
SWIDTH 960 0
DWIDTH 12 0
BBX 12 12 0 -2
BITMAP
0800
0800
1000
7FC0
4A40
4A40
4A40
4A40
4A40
4A40
FFE0
0000
ENDCHAR

STARTCHAR 376d
ENCODING 14189
SWIDTH 960 0
DWIDTH 12 0
BBX 12 12 0 -2
BITMAP
7200
0200
F200
0FC0
7240
0240
7FE0
0200
F300
9480
9840
F020
ENDCHAR

STARTCHAR 376e
ENCODING 14190
SWIDTH 960 0
DWIDTH 12 0
BBX 12 12 0 -2
BITMAP
0000
1FC0
1040
1040
1FC0
1040
1040
1FC0
1040
2040
2040
40C0
ENDCHAR

STARTCHAR 376f
ENCODING 14191
SWIDTH 960 0
DWIDTH 12 0
BBX 12 12 0 -2
BITMAP
1100
1500
1500
2FC0
2900
7100
BFE0
2100
2100
2100
2100
2100
ENDCHAR

STARTCHAR 3770
ENCODING 14192
SWIDTH 960 0
DWIDTH 12 0
BBX 12 12 0 -2
BITMAP
1100
1280
1440
2BA0
3110
6FE0
A920
2FE0
2300
2280
2440
2820
ENDCHAR

STARTCHAR 3771
ENCODING 14193
SWIDTH 960 0
DWIDTH 12 0
BBX 12 12 0 -2
BITMAP
2240
2A80
3FC0
4200
5FE0
C500
4880
5F40
6120
4F00
4840
47C0
ENDCHAR

STARTCHAR 3772
ENCODING 14194
SWIDTH 960 0
DWIDTH 12 0
BBX 12 12 0 -2
BITMAP
2080
23E0
3CA0
47F0
48A0
DFE0
4480
57E0
4C80
47E0
4A80
51F0
ENDCHAR

STARTCHAR 3773
ENCODING 14195
SWIDTH 960 0
DWIDTH 12 0
BBX 12 12 0 -2
BITMAP
1100
FFE0
0A00
7FC0
0A40
FFE0
0A40
7FC0
1B00
2A80
CA60
0A00
ENDCHAR

STARTCHAR 3774
ENCODING 14196
SWIDTH 960 0
DWIDTH 12 0
BBX 12 12 0 -2
BITMAP
2480
1480
1500
7FC0
0A00
FFE0
1100
3F80
C960
0900
1100
2600
ENDCHAR

STARTCHAR 3775
ENCODING 14197
SWIDTH 960 0
DWIDTH 12 0
BBX 12 12 0 -2
BITMAP
1020
2920
4520
BB20
1120
7D20
5520
7D20
1920
1420
2220
C060
ENDCHAR

STARTCHAR 3776
ENCODING 14198
SWIDTH 960 0
DWIDTH 12 0
BBX 12 12 0 -2
BITMAP
0100
FFE0
B020
AFC0
A000
AFC0
A840
AFC0
E840
0FC0
0000
1FE0
ENDCHAR

STARTCHAR 3777
ENCODING 14199
SWIDTH 960 0
DWIDTH 12 0
BBX 12 12 0 -2
BITMAP
0000
FFE0
9520
BFA0
8420
FFE0
9F20
E2E0
9E20
9120
8F20
FFE0
ENDCHAR

STARTCHAR 3778
ENCODING 14200
SWIDTH 960 0
DWIDTH 12 0
BBX 12 12 0 -2
BITMAP
0000
FBE0
A020
FA40
8940
F880
A140
FE20
0400
3F80
0400
FFE0
ENDCHAR

STARTCHAR 3779
ENCODING 14201
SWIDTH 960 0
DWIDTH 12 0
BBX 12 12 0 -2
BITMAP
4880
5FE0
4500
FFC0
5540
5FE0
5540
9FC0
F500
2D80
5560
8500
ENDCHAR

STARTCHAR 377a
ENCODING 14202
SWIDTH 960 0
DWIDTH 12 0
BBX 12 12 0 -2
BITMAP
0100
77C0
1140
2FE0
4140
77C0
1100
57C0
2100
37E0
4D00
83F0
ENDCHAR

STARTCHAR 377b
ENCODING 14203
SWIDTH 960 0
DWIDTH 12 0
BBX 12 12 0 -2
BITMAP
0400
FFE0
8420
BFA0
0400
FFE0
4A40
7FC0
5400
5240
90A0
0F80
ENDCHAR

STARTCHAR 377c
ENCODING 14204
SWIDTH 960 0
DWIDTH 12 0
BBX 12 12 0 -2
BITMAP
39C0
AF00
B940
AE80
B940
87E0
F900
2D40
A520
1240
50A0
8FA0
ENDCHAR

STARTCHAR 377d
ENCODING 14205
SWIDTH 960 0
DWIDTH 12 0
BBX 12 12 0 -2
BITMAP
2480
1500
7FC0
0A00
FFE0
2680
DC60
3F80
0400
7FC0
0400
0C00
ENDCHAR

STARTCHAR 377e
ENCODING 14206
SWIDTH 960 0
DWIDTH 12 0
BBX 12 12 0 -2
BITMAP
2920
2540
27C0
F100
2FE0
2280
3440
EBB0
2080
2780
2440
63C0
ENDCHAR

STARTCHAR 3821
ENCODING 14369
SWIDTH 960 0
DWIDTH 12 0
BBX 12 12 0 -2
BITMAP
2100
2280
2440
FFA0
2100
6FC0
7940
6FC0
A100
A280
2440
3820
ENDCHAR

STARTCHAR 3822
ENCODING 14370
SWIDTH 960 0
DWIDTH 12 0
BBX 12 12 0 -2
BITMAP
2400
27C0
2900
F7E0
2280
37E0
6D00
77C0
A500
A7C0
2500
27E0
ENDCHAR

STARTCHAR 3823
ENCODING 14371
SWIDTH 960 0
DWIDTH 12 0
BBX 12 12 0 -2
BITMAP
0400
FFE0
0500
1A00
FFE0
8920
9EA0
2400
3F80
4400
FFE0
0400
ENDCHAR

STARTCHAR 3824
ENCODING 14372
SWIDTH 960 0
DWIDTH 12 0
BBX 12 12 0 -2
BITMAP
0400
0480
0440
0400
FFE0
0400
0A00
0A00
1100
1100
2080
C060
ENDCHAR

STARTCHAR 3825
ENCODING 14373
SWIDTH 960 0
DWIDTH 12 0
BBX 12 12 0 -2
BITMAP
1080
FCC0
10A0
FC80
CFE0
B480
FC80
9540
FD40
9520
9620
9410
ENDCHAR

STARTCHAR 3826
ENCODING 14374
SWIDTH 960 0
DWIDTH 12 0
BBX 12 12 0 -2
BITMAP
0000
FFE0
2240
2240
4240
7FE0
CA40
4A40
4A40
7C40
0440
0840
ENDCHAR

STARTCHAR 3827
ENCODING 14375
SWIDTH 960 0
DWIDTH 12 0
BBX 12 12 0 -2
BITMAP
0000
FFC0
2440
27C0
4440
77C0
D440
57C0
5280
5280
74A0
0860
ENDCHAR

STARTCHAR 3828
ENCODING 14376
SWIDTH 960 0
DWIDTH 12 0
BBX 12 12 0 -2
BITMAP
23E0
4220
93E0
6000
4BE0
FA20
2BE0
B220
ABE0
AA20
A220
2260
ENDCHAR

STARTCHAR 3829
ENCODING 14377
SWIDTH 960 0
DWIDTH 12 0
BBX 12 12 0 -2
BITMAP
0000
1F80
9080
9F80
9080
9F80
9080
9F80
8000
FFE0
2580
C460
ENDCHAR

STARTCHAR 382a
ENCODING 14378
SWIDTH 960 0
DWIDTH 12 0
BBX 12 12 0 -2
BITMAP
0000
7FE0
0000
7FE0
4020
7FE0
5040
5FC0
5040
5FC0
9040
10C0
ENDCHAR

STARTCHAR 382b
ENCODING 14379
SWIDTH 960 0
DWIDTH 12 0
BBX 12 12 0 -2
BITMAP
0000
3F80
2080
3F80
2080
3F80
2080
3F80
0A00
1220
2220
C1E0
ENDCHAR

STARTCHAR 382c
ENCODING 14380
SWIDTH 960 0
DWIDTH 12 0
BBX 12 12 0 -2
BITMAP
E440
0FE0
F280
0FE0
E2A0
0FF0
E2A0
0FE0
F280
96C0
9AA0
F280
ENDCHAR

STARTCHAR 382d
ENCODING 14381
SWIDTH 960 0
DWIDTH 12 0
BBX 12 12 0 -2
BITMAP
FFE0
A240
F980
8940
FE20
3F80
2080
3F80
2080
3F80
1980
E060
ENDCHAR

STARTCHAR 382e
ENCODING 14382
SWIDTH 960 0
DWIDTH 12 0
BBX 12 12 0 -2
BITMAP
2000
FBE0
2080
F880
A880
FFE0
A880
F880
2080
FC80
2080
2080
ENDCHAR

STARTCHAR 382f
ENCODING 14383
SWIDTH 960 0
DWIDTH 12 0
BBX 12 12 0 -2
BITMAP
0200
4FC0
2A40
1FE0
0000
EF80
2880
2FC0
2840
2FC0
5800
87F0
ENDCHAR

STARTCHAR 3830
ENCODING 14384
SWIDTH 960 0
DWIDTH 12 0
BBX 12 12 0 -2
BITMAP
2080
33E0
5CA0
87F0
74A0
2BE0
FE80
2BE0
B680
63E0
3580
C8F0
ENDCHAR

STARTCHAR 3831
ENCODING 14385
SWIDTH 960 0
DWIDTH 12 0
BBX 12 12 0 -2
BITMAP
E200
A500
A880
BF60
C200
BFC0
B240
BFC0
C200
8500
8880
9040
ENDCHAR

STARTCHAR 3832
ENCODING 14386
SWIDTH 960 0
DWIDTH 12 0
BBX 12 12 0 -2
BITMAP
0000
FBE0
8900
FBE0
8A20
FBE0
5220
D7E0
DA20
53E0
5940
E620
ENDCHAR

STARTCHAR 3833
ENCODING 14387
SWIDTH 960 0
DWIDTH 12 0
BBX 12 12 0 -2
BITMAP
0100
FA80
A440
FFA0
A100
F7C0
A540
FFC0
2900
A980
8A40
3420
ENDCHAR

STARTCHAR 3834
ENCODING 14388
SWIDTH 960 0
DWIDTH 12 0
BBX 12 12 0 -2
BITMAP
2100
3A80
2440
FFA0
8900
DFC0
BD40
AFC0
E900
D980
8A40
FC20
ENDCHAR

STARTCHAR 3835
ENCODING 14389
SWIDTH 960 0
DWIDTH 12 0
BBX 12 12 0 -2
BITMAP
0000
1F80
0000
0000
7FE0
0900
0900
0900
1100
1120
2120
40E0
ENDCHAR

ENDFONT
